<?xml version="1.0" encoding="UTF-8"?>
<svg id="_레이어_5" data-name=" 레이어 5" xmlns="http://www.w3.org/2000/svg" viewBox="0 0 645 600">
  <defs>
    <style>
      .cls-1 {
        fill: #ebffb9;
      }

      .cls-2 {
        fill: #e1ff84;
      }

      .cls-3 {
        fill: #474642;
      }
    </style>
  </defs>
  <g>
    <polygon class="cls-1" points=".75 599.25 .75 .75 644.25 .75 644.25 453.84 498.84 599.25 .75 599.25"/>
    <path class="cls-3" d="M643.5,1.5v452.03l-144.97,144.97H1.5V1.5h642M644.45,0H.55c-.3,0-.55.25-.55.55v598.89c0,.31.25.55.55.55h498.6l145.85-145.85V.55c0-.3-.25-.55-.55-.55h0Z"/>
  </g>
  <g>
    <polygon class="cls-2" points="509.8 464.8 643.04 455 500 598.04 509.8 464.8"/>
    <path class="cls-3" d="M641.09,455.89l-140.19,140.19,9.61-130.59,130.59-9.61M645,454.1l-135.9,10-10,135.9,145.9-145.9h0Z"/>
  </g>
</svg>