<?xml version="1.0" encoding="UTF-8"?>
<svg id="_레이어_1" data-name="레이어 1" xmlns="http://www.w3.org/2000/svg" viewBox="0 0 50 50">
  <defs>
    <style>
      .cls-1 {
        fill: #474642;
      }
    </style>
  </defs>
  <path class="cls-1" d="M25,4.5c6.68,0,7.47.03,10.1.15,2.44.11,3.76.52,4.64.86,1.09.4,2.07,1.04,2.87,1.87.83.81,1.47,1.79,1.87,2.87.34.88.75,2.2.86,4.64.12,2.64.15,3.43.15,10.1s-.03,7.47-.15,10.1c-.11,2.44-.52,3.76-.86,4.64-.84,2.18-2.56,3.9-4.74,4.74-.88.34-2.2.75-4.64.86-2.64.12-3.43.15-10.1.15s-7.47-.03-10.1-.15c-2.44-.11-3.76-.52-4.64-.86-1.09-.4-2.07-1.04-2.87-1.87-.83-.81-1.47-1.79-1.87-2.87-.34-.88-.75-2.2-.86-4.64-.12-2.64-.15-3.43-.15-10.1s.03-7.47.15-10.1c.11-2.44.52-3.76.86-4.64.4-1.09,1.04-2.07,1.87-2.87.81-.83,1.79-1.47,2.87-1.87.88-.34,2.2-.75,4.64-.86,2.64-.12,3.43-.15,10.1-.15M25,0c-6.79,0-7.64.03-10.31.15-2.66.12-4.48.54-6.07,1.16-1.67.63-3.18,1.61-4.43,2.88-1.27,1.25-2.26,2.76-2.88,4.43-.62,1.59-1.04,3.41-1.16,6.07-.12,2.67-.15,3.52-.15,10.31s.03,7.64.15,10.31c.12,2.66.54,4.48,1.16,6.07.63,1.67,1.61,3.18,2.88,4.43,1.25,1.27,2.76,2.26,4.43,2.88,1.59.62,3.41,1.04,6.07,1.16,2.67.12,3.52.15,10.31.15s7.64-.03,10.31-.15c2.66-.12,4.48-.54,6.07-1.16,3.36-1.3,6.01-3.95,7.31-7.31.62-1.59,1.04-3.41,1.16-6.07.12-2.67.15-3.52.15-10.31s-.03-7.64-.15-10.31c-.12-2.66-.54-4.48-1.16-6.07-.63-1.67-1.61-3.18-2.88-4.43-1.25-1.27-2.76-2.26-4.43-2.88-1.59-.62-3.41-1.04-6.07-1.16C32.64.03,31.79,0,25,0h0Z"/>
  <path class="cls-1" d="M25,12.16c-7.09,0-12.84,5.75-12.84,12.84s5.75,12.84,12.84,12.84,12.84-5.75,12.84-12.84h0c0-7.09-5.75-12.84-12.84-12.84ZM25,33.33c-4.6,0-8.33-3.73-8.33-8.33s3.73-8.33,8.33-8.33c4.6,0,8.33,3.73,8.33,8.33,0,4.6-3.73,8.33-8.33,8.33Z"/>
  <circle class="cls-1" cx="38.34" cy="11.65" r="3"/>
</svg>