<?xml version="1.0" encoding="UTF-8"?>
<svg id="_레이어_1" data-name="레이어 1" xmlns="http://www.w3.org/2000/svg" viewBox="0 0 275 275">
  <defs>
    <style>
      .cls-1 {
        fill: #f2f4f5;
        stroke: #474642;
        stroke-linecap: round;
        stroke-linejoin: round;
        stroke-width: 1.5px;
      }
    </style>
  </defs>
  <g>
    <path class="cls-1" d="M41.63,201.36l29.82,7.13c1.81.43,3.55-.95,3.53-2.82l-.2-20.27c-.01-1.32-.92-2.45-2.2-2.76l-25.26-6.04c-1.55-.37-3.11.6-3.46,2.15l-4.36,19.18c-.35,1.53.6,3.06,2.13,3.42Z"/>
    <path class="cls-1" d="M47.26,176.59l23.93,5.72c1.81.43,3.55-.95,3.53-2.82l-.2-20.27c-.01-1.32-.92-2.45-2.2-2.76l-19.37-4.63c-1.55-.37-3.11.6-3.46,2.15l-4.36,19.18c-.35,1.53.6,3.06,2.13,3.42Z"/>
    <path class="cls-1" d="M36,226.13l35.71,8.54c1.81.43,3.55-.95,3.53-2.82l-.2-20.27c-.01-1.32-.92-2.45-2.2-2.76l-31.15-7.45c-1.55-.37-3.11.6-3.46,2.15l-4.36,19.18c-.35,1.53.6,3.06,2.13,3.42Z"/>
    <path class="cls-1" d="M73.68,74.56c-.5-.62-.78-1.41-.77-2.26l.32-20.11-5.07,19.7c-.44,1.88.73,3.76,2.61,4.2l.76.19c.77.19,1.41.67,1.78,1.31.62-1.02,1.74-1.7,3.01-1.7-1.07-.04-2.01-.55-2.64-1.32Z"/>
    <path class="cls-1" d="M73.68,74.56c-.5-.62-.78-1.41-.77-2.26l.32-20.11c0-.41.09-.81.22-1.17l.22,23.54Z"/>
    <path class="cls-1" d="M74.47,153.32c.01,1.33-.87,2.41-2.04,2.76-.46.15-.97.17-1.49.05l-18.04-4.32c-1.53-.36-2.47-1.89-2.13-3.42l4.5-19.83c.36-1.53,1.88-2.49,3.41-2.16l12,2.87,1.38.34c.67.16,1.24.55,1.63,1.07.36.47.57,1.06.57,1.69l.21,20.95Z"/>
    <path class="cls-1" d="M75.89,103.05c-1.06,0-2.01.47-2.66,1.22-.36-.4-.85-.7-1.42-.83l-1.39-.34-6.06-1.45s-.04-.01-.06-.01c-1.52-.36-2.47-1.89-2.13-3.42l4.58-20.11c.35-1.55,1.9-2.51,3.46-2.15l.57.14.76.19c.77.19,1.41.67,1.78,1.31-.32.51-.5,1.12-.51,1.77l-.32,20.12c-.01.96.35,1.83.96,2.46.61.66,1.48,1.08,2.45,1.12Z"/>
    <path class="cls-1" d="M73.95,100.27c0,.62-.19,1.19-.51,1.65-.61-.63-.97-1.5-.96-2.46l.32-20.12c.01-.65.19-1.26.51-1.77.27.42.42.92.42,1.45l.21,21.24Z"/>
    <path class="cls-1" d="M75.46,130.21c-.65,0-1.26.17-1.78.47-.39-.52-.96-.91-1.63-1.07l-1.38-.34-12-2.87c-1.53-.36-2.49-1.89-2.14-3.42l4.37-19.18c.36-1.54,1.88-2.5,3.39-2.18.02,0,.04.01.06.01l6.06,1.45,1.39.34c.57.14,1.06.44,1.42.83-.52.61-.85,1.38-.86,2.24l-.32,20.12c-.01.87.29,1.67.81,2.29.62.76,1.55,1.26,2.61,1.29Z"/>
    <path class="cls-1" d="M74.21,126.46c.01,1.04-.55,1.95-1.36,2.45-.52-.62-.82-1.42-.81-2.29l.32-20.12c.01-.86.34-1.63.86-2.24.48.51.77,1.18.78,1.92l.2,20.28Z"/>
  </g>
  <g>
    <path class="cls-1" d="M233.37,201.36l-29.82,7.13c-1.81.43-3.55-.95-3.53-2.82l.2-20.27c.01-1.32.92-2.45,2.2-2.76l25.26-6.04c1.55-.37,3.11.6,3.46,2.15l4.36,19.18c.35,1.53-.6,3.06-2.13,3.42Z"/>
    <path class="cls-1" d="M227.74,176.59l-23.93,5.72c-1.81.43-3.55-.95-3.53-2.82l.2-20.27c.01-1.32.92-2.45,2.2-2.76l19.37-4.63c1.55-.37,3.11.6,3.46,2.15l4.36,19.18c.35,1.53-.6,3.06-2.13,3.42Z"/>
    <path class="cls-1" d="M239,226.13l-35.71,8.54c-1.81.43-3.55-.95-3.53-2.82l.2-20.27c.01-1.32.92-2.45,2.2-2.76l31.15-7.45c1.55-.37,3.11.6,3.46,2.15l4.36,19.18c.35,1.53-.6,3.06-2.13,3.42Z"/>
    <path class="cls-1" d="M204.22,76.09l-.76.19c-1.02.25-1.8,1.02-2.08,1.99-.47-1.38-1.79-2.39-3.33-2.39,1.55-.05,2.84-1.08,3.27-2.49h0c.1-.36.15-.72.15-1.09l-.09-5.36-.23-14.75,5.69,19.7c.42,1.88-.75,3.76-2.62,4.2Z"/>
    <path class="cls-1" d="M201.47,72.29c0,.37-.05.73-.15,1.08l.06-6.44.09,5.36Z"/>
    <path class="cls-1" d="M222.11,151.82l-18.04,4.32c-.7.17-1.39.06-1.96-.24-.93-.46-1.58-1.43-1.57-2.57l.2-20.95c0-.51.14-.98.39-1.41.39-.67,1.03-1.17,1.82-1.36l1.39-.34,12-2.87c1.53-.32,3.05.63,3.4,2.16l4.51,19.83c.35,1.53-.61,3.06-2.13,3.42Z"/>
    <path class="cls-1" d="M210.7,101.63s-.04.01-.06.01l-6.04,1.45-1.39.34c-.73.17-1.36.62-1.74,1.23-.63-.97-1.73-1.62-2.97-1.62,1.18-.04,2.21-.66,2.82-1.57.39-.57.61-1.27.6-2.01l-.32-20.12c0-.37-.07-.75-.2-1.08.27-.97,1.06-1.74,2.08-1.99l.76-.19.57-.14c1.55-.36,3.11.6,3.47,2.15l4.56,20.11c.35,1.53-.6,3.06-2.13,3.42Z"/>
    <path class="cls-1" d="M201.91,99.47c.01.75-.21,1.44-.6,2.01-.16-.36-.25-.77-.25-1.21l.2-21.24c0-.26.05-.52.12-.77.12.34.2.71.2,1.08l.32,20.12Z"/>
    <path class="cls-1" d="M216.33,126.4l-12,2.87-1.39.34c-.78.19-1.43.68-1.82,1.36-.6-.47-1.37-.76-2.2-.76,1.19-.04,2.23-.66,2.84-1.58.37-.57.6-1.27.58-2l-.32-20.12c-.01-.67-.22-1.31-.56-1.84.39-.61,1.01-1.06,1.74-1.23l1.39-.34,6.04-1.45s.04-.01.06-.01c1.53-.32,3.05.63,3.39,2.18l4.36,19.18c.35,1.53-.6,3.06-2.13,3.42Z"/>
    <path class="cls-1" d="M202.34,126.63c.01.73-.21,1.43-.58,2-.6-.52-.97-1.29-.96-2.16l.2-20.28c0-.55.17-1.08.46-1.52.34.53.55,1.17.56,1.84l.32,20.12Z"/>
  </g>
  <g>
    <rect class="cls-1" x="134.97" y="36.16" width="4.44" height="12.51"/>
    <path class="cls-1" d="M114.87,36.16h20.1v12.51h-23.61v-8.99c0-1.94,1.58-3.52,3.52-3.52Z"/>
    <path class="cls-1" d="M163.03,39.68v8.99h-23.63v-12.51h20.11c1.94,0,3.52,1.58,3.52,3.52Z"/>
    <path class="cls-1" d="M134.97,157.37v27.16h-60.37c-1.93-.06-3.44-1.65-3.42-3.58l.32-20.11c.04-1.93,1.6-3.47,3.53-3.47h59.94Z"/>
    <path class="cls-1" d="M203.2,180.94c.04,1.93-1.49,3.52-3.41,3.58h-60.39v-27.16h59.95c1.93,0,3.49,1.54,3.53,3.47l.31,20.11Z"/>
    <path class="cls-1" d="M74.59,184.52h60.37v27.16h-60.81c-1.92-.06-3.44-1.65-3.42-3.58l.32-20.11c.04-1.93,1.6-3.47,3.53-3.47Z"/>
    <path class="cls-1" d="M203.63,208.1c.04,1.93-1.49,3.52-3.41,3.58h-60.82v-27.16h60.39c1.93,0,3.49,1.54,3.53,3.47l.31,20.11Z"/>
    <path class="cls-1" d="M74.16,211.68h60.81v27.16h-61.13c-1.96,0-3.56-1.62-3.52-3.58l.31-20.11c.04-1.93,1.6-3.47,3.53-3.47Z"/>
    <path class="cls-1" d="M204.07,235.26c.04,1.96-1.55,3.58-3.52,3.58h-61.15v-27.16h60.82c1.93,0,3.49,1.54,3.52,3.47l.32,20.11Z"/>
    <path class="cls-1" d="M134.97,130.21v27.16h-59.94c-1.06-.04-1.99-.52-2.6-1.28-.52-.62-.83-1.43-.82-2.3l.32-20.11c.02-1.28.72-2.39,1.75-3,.52-.3,1.13-.47,1.78-.47h59.5Z"/>
    <path class="cls-1" d="M202.78,153.78c.01.78-.24,1.52-.67,2.11-.62.86-1.62,1.43-2.75,1.47h-59.95v-27.16h59.52c.83,0,1.6.29,2.2.76.8.65,1.31,1.62,1.33,2.71l.32,20.11Z"/>
    <path class="cls-1" d="M134.97,75.88v27.17h-59.08c-.97-.04-1.84-.46-2.45-1.12-.61-.63-.97-1.5-.96-2.46l.32-20.12c.01-.65.19-1.26.51-1.77.62-1.02,1.74-1.7,3.01-1.7h58.65Z"/>
    <path class="cls-1" d="M201.91,99.47c.01.75-.21,1.44-.6,2.01-.61.91-1.64,1.53-2.82,1.57h-59.08v-27.17h58.65c1.54,0,2.86,1.01,3.33,2.39.12.34.2.71.2,1.08l.32,20.12Z"/>
    <path class="cls-1" d="M134.97,103.05v27.16h-59.5c-1.06-.04-1.99-.53-2.61-1.29-.52-.62-.82-1.42-.81-2.29l.32-20.12c.01-.86.34-1.63.86-2.24.65-.75,1.6-1.22,2.66-1.22h59.08Z"/>
    <path class="cls-1" d="M202.34,126.63c.01.73-.21,1.43-.58,2-.61.92-1.64,1.54-2.84,1.58h-59.52v-27.16h59.08c1.24,0,2.34.65,2.97,1.62.34.53.55,1.17.56,1.84l.32,20.12Z"/>
    <rect class="cls-1" x="134.97" y="48.72" width="4.44" height="190.13"/>
    <path class="cls-1" d="M134.97,48.72v27.16h-58.65c-1.07-.04-2.01-.55-2.64-1.32-.5-.62-.78-1.41-.77-2.26l.32-20.11c0-.41.09-.81.22-1.17.48-1.34,1.78-2.3,3.3-2.3h58.21Z"/>
    <path class="cls-1" d="M201.47,72.29c0,.37-.05.73-.15,1.08h0c-.44,1.42-1.72,2.45-3.27,2.5h-58.65v-27.16h58.21c1.93,0,3.49,1.54,3.53,3.47l.24,14.75.09,5.36Z"/>
    <g>
      <line class="cls-1" x1="134.97" y1="48.72" x2="134.97" y2="48.67"/>
      <line class="cls-1" x1="139.41" y1="48.72" x2="139.41" y2="48.67"/>
    </g>
  </g>
</svg>