<?xml version="1.0" encoding="UTF-8"?>
<svg id="_레이어_1" data-name="레이어 1" xmlns="http://www.w3.org/2000/svg" viewBox="0 0 275 275">
  <defs>
    <style>
      .cls-1 {
        fill: #f2f4f5;
        stroke: #474642;
        stroke-linecap: round;
        stroke-linejoin: round;
        stroke-width: 1.5px;
      }
    </style>
  </defs>
  <path class="cls-1" d="M67.2,113.87v117.69h140.6v-117.69c0-22.23-20.11-49.53-44.92-49.53h-50.75c-24.81,0-44.92,27.29-44.92,49.53Z"/>
  <polygon class="cls-1" points="120.84 54.39 120.84 54.39 120.84 64.34 131.95 64.34 131.95 54.39 131.95 54.39 131.95 44.44 120.84 54.39"/>
  <rect class="cls-1" x="131.95" y="44.44" width="11.11" height="9.95"/>
  <polygon class="cls-1" points="143.05 44.44 143.05 54.39 143.05 54.39 143.05 64.34 154.16 64.34 154.16 54.39 154.16 54.39 143.05 44.44"/>
  <rect class="cls-1" x="82.24" y="160.21" width="110.56" height="57.72"/>
  <line class="cls-1" x1="82.24" y1="173.84" x2="192.8" y2="173.84"/>
  <polygon class="cls-1" points="67.2 217.92 53 217.92 46.47 162.55 67.2 160.21 67.2 217.92"/>
  <polygon class="cls-1" points="222 217.92 207.8 217.92 207.8 160.21 228.53 162.55 222 217.92"/>
</svg>