<?xml version="1.0" encoding="UTF-8"?>
<svg id="_레이어_1" data-name="레이어 1" xmlns="http://www.w3.org/2000/svg" viewBox="0 0 275 275">
  <defs>
    <style>
      .cls-1 {
        fill: #f2f4f5;
      }

      .cls-2 {
        fill: none;
        stroke: #474642;
        stroke-linecap: round;
        stroke-linejoin: round;
        stroke-width: 1.5px;
      }
    </style>
  </defs>
  <g>
    <path class="cls-1" d="M107.98,51.28c0-.59,1.66-.59,1.66-1.18s-1.45-.59-1.45-1.18,1.1-.59,1.1-1.18-1.16-.59-1.16-1.18-.04-.59-.04-1.18,1.44-.59,1.44-1.18-.33-.59-.33-1.18.66-.59.66-1.18-.78-.59-.78-1.19-.45-.59-.45-1.19c0-.4.23-.87.31-1.24s.7-.63.86-.98-.77-1.49-.54-1.8,1.66.31,1.95.06.48-.61.83-.79.33-1.77.72-1.87,1.11.83,1.51.83c.59,0,.59,1.89,1.18,1.89s.59-1.2,1.18-1.2.59-1.22,1.18-1.22.59,2.27,1.18,2.27.59-2.55,1.18-2.55.59.54,1.18.54.59,1.21,1.19,1.21.59-1.33,1.19-1.33.59-.52,1.19-.52.59,2.31,1.19,2.31.59.12,1.19.12.59-2.36,1.19-2.36.59-.07,1.19-.07.59.66,1.19.66.59,1.25,1.19,1.25.59-.7,1.19-.7.59.7,1.19.7.59.17,1.19.17.59-1.35,1.19-1.35.59.12,1.19.12.59.16,1.19.16.59,1.67,1.19,1.67.59-2.47,1.19-2.47.6,1.16,1.19,1.16.59-1.33,1.19-1.33.6.52,1.19.52.59.7,1.19.7.6.13,1.19.13.59,1.08,1.19,1.08.59-1.88,1.19-1.88.6-.18,1.19-.18.59.81,1.19.81.6,0,1.19,0,.6.22,1.19.22.6-.07,1.19-.07.6,1.04,1.19,1.04.6-1.23,1.2-1.23.6-.69,1.2-.69c.4,0,.61,1.6.98,1.69s1.14-.88,1.48-.7.1,1.21.4,1.47,1.78-.49,2.01-.18-1.23,1.63-1.07,2,1.56.27,1.64.66-1.33.87-1.33,1.27c0,.59,1.33.59,1.33,1.18s.7.59.7,1.18-.85.59-.85,1.18-1.4.59-1.4,1.18.55.59.55,1.18.65.59.65,1.18-.96.59-.96,1.18,1.04.59,1.04,1.18-1.53.59-1.53,1.19,1.57.59,1.57,1.19"/>
    <path class="cls-2" d="M107.98,51.28c0-.59,1.66-.59,1.66-1.18s-1.45-.59-1.45-1.18,1.1-.59,1.1-1.18-1.16-.59-1.16-1.18-.04-.59-.04-1.18,1.44-.59,1.44-1.18-.33-.59-.33-1.18.66-.59.66-1.18-.78-.59-.78-1.19-.45-.59-.45-1.19c0-.4.23-.87.31-1.24s.7-.63.86-.98-.77-1.49-.54-1.8,1.66.31,1.95.06.48-.61.83-.79.33-1.77.72-1.87,1.11.83,1.51.83c.59,0,.59,1.89,1.18,1.89s.59-1.2,1.18-1.2.59-1.22,1.18-1.22.59,2.27,1.18,2.27.59-2.55,1.18-2.55.59.54,1.18.54.59,1.21,1.19,1.21.59-1.33,1.19-1.33.59-.52,1.19-.52.59,2.31,1.19,2.31.59.12,1.19.12.59-2.36,1.19-2.36.59-.07,1.19-.07.59.66,1.19.66.59,1.25,1.19,1.25.59-.7,1.19-.7.59.7,1.19.7.59.17,1.19.17.59-1.35,1.19-1.35.59.12,1.19.12.59.16,1.19.16.59,1.67,1.19,1.67.59-2.47,1.19-2.47.6,1.16,1.19,1.16.59-1.33,1.19-1.33.6.52,1.19.52.59.7,1.19.7.6.13,1.19.13.59,1.08,1.19,1.08.59-1.88,1.19-1.88.6-.18,1.19-.18.59.81,1.19.81.6,0,1.19,0,.6.22,1.19.22.6-.07,1.19-.07.6,1.04,1.19,1.04.6-1.23,1.2-1.23.6-.69,1.2-.69c.4,0,.61,1.6.98,1.69s1.14-.88,1.48-.7.1,1.21.4,1.47,1.78-.49,2.01-.18-1.23,1.63-1.07,2,1.56.27,1.64.66-1.33.87-1.33,1.27c0,.59,1.33.59,1.33,1.18s.7.59.7,1.18-.85.59-.85,1.18-1.4.59-1.4,1.18.55.59.55,1.18.65.59.65,1.18-.96.59-.96,1.18,1.04.59,1.04,1.18-1.53.59-1.53,1.19,1.57.59,1.57,1.19"/>
  </g>
  <g>
    <g>
      <path class="cls-1" d="M26.68,212.22c-.08.4.99,1.08.95,1.48s-.16.8-.16,1.19,1.03.68,1.08,1.08-1.79,1.14-1.7,1.53,1.16.55,1.29.92.89.45,1.07.81.72.39.94.73.46.48.72.79-.16,1.11.13,1.39-.04,1.32.28,1.56,1.26-.46,1.61-.26.15,1.61.53,1.76,1-.25,1.39-.15c.57.15.94-1.3,1.52-1.16s.4.84.98.98.33,1.13.9,1.28.54.28,1.11.43.49.47,1.06.62.87-1.01,1.44-.86.76-.59,1.34-.44.7-.36,1.28-.22.13,1.9.71,2.05.62-.01,1.19.13.76-.59,1.34-.45.24,1.48.81,1.63.66-.17,1.23-.03,1.03-1.64,1.61-1.5-.02,2.5.55,2.64.48.54,1.05.69,1.06-1.77,1.64-1.63.68-.26,1.26-.12.28,1.31.85,1.46.31,1.2.88,1.34,1.03-1.63,1.61-1.49.27,1.33.85,1.48,1.09-1.89,1.67-1.75.12,1.96.69,2.11.99-1.47,1.56-1.33.6.08,1.17.22.4.85.98.99.3,1.22.88,1.37.79-.69,1.37-.54.7-.32,1.28-.17,1.12,2.16,1.59,1.8-1.38-1.39-1.39-1.97,1.7-.59,1.7-1.18-.62-.59-.62-1.17-1.49-.58-1.49-1.17-.28-.59-.28-1.17.17-.59.17-1.18.68-.59.68-1.18,1.61-.59,1.61-1.18.27-.59.27-1.18-2.28-.58-2.28-1.17.6-.59.6-1.18-.55-.59-.55-1.17,2.15-.6,2.14-1.18-.29-.59-.29-1.17-1.05-.58-1.05-1.17-.23-.59-.23-1.17,1.64-.59,1.64-1.18-2.02-.58-2.02-1.17-.4-.59-.4-1.17,2.28-.6,2.28-1.18-.41-.59-.41-1.18-.81-.59-.81-1.17,1.04-.59,1.03-1.18-2.47-.58-2.47-1.17.54-.59.53-1.18-.08-.59-.08-1.18.41-.59.41-1.18-.14-.59-.14-1.18.82-.59.82-1.18.64-.59.64-1.18-.43-.59-.43-1.18-.78-.59-.78-1.18-.97-.59-.97-1.18.19-.59.19-1.18,1.25-.59,1.25-1.18-1.11-.59-1.12-1.17,2.18-.6,2.17-1.19-.2-.59-.2-1.18-.97-.59-.97-1.17-.27-.59-.27-1.18.89-.59.89-1.18.5-.59.49-1.18.2-.59.2-1.18-.84-.59-.85-1.17-1.85-.58-1.85-1.17,1.7-.6,1.7-1.18,1.13-.59,1.13-1.18-2.57-.58-2.58-1.17,1.84-.6,1.83-1.19,0-.59-.01-1.18-.64-.59-.64-1.18,1.27-.59,1.27-1.18-.58-.59-.58-1.18-1.18-.59-1.19-1.18.8-.59.8-1.18-.3-.59-.3-1.18-.63-.59-.63-1.18,1.11-.6,1.11-1.19-1.45-.59-1.45-1.18.88-.59.88-1.18,1.39-.6,1.39-1.19-1.36-.58-1.37-1.17-1.46-.58-1.46-1.17,2.91-.6,2.91-1.19-1.92-.58-1.92-1.17,1.94-.6,1.94-1.19-.53-.59-.53-1.18-.57-.59-.58-1.18-.75-.59-.75-1.18,1.8-.6,1.8-1.19-.6-.59-.6-1.18-2.12-.58-2.12-1.17,1.38-.6,1.38-1.19-.94-.59-.94-1.18-.64-.59-.65-1.18,1.36-.6,1.36-1.19,1.49-.6,1.49-1.19-.31-.59-.31-1.18-1.65-.58-1.65-1.17.88-.59.88-1.18-1.12-.59-1.12-1.18.94-.59.94-1.18,1.17-.59,1.16-1.18-2.1-.58-2.1-1.17.02-.59.02-1.18.55-.59.55-1.18.26-.59.26-1.18-.88-.59-.88-1.18.13-.59.12-1.18.76-.59.75-1.19,1.26-.6,1.25-1.19-2.76-.58-2.76-1.17,1.62-.6,1.62-1.19.09-.59.09-1.18-.73-.59-.74-1.18-.28-.59-.28-1.18.94-.59.93-1.19-1.22-.59-1.22-1.18-.46-.59-.46-1.18,2.3-.6,2.3-1.19-1.93-.58-1.94-1.17,1.61-.6,1.61-1.19-1.27-.59-1.27-1.18,2.21-.6,2.21-1.19-.83-.59-.83-1.18-.78-.59-.78-1.18-.82-.59-.83-1.18,1.96-.6,1.96-1.19-2.36-.58-2.36-1.17,1.58-.6,1.57-1.18-.37-.59-.37-1.18-.5-.59-.5-1.18.04-.59.04-1.18-.4-.59-.4-1.18,1.72-.6,1.72-1.19-.22-.59-.22-1.18-1.81-.58-1.82-1.18.77-.59.77-1.18-.46-.59-.47-1.18,1.38-.6,1.38-1.19-1.1-.59-1.1-1.18-.4-.59-.4-1.18.81-.6.81-1.19-.73-.59-.74-1.18.65-.59.65-1.19,1.86-.6,1.86-1.19-1.04-.59-1.05-1.18-.53-.59-.53-1.18,1.56-.6,1.56-1.19-.58-.59-.58-1.18-1.65-.59-1.65-1.18-.44-.59-.44-1.18.13-.59.13-1.19,2.55-.6,2.55-1.19-2.68-.58-2.68-1.18-.24-.59-.24-1.18,1.05-.6,1.05-1.19-.35-.59-.35-1.19,1.14-.6,1.14-1.19-1.29-.59-1.29-1.18-.56-.59-.56-1.19,2.16-.6,2.16-1.2-.62-.59-.62-1.19-.45-.59-.45-1.19,1.02-1.71.44-1.83-.54,1.13-.7,1.69-1.22.27-1.38.83,1.38,1,1.22,1.56-.28.53-.44,1.1-.87.37-1.02.93.68.8.52,1.37.85.85.69,1.42-1.31.24-1.47.81-.41.5-.57,1.06.9.86.74,1.43-1.27.25-1.43.82-1.15.29-1.31.86.16.66,0,1.22,1.57,1.05,1.41,1.62-1.94.07-2.1.63-.43.49-.59,1.06.37.72.21,1.29.65.8.49,1.36-.28.53-.44,1.1-1.44.21-1.6.77,1.94,1.16,1.78,1.72-1.96.06-2.12.63-.58.45-.74,1.01.6.78.44,1.35,1.85,1.13,1.69,1.7-1.22.27-1.38.83-.41.49-.57,1.06.69.81.53,1.37-1.21.27-1.37.84,1.41,1.01,1.25,1.57-.3.53-.46,1.09-.8.39-.96.95-.66.42-.82.99.08.63-.08,1.2.7.81.54,1.37-.54.46-.7,1.03-.71.41-.87.98-.05.6-.21,1.16-1.29.25-1.45.82,1.91,1.15,1.75,1.72-1.33.24-1.49.8-.69.42-.85.99.81.84.65,1.41.18.66.02,1.23-.28.54-.44,1.1-1.09.3-1.25.87.4.73.24,1.29-.94.35-1.1.91.49.75.33,1.32.22.68.06,1.24.05.62-.11,1.19-1.03.32-1.19.89-.63.44-.79,1,1.36,1,1.2,1.56-1.13.29-1.29.86-1.31.24-1.46.81.4.72.24,1.29,1.48,1.03,1.32,1.6-2.2,0-2.36.56,1.51,1.04,1.35,1.61-.09.59-.25,1.16-.88.37-1.04.93.52.76.36,1.33-1.64.15-1.8.72-.84.38-1,.94,1.3.98,1.14,1.55-.3.53-.46,1.1-.1.59-.26,1.15.52.76.36,1.33-.24.54-.4,1.11-1.37.23-1.53.79,1.64,1.08,1.48,1.64-.02.61-.18,1.18-2.26-.02-2.42.55.1.64-.06,1.21.02.62-.14,1.19.14.65-.02,1.22.23.68.07,1.25-1.7.13-1.86.7,1.55,1.05,1.39,1.62-1.49.19-1.65.76-.82.38-.98.95.59.78.43,1.35,1.29.98,1.13,1.55-1.59.17-1.75.73-.55.46-.71,1.03-.3.53-.46,1.1-.08.59-.24,1.16.33.71.17,1.27,1.46,1.02,1.3,1.59-1.78.11-1.94.68.95.88.79,1.45.74.82.58,1.39-2.13.01-2.29.58-.02.61-.18,1.18-.5.47-.66,1.04-.58.45-.74,1.01,1.27.97,1.11,1.53-1.71.13-1.87.7-.22.55-.38,1.12,1.97,1.17,1.81,1.74-1.43.21-1.59.78-.46.48-.62,1.05.2.67.04,1.24,1.38,1,1.22,1.57-.73.41-.89.98-.33.52-.49,1.09.65.8.49,1.36.12.65-.05,1.22-1.88.08-2.04.65,1.07.92.91,1.48-.15.57-.31,1.14-.96.34-1.12.91-.94.35-1.1.92,1.79,1.12,1.63,1.69-.24.55-.4,1.12-2.71-.15-2.87.42,2.11,1.21,1.94,1.78-1.47.2-1.63.77-.82.38-.98.95,1.48,1.03,1.32,1.6-1.27.26-1.43.83,1.57,1.06,1.41,1.63-.38.51-.54,1.08-.92.36-1.08.93-1.28.26-1.44.83-.72.41-.88.99,2.48,1.31,2.32,1.89-1.96.06-2.13.63,1.36,1,1.2,1.57-1.86-.63-2.3-.22c-.62.58-.22,1.39-.37,1.97Z"/>
      <path class="cls-2" d="M26.68,212.22c-.08.4.99,1.08.95,1.48s-.16.8-.16,1.19,1.03.68,1.08,1.08-1.79,1.14-1.7,1.53,1.16.55,1.29.92.89.45,1.07.81.72.39.94.73.46.48.72.79-.16,1.11.13,1.39-.04,1.32.28,1.56,1.26-.46,1.61-.26.15,1.61.53,1.76,1-.25,1.39-.15c.57.15.94-1.3,1.52-1.16s.4.84.98.98.33,1.13.9,1.28.54.28,1.11.43.49.47,1.06.62.87-1.01,1.44-.86.76-.59,1.34-.44.7-.36,1.28-.22.13,1.9.71,2.05.62-.01,1.19.13.76-.59,1.34-.45.24,1.48.81,1.63.66-.17,1.23-.03,1.03-1.64,1.61-1.5-.02,2.5.55,2.64.48.54,1.05.69,1.06-1.77,1.64-1.63.68-.26,1.26-.12.28,1.31.85,1.46.31,1.2.88,1.34,1.03-1.63,1.61-1.49.27,1.33.85,1.48,1.09-1.89,1.67-1.75.12,1.96.69,2.11.99-1.47,1.56-1.33.6.08,1.17.22.4.85.98.99.3,1.22.88,1.37.79-.69,1.37-.54.7-.32,1.28-.17,1.12,2.16,1.59,1.8-1.38-1.39-1.39-1.97,1.7-.59,1.7-1.18-.62-.59-.62-1.17-1.49-.58-1.49-1.17-.28-.59-.28-1.17.17-.59.17-1.18.68-.59.68-1.18,1.61-.59,1.61-1.18.27-.59.27-1.18-2.28-.58-2.28-1.17.6-.59.6-1.18-.55-.59-.55-1.17,2.15-.6,2.14-1.18-.29-.59-.29-1.17-1.05-.58-1.05-1.17-.23-.59-.23-1.17,1.64-.59,1.64-1.18-2.02-.58-2.02-1.17-.4-.59-.4-1.17,2.28-.6,2.28-1.18-.41-.59-.41-1.18-.81-.59-.81-1.17,1.04-.59,1.03-1.18-2.47-.58-2.47-1.17.54-.59.53-1.18-.08-.59-.08-1.18.41-.59.41-1.18-.14-.59-.14-1.18.82-.59.82-1.18.64-.59.64-1.18-.43-.59-.43-1.18-.78-.59-.78-1.18-.97-.59-.97-1.18.19-.59.19-1.18,1.25-.59,1.25-1.18-1.11-.59-1.12-1.17,2.18-.6,2.17-1.19-.2-.59-.2-1.18-.97-.59-.97-1.17-.27-.59-.27-1.18.89-.59.89-1.18.5-.59.49-1.18.2-.59.2-1.18-.84-.59-.85-1.17-1.85-.58-1.85-1.17,1.7-.6,1.7-1.18,1.13-.59,1.13-1.18-2.57-.58-2.58-1.17,1.84-.6,1.83-1.19,0-.59-.01-1.18-.64-.59-.64-1.18,1.27-.59,1.27-1.18-.58-.59-.58-1.18-1.18-.59-1.19-1.18.8-.59.8-1.18-.3-.59-.3-1.18-.63-.59-.63-1.18,1.11-.6,1.11-1.19-1.45-.59-1.45-1.18.88-.59.88-1.18,1.39-.6,1.39-1.19-1.36-.58-1.37-1.17-1.46-.58-1.46-1.17,2.91-.6,2.91-1.19-1.92-.58-1.92-1.17,1.94-.6,1.94-1.19-.53-.59-.53-1.18-.57-.59-.58-1.18-.75-.59-.75-1.18,1.8-.6,1.8-1.19-.6-.59-.6-1.18-2.12-.58-2.12-1.17,1.38-.6,1.38-1.19-.94-.59-.94-1.18-.64-.59-.65-1.18,1.36-.6,1.36-1.19,1.49-.6,1.49-1.19-.31-.59-.31-1.18-1.65-.58-1.65-1.17.88-.59.88-1.18-1.12-.59-1.12-1.18.94-.59.94-1.18,1.17-.59,1.16-1.18-2.1-.58-2.1-1.17.02-.59.02-1.18.55-.59.55-1.18.26-.59.26-1.18-.88-.59-.88-1.18.13-.59.12-1.18.76-.59.75-1.19,1.26-.6,1.25-1.19-2.76-.58-2.76-1.17,1.62-.6,1.62-1.19.09-.59.09-1.18-.73-.59-.74-1.18-.28-.59-.28-1.18.94-.59.93-1.19-1.22-.59-1.22-1.18-.46-.59-.46-1.18,2.3-.6,2.3-1.19-1.93-.58-1.94-1.17,1.61-.6,1.61-1.19-1.27-.59-1.27-1.18,2.21-.6,2.21-1.19-.83-.59-.83-1.18-.78-.59-.78-1.18-.82-.59-.83-1.18,1.96-.6,1.96-1.19-2.36-.58-2.36-1.17,1.58-.6,1.57-1.18-.37-.59-.37-1.18-.5-.59-.5-1.18.04-.59.04-1.18-.4-.59-.4-1.18,1.72-.6,1.72-1.19-.22-.59-.22-1.18-1.81-.58-1.82-1.18.77-.59.77-1.18-.46-.59-.47-1.18,1.38-.6,1.38-1.19-1.1-.59-1.1-1.18-.4-.59-.4-1.18.81-.6.81-1.19-.73-.59-.74-1.18.65-.59.65-1.19,1.86-.6,1.86-1.19-1.04-.59-1.05-1.18-.53-.59-.53-1.18,1.56-.6,1.56-1.19-.58-.59-.58-1.18-1.65-.59-1.65-1.18-.44-.59-.44-1.18.13-.59.13-1.19,2.55-.6,2.55-1.19-2.68-.58-2.68-1.18-.24-.59-.24-1.18,1.05-.6,1.05-1.19-.35-.59-.35-1.19,1.14-.6,1.14-1.19-1.29-.59-1.29-1.18-.56-.59-.56-1.19,2.16-.6,2.16-1.2-.62-.59-.62-1.19-.45-.59-.45-1.19,1.02-1.71.44-1.83-.54,1.13-.7,1.69-1.22.27-1.38.83,1.38,1,1.22,1.56-.28.53-.44,1.1-.87.37-1.02.93.68.8.52,1.37.85.85.69,1.42-1.31.24-1.47.81-.41.5-.57,1.06.9.86.74,1.43-1.27.25-1.43.82-1.15.29-1.31.86.16.66,0,1.22,1.57,1.05,1.41,1.62-1.94.07-2.1.63-.43.49-.59,1.06.37.72.21,1.29.65.8.49,1.36-.28.53-.44,1.1-1.44.21-1.6.77,1.94,1.16,1.78,1.72-1.96.06-2.12.63-.58.45-.74,1.01.6.78.44,1.35,1.85,1.13,1.69,1.7-1.22.27-1.38.83-.41.49-.57,1.06.69.81.53,1.37-1.21.27-1.37.84,1.41,1.01,1.25,1.57-.3.53-.46,1.09-.8.39-.96.95-.66.42-.82.99.08.63-.08,1.2.7.81.54,1.37-.54.46-.7,1.03-.71.41-.87.98-.05.6-.21,1.16-1.29.25-1.45.82,1.91,1.15,1.75,1.72-1.33.24-1.49.8-.69.42-.85.99.81.84.65,1.41.18.66.02,1.23-.28.54-.44,1.1-1.09.3-1.25.87.4.73.24,1.29-.94.35-1.1.91.49.75.33,1.32.22.68.06,1.24.05.62-.11,1.19-1.03.32-1.19.89-.63.44-.79,1,1.36,1,1.2,1.56-1.13.29-1.29.86-1.31.24-1.46.81.4.72.24,1.29,1.48,1.03,1.32,1.6-2.2,0-2.36.56,1.51,1.04,1.35,1.61-.09.59-.25,1.16-.88.37-1.04.93.52.76.36,1.33-1.64.15-1.8.72-.84.38-1,.94,1.3.98,1.14,1.55-.3.53-.46,1.1-.1.59-.26,1.15.52.76.36,1.33-.24.54-.4,1.11-1.37.23-1.53.79,1.64,1.08,1.48,1.64-.02.61-.18,1.18-2.26-.02-2.42.55.1.64-.06,1.21.02.62-.14,1.19.14.65-.02,1.22.23.68.07,1.25-1.7.13-1.86.7,1.55,1.05,1.39,1.62-1.49.19-1.65.76-.82.38-.98.95.59.78.43,1.35,1.29.98,1.13,1.55-1.59.17-1.75.73-.55.46-.71,1.03-.3.53-.46,1.1-.08.59-.24,1.16.33.71.17,1.27,1.46,1.02,1.3,1.59-1.78.11-1.94.68.95.88.79,1.45.74.82.58,1.39-2.13.01-2.29.58-.02.61-.18,1.18-.5.47-.66,1.04-.58.45-.74,1.01,1.27.97,1.11,1.53-1.71.13-1.87.7-.22.55-.38,1.12,1.97,1.17,1.81,1.74-1.43.21-1.59.78-.46.48-.62,1.05.2.67.04,1.24,1.38,1,1.22,1.57-.73.41-.89.98-.33.52-.49,1.09.65.8.49,1.36.12.65-.05,1.22-1.88.08-2.04.65,1.07.92.91,1.48-.15.57-.31,1.14-.96.34-1.12.91-.94.35-1.1.92,1.79,1.12,1.63,1.69-.24.55-.4,1.12-2.71-.15-2.87.42,2.11,1.21,1.94,1.78-1.47.2-1.63.77-.82.38-.98.95,1.48,1.03,1.32,1.6-1.27.26-1.43.83,1.57,1.06,1.41,1.63-.38.51-.54,1.08-.92.36-1.08.93-1.28.26-1.44.83-.72.41-.88.99,2.48,1.31,2.32,1.89-1.96.06-2.13.63,1.36,1,1.2,1.57-1.86-.63-2.3-.22c-.62.58-.22,1.39-.37,1.97Z"/>
    </g>
    <g>
      <path class="cls-1" d="M246.71,212.64c-.15-.57-.94-.34-1.1-.9s1.2-.95,1.04-1.51-1.5-.19-1.66-.75.47-.74.31-1.31-.24-.54-.4-1.11,1.46-1.02,1.3-1.59-.81-.38-.97-.95.44-.73.28-1.3-1.71-.13-1.87-.69.19-.67.04-1.23,1.11-.92.95-1.49-1.85-.09-2.01-.66-.38-.5-.54-1.07,1.66-1.08,1.5-1.65-.8-.39-.96-.95-.69-.42-.85-.98,1.07-.91.91-1.48-.53-.46-.69-1.03-1.22-.27-1.38-.84.01-.62-.15-1.18-.85-.37-1.01-.94,1.9-1.15,1.74-1.71-2.19,0-2.35-.56,2.05-1.19,1.89-1.76-.48-.48-.64-1.04-.34-.52-.5-1.08-.2-.56-.36-1.12.36-.71.2-1.28-2.65.13-2.81-.43.61-.78.45-1.35,1.71-1.09,1.55-1.66-2.04-.04-2.2-.6-.95-.34-1.11-.91,1.88-1.14,1.72-1.71-1.23-.27-1.39-.83-.37-.51-.53-1.07.68-.8.52-1.37.86-.85.7-1.42-.31-.52-.47-1.09-.93-.35-1.09-.92-.2-.56-.36-1.12-.92-.35-1.08-.92,1.75-1.1,1.59-1.67-2.46.08-2.62-.49-.59-.45-.75-1.02,2.44-1.3,2.28-1.87-2.84.19-3-.38,2.28-1.25,2.12-1.82-.23-.55-.39-1.11-2.25.02-2.41-.54.81-.84.65-1.41-.69-.42-.85-.98.39-.72.23-1.29,1.25-.96,1.09-1.53-2.77.17-2.93-.4,2.08-1.2,1.93-1.77-.64-.43-.8-1,.66-.8.5-1.36-.76-.4-.92-.97.16-.66,0-1.23-2.35.05-2.51-.52,1.54-1.05,1.38-1.62.58-.78.42-1.34-1.13-.3-1.29-.86-1.28-.25-1.44-.82-.33-.52-.49-1.09.49-.75.33-1.32.16-.66,0-1.23-.67-.42-.83-.99.82-.84.66-1.41-1.9-.08-2.06-.64.07-.63-.09-1.2,2.32-1.27,2.16-1.83-1.11-.3-1.27-.87-1.25-.26-1.41-.83.31-.7.15-1.27,1.2-.95,1.04-1.52-.67-.42-.83-.99-.35-.51-.51-1.08-.37-.51-.53-1.08-1.08-.31-1.24-.88,1.7-1.09,1.54-1.66-.34-.52-.5-1.09.05-.63-.11-1.2-.83-.38-.99-.95-.7-.42-.86-.99.69-.81.53-1.38-.65-.43-.81-1,.83-.85.67-1.41-.72-.41-.88-.98-.7-.42-.86-.98-.88-.37-1.04-.93.33-.71.17-1.28-.01-.61-.17-1.18-.5-.47-.66-1.04-.12-.58-.28-1.15.78-.83.62-1.4-1.92-.07-2.08-.64,2.08-1.2,1.92-1.76-2.05-.04-2.2-.6.81-.84.65-1.41-.13-.58-.29-1.15-1.54-.18-1.7-.75,1.91-1.15,1.75-1.72-.39-.5-.55-1.07-.38-.51-.54-1.08-.35-.52-.51-1.08-.45-.49-.61-1.05-.29-.53-.45-1.1.3-.7.14-1.27-1.84-.1-2-.67,0-.62-.15-1.18.69-.81.53-1.38-.85-.37-1.01-.94.42-.73.26-1.3,1.17-.95,1.01-1.51.04-.63-.12-1.2-.93-.35-1.09-.92-1.3-.25-1.46-.82,1.12-.93.96-1.5.07-.63-.09-1.2.06-.63-.1-1.2-.24-.55-.4-1.12-.85-.38-1.01-.95-.41-.5-.57-1.07-.2-.56-.36-1.13-.45-.49-.61-1.06,1.15-.94.99-1.51-1.79-.11-1.95-.68.99-.9.83-1.47-2.04-.05-2.2-.62,1.62-1.19,1.03-1.14-.35.2-.35.79.08.59.08,1.18-1.07.58-1.07,1.17,2.32.6,2.32,1.18-1.96.58-1.96,1.17,1.11.59,1.11,1.18.51.59.51,1.18-.41.59-.41,1.17-.34.59-.34,1.17.58.59.58,1.18-.65.58-.65,1.17-1.06.58-1.06,1.17,2.39.6,2.39,1.18-1.59.58-1.6,1.17,1.45.59,1.45,1.18-2.23.58-2.23,1.17,2.07.6,2.06,1.18-1.27.58-1.27,1.17-1.11.58-1.12,1.17,2.17.6,2.17,1.18-.99.58-.99,1.17.67.59.67,1.18.55.59.55,1.18.18.59.18,1.18-.27.59-.27,1.18.46.59.46,1.18-.91.59-.91,1.18-.49.59-.5,1.18-.42.59-.42,1.18,1.68.6,1.67,1.19-1.96.58-1.97,1.17.36.59.36,1.18,1.42.6,1.42,1.19.11.59.11,1.18-1.64.58-1.64,1.17-.96.59-.96,1.18,2.55.6,2.54,1.19-.09.59-.09,1.18-.49.59-.49,1.18.82.59.81,1.18-1.09.58-1.09,1.17.67.59.67,1.18-1.9.58-1.9,1.17-.17.59-.17,1.18,1.79.6,1.79,1.18.03.59.03,1.18.33.59.33,1.18-2.4.58-2.4,1.17,2.04.6,2.04,1.19-.53.59-.54,1.18,1.33.59,1.33,1.18-.28.59-.28,1.18-.02.59-.02,1.18-2.17.58-2.17,1.17,1.47.6,1.47,1.19-.58.59-.58,1.18.21.59.21,1.18-.64.59-.64,1.18.85.59.85,1.18-1.35.59-1.36,1.18,2.26.6,2.26,1.19-.32.59-.32,1.18-.03.59-.03,1.18.17.59.17,1.18-2.6.58-2.6,1.17.48.59.47,1.18,1.88.6,1.88,1.19.49.59.49,1.18-.42.59-.42,1.18-1.52.58-1.52,1.17,1.76.6,1.76,1.19-1.96.58-1.96,1.17.71.59.71,1.18-.64.59-.64,1.18,1.18.6,1.18,1.19-1.6.59-1.6,1.18,1.42.6,1.42,1.19-.87.59-.88,1.18.1.59.1,1.18,1.09.59,1.08,1.18-1.67.58-1.67,1.17,1.73.6,1.73,1.19.74.59.74,1.18-2.4.58-2.4,1.17,1.07.59,1.07,1.19.44.59.44,1.18.46.59.46,1.18-1.69.59-1.69,1.18,2.08.6,2.08,1.19-2.36.58-2.36,1.17,1.84.6,1.84,1.19-2.23.58-2.24,1.17,2.39.6,2.39,1.19-.35.59-.35,1.18-1.11.59-1.11,1.18,1.23.6,1.22,1.19-1.56.59-1.56,1.18,1.22.6,1.22,1.19.77.59.77,1.19-2.21.58-2.21,1.17.1.59.1,1.18,1.33.6,1.33,1.19.93.59.93,1.19-.04.59-.04,1.18.04.59.04,1.18-1.14.59-1.15,1.18.93.59.93,1.19-.84.59-.85,1.18.51.59.5,1.18-2.16.58-2.16,1.17,0,.59,0,1.18,1.81.6,1.81,1.19-.31.59-.31,1.18.88.59.88,1.18-.53.59-.53,1.18-1.25.59-1.25,1.18,1.79.6,1.79,1.19-.69.59-.69,1.18-.74.59-.74,1.18-.66.59-.66,1.18.89.59.89,1.19-1.19.59-1.19,1.18,2.45.6,2.44,1.19-1.8.59-1.8,1.18-.23.59-.23,1.18,2.06.6,2.05,1.19-.92.59-.92,1.18-.07.59-.07,1.19-1.16.59-1.16,1.18,2.02.6,2.02,1.19-.54.59-.55,1.18-.33.59-.33,1.18,1.18.6,1.18,1.19-2.43.58-2.43,1.17.83.6.83,1.19-.11.59-.11,1.18-1.01.59-1.01,1.18.98.6.97,1.19-.23.59-.23,1.19.25.59.25,1.19-.59.59-.59,1.19.95.6.95,1.19.33.6.33,1.19-.99.59-.99,1.19.34.44.81.81-.07-1.11.5-1.25,1.07,1.79,1.64,1.65.64.13,1.22-.02.63.06,1.2-.09.61-.02,1.18-.16.39-.87.96-1.01.17-1.76.74-1.9.75.55,1.33.4.58-.15,1.15-.29,1.02,1.62,1.6,1.47.35-1.02.93-1.17.25-1.44.82-1.58,1.07,1.81,1.65,1.66.59-.08,1.17-.23.25-1.44.82-1.59.56-.2,1.14-.35.78.66,1.36.52.46-.61,1.03-.76.69.33,1.27.18.32-1.15.89-1.3.59-.11,1.16-.25.48-.52,1.06-.67.63.06,1.2-.08.39-.9.96-1.05,1.03,1.62,1.6,1.48.26-1.41.84-1.55.71.38,1.29.23.67.21,1.25.07.36-.99.94-1.14.68.26,1.26.11.45-.66,1.03-.81c.39-.1,1.32,1.44,1.69,1.29s-.32-2.46.03-2.66,1.76,1.36,2.08,1.13.91-.3,1.2-.58.78-.54,1.03-.85-.42-1.37-.2-1.71.51-.63.68-.99-.61-1.07-.48-1.45,2.11-.2,2.2-.59-.78-1.01-.74-1.41-.59-.8-.59-1.2-.46-.68-.51-1.08.48-.76.39-1.16Z"/>
      <path class="cls-2" d="M246.71,212.64c-.15-.57-.94-.34-1.1-.9s1.2-.95,1.04-1.51-1.5-.19-1.66-.75.47-.74.31-1.31-.24-.54-.4-1.11,1.46-1.02,1.3-1.59-.81-.38-.97-.95.44-.73.28-1.3-1.71-.13-1.87-.69.19-.67.04-1.23,1.11-.92.95-1.49-1.85-.09-2.01-.66-.38-.5-.54-1.07,1.66-1.08,1.5-1.65-.8-.39-.96-.95-.69-.42-.85-.98,1.07-.91.91-1.48-.53-.46-.69-1.03-1.22-.27-1.38-.84.01-.62-.15-1.18-.85-.37-1.01-.94,1.9-1.15,1.74-1.71-2.19,0-2.35-.56,2.05-1.19,1.89-1.76-.48-.48-.64-1.04-.34-.52-.5-1.08-.2-.56-.36-1.12.36-.71.2-1.28-2.65.13-2.81-.43.61-.78.45-1.35,1.71-1.09,1.55-1.66-2.04-.04-2.2-.6-.95-.34-1.11-.91,1.88-1.14,1.72-1.71-1.23-.27-1.39-.83-.37-.51-.53-1.07.68-.8.52-1.37.86-.85.7-1.42-.31-.52-.47-1.09-.93-.35-1.09-.92-.2-.56-.36-1.12-.92-.35-1.08-.92,1.75-1.1,1.59-1.67-2.46.08-2.62-.49-.59-.45-.75-1.02,2.44-1.3,2.28-1.87-2.84.19-3-.38,2.28-1.25,2.12-1.82-.23-.55-.39-1.11-2.25.02-2.41-.54.81-.84.65-1.41-.69-.42-.85-.98.39-.72.23-1.29,1.25-.96,1.09-1.53-2.77.17-2.93-.4,2.08-1.2,1.93-1.77-.64-.43-.8-1,.66-.8.5-1.36-.76-.4-.92-.97.16-.66,0-1.23-2.35.05-2.51-.52,1.54-1.05,1.38-1.62.58-.78.42-1.34-1.13-.3-1.29-.86-1.28-.25-1.44-.82-.33-.52-.49-1.09.49-.75.33-1.32.16-.66,0-1.23-.67-.42-.83-.99.82-.84.66-1.41-1.9-.08-2.06-.64.07-.63-.09-1.2,2.32-1.27,2.16-1.83-1.11-.3-1.27-.87-1.25-.26-1.41-.83.31-.7.15-1.27,1.2-.95,1.04-1.52-.67-.42-.83-.99-.35-.51-.51-1.08-.37-.51-.53-1.08-1.08-.31-1.24-.88,1.7-1.09,1.54-1.66-.34-.52-.5-1.09.05-.63-.11-1.2-.83-.38-.99-.95-.7-.42-.86-.99.69-.81.53-1.38-.65-.43-.81-1,.83-.85.67-1.41-.72-.41-.88-.98-.7-.42-.86-.98-.88-.37-1.04-.93.33-.71.17-1.28-.01-.61-.17-1.18-.5-.47-.66-1.04-.12-.58-.28-1.15.78-.83.62-1.4-1.92-.07-2.08-.64,2.08-1.2,1.92-1.76-2.05-.04-2.2-.6.81-.84.65-1.41-.13-.58-.29-1.15-1.54-.18-1.7-.75,1.91-1.15,1.75-1.72-.39-.5-.55-1.07-.38-.51-.54-1.08-.35-.52-.51-1.08-.45-.49-.61-1.05-.29-.53-.45-1.1.3-.7.14-1.27-1.84-.1-2-.67,0-.62-.15-1.18.69-.81.53-1.38-.85-.37-1.01-.94.42-.73.26-1.3,1.17-.95,1.01-1.51.04-.63-.12-1.2-.93-.35-1.09-.92-1.3-.25-1.46-.82,1.12-.93.96-1.5.07-.63-.09-1.2.06-.63-.1-1.2-.24-.55-.4-1.12-.85-.38-1.01-.95-.41-.5-.57-1.07-.2-.56-.36-1.13-.45-.49-.61-1.06,1.15-.94.99-1.51-1.79-.11-1.95-.68.99-.9.83-1.47-2.04-.05-2.2-.62,1.62-1.19,1.03-1.14-.35.2-.35.79.08.59.08,1.18-1.07.58-1.07,1.17,2.32.6,2.32,1.18-1.96.58-1.96,1.17,1.11.59,1.11,1.18.51.59.51,1.18-.41.59-.41,1.17-.34.59-.34,1.17.58.59.58,1.18-.65.58-.65,1.17-1.06.58-1.06,1.17,2.39.6,2.39,1.18-1.59.58-1.6,1.17,1.45.59,1.45,1.18-2.23.58-2.23,1.17,2.07.6,2.06,1.18-1.27.58-1.27,1.17-1.11.58-1.12,1.17,2.17.6,2.17,1.18-.99.58-.99,1.17.67.59.67,1.18.55.59.55,1.18.18.59.18,1.18-.27.59-.27,1.18.46.59.46,1.18-.91.59-.91,1.18-.49.59-.5,1.18-.42.59-.42,1.18,1.68.6,1.67,1.19-1.96.58-1.97,1.17.36.59.36,1.18,1.42.6,1.42,1.19.11.59.11,1.18-1.64.58-1.64,1.17-.96.59-.96,1.18,2.55.6,2.54,1.19-.09.59-.09,1.18-.49.59-.49,1.18.82.59.81,1.18-1.09.58-1.09,1.17.67.59.67,1.18-1.9.58-1.9,1.17-.17.59-.17,1.18,1.79.6,1.79,1.18.03.59.03,1.18.33.59.33,1.18-2.4.58-2.4,1.17,2.04.6,2.04,1.19-.53.59-.54,1.18,1.33.59,1.33,1.18-.28.59-.28,1.18-.02.59-.02,1.18-2.17.58-2.17,1.17,1.47.6,1.47,1.19-.58.59-.58,1.18.21.59.21,1.18-.64.59-.64,1.18.85.59.85,1.18-1.35.59-1.36,1.18,2.26.6,2.26,1.19-.32.59-.32,1.18-.03.59-.03,1.18.17.59.17,1.18-2.6.58-2.6,1.17.48.59.47,1.18,1.88.6,1.88,1.19.49.59.49,1.18-.42.59-.42,1.18-1.52.58-1.52,1.17,1.76.6,1.76,1.19-1.96.58-1.96,1.17.71.59.71,1.18-.64.59-.64,1.18,1.18.6,1.18,1.19-1.6.59-1.6,1.18,1.42.6,1.42,1.19-.87.59-.88,1.18.1.59.1,1.18,1.09.59,1.08,1.18-1.67.58-1.67,1.17,1.73.6,1.73,1.19.74.59.74,1.18-2.4.58-2.4,1.17,1.07.59,1.07,1.19.44.59.44,1.18.46.59.46,1.18-1.69.59-1.69,1.18,2.08.6,2.08,1.19-2.36.58-2.36,1.17,1.84.6,1.84,1.19-2.23.58-2.24,1.17,2.39.6,2.39,1.19-.35.59-.35,1.18-1.11.59-1.11,1.18,1.23.6,1.22,1.19-1.56.59-1.56,1.18,1.22.6,1.22,1.19.77.59.77,1.19-2.21.58-2.21,1.17.1.59.1,1.18,1.33.6,1.33,1.19.93.59.93,1.19-.04.59-.04,1.18.04.59.04,1.18-1.14.59-1.15,1.18.93.59.93,1.19-.84.59-.85,1.18.51.59.5,1.18-2.16.58-2.16,1.17,0,.59,0,1.18,1.81.6,1.81,1.19-.31.59-.31,1.18.88.59.88,1.18-.53.59-.53,1.18-1.25.59-1.25,1.18,1.79.6,1.79,1.19-.69.59-.69,1.18-.74.59-.74,1.18-.66.59-.66,1.18.89.59.89,1.19-1.19.59-1.19,1.18,2.45.6,2.44,1.19-1.8.59-1.8,1.18-.23.59-.23,1.18,2.06.6,2.05,1.19-.92.59-.92,1.18-.07.59-.07,1.19-1.16.59-1.16,1.18,2.02.6,2.02,1.19-.54.59-.55,1.18-.33.59-.33,1.18,1.18.6,1.18,1.19-2.43.58-2.43,1.17.83.6.83,1.19-.11.59-.11,1.18-1.01.59-1.01,1.18.98.6.97,1.19-.23.59-.23,1.19.25.59.25,1.19-.59.59-.59,1.19.95.6.95,1.19.33.6.33,1.19-.99.59-.99,1.19.34.44.81.81-.07-1.11.5-1.25,1.07,1.79,1.64,1.65.64.13,1.22-.02.63.06,1.2-.09.61-.02,1.18-.16.39-.87.96-1.01.17-1.76.74-1.9.75.55,1.33.4.58-.15,1.15-.29,1.02,1.62,1.6,1.47.35-1.02.93-1.17.25-1.44.82-1.58,1.07,1.81,1.65,1.66.59-.08,1.17-.23.25-1.44.82-1.59.56-.2,1.14-.35.78.66,1.36.52.46-.61,1.03-.76.69.33,1.27.18.32-1.15.89-1.3.59-.11,1.16-.25.48-.52,1.06-.67.63.06,1.2-.08.39-.9.96-1.05,1.03,1.62,1.6,1.48.26-1.41.84-1.55.71.38,1.29.23.67.21,1.25.07.36-.99.94-1.14.68.26,1.26.11.45-.66,1.03-.81c.39-.1,1.32,1.44,1.69,1.29s-.32-2.46.03-2.66,1.76,1.36,2.08,1.13.91-.3,1.2-.58.78-.54,1.03-.85-.42-1.37-.2-1.71.51-.63.68-.99-.61-1.07-.48-1.45,2.11-.2,2.2-.59-.78-1.01-.74-1.41-.59-.8-.59-1.2-.46-.68-.51-1.08.48-.76.39-1.16Z"/>
    </g>
  </g>
  <g>
    <path class="cls-1" d="M199.1,51.41c-.59,0-.59-.7-1.18-.7s-.59-1.78-1.18-1.78-.59-.49-1.18-.49-.59,1.85-1.18,1.85-.59-1.63-1.18-1.63-.59,2.29-1.18,2.29-.59-1.55-1.18-1.55-.59.41-1.18.41-.59.7-1.18.7-.59-.04-1.18-.04-.59-.89-1.18-.89-.59-.7-1.18-.7-.59,1.46-1.18,1.46-.59.85-1.18.85-.59-1.95-1.18-1.95-.59.09-1.19.09-.59.15-1.18.15-.59.3-1.18.3-.59,1.12-1.18,1.12-.59.4-1.18.4-.59-.22-1.18-.22-.59.26-1.18.26-.59-1.74-1.18-1.74-.59.57-1.18.57-.59-.91-1.18-.91-.59.42-1.18.42-.59-.73-1.18-.73-.59,1.32-1.18,1.32-.59-1.63-1.18-1.63-.59-.17-1.18-.17-.59,1.39-1.18,1.39-.59-.29-1.18-.29-.59.7-1.18.7-.59.86-1.19.86-.59-.76-1.19-.76-.59-.7-1.18-.7-.59-1.08-1.18-1.08-.59,1.92-1.18,1.92-.59.67-1.18.67-.59-.14-1.18-.14-.59-.67-1.18-.67-.59.9-1.18.9-.59-2.72-1.18-2.72-.59.6-1.18.6-.59.42-1.18.42-.59,1.48-1.19,1.48-.59.13-1.19.13-.59.1-1.19.1-.59-1.55-1.19-1.55-.59-.53-1.18-.53-.59-.71-1.18-.71-.59.06-1.18.06-.59,1.43-1.18,1.43-.59,1.26-1.18,1.26-.59-.1-1.18-.1-.59-.98-1.19-.98-.59.13-1.19.13-.59.53-1.19.53-.59-.67-1.19-.67-.59,1.11-1.18,1.11-.59-2.24-1.18-2.24-.59,1.4-1.18,1.4-.59-1.95-1.19-1.95-.59,2.02-1.19,2.02-.59-1.04-1.19-1.04-.59,1.96-1.18,1.96-.59-1.19-1.18-1.19-.59-1.73-1.18-1.73-.59,2.65-1.18,2.65-.59-.39-1.18-.39-.59-.1-1.18-.1-.59,0-1.18,0-.59-1.49-1.18-1.49-.59.96-1.19.96-.59-.06-1.19-.06-.59.18-1.19.18-.59-.5-1.18-.5-.59-1.2-1.18-1.2-.59,1.89-1.18,1.89-.59.69-1.19.69-.59-.7-1.19-.7-.59.93-1.19.93-.59-2.06-1.19-2.06-.59.09-1.19.09-.59,1.06-1.19,1.06-.59-1.79-1.19-1.79-.59.86-1.19.86-.59,1.4-1.19,1.4-.59.24-1.19.24-.59-1.15-1.19-1.15-.59-1.51-1.19-1.51-.59,1.92-1.19,1.92-.59-.87-1.18-.87-.59,1.05-1.19,1.05-.59-1.1-1.19-1.1-.59-.72-1.19-.72-.6,1.59-1.19,1.59-.59-1.79-1.19-1.79-.6.91-1.19.91-.6-.26-1.19-.26-.59-.21-1.19-.21-.6-.33-1.19-.33-.6.67-1.2.67-.6.06-1.2.06c-.41,0-.84.45-1.23.52s-1.05-.4-1.43-.26-.5.99-.84,1.2-.14,1.06-.44,1.33-.44.52-.69.84-2.02-.33-2.22.03-.18.97-.31,1.36,1.1,1.13,1.03,1.54-.6.7-.61,1.11c0,.59.4.59.39,1.18s-.43.58-.44,1.17-.98.57-.99,1.16,2.15.62,2.14,1.21-2.52.54-2.53,1.13,2.46.63,2.45,1.21-1.51.56-1.52,1.15-.14.58-.15,1.17-.36.58-.37,1.17,2.14.62,2.12,1.21-1.94.55-1.95,1.14-.88.57-.89,1.16.21.59.2,1.18.67.6.66,1.18.56.6.55,1.18.7.6.69,1.18-.61.58-.62,1.16-1.13.57-1.14,1.15-.21.58-.22,1.17,1.13.61,1.12,1.19-1.45.56-1.46,1.15,1.11.61,1.1,1.19.41.59.4,1.18.78.6.77,1.19-.59.58-.6,1.16-1.25.57-1.26,1.15.32.59.31,1.18.08.59.07,1.18.01.59,0,1.18.78.6.77,1.19-.18.59-.2,1.17-1.53.56-1.55,1.15.78.6.77,1.19.34.59.33,1.18-.49.58-.5,1.17,1.86.62,1.85,1.21-2.39.55-2.4,1.13-.31.58-.32,1.17.23.59.22,1.18,2.11.62,2.1,1.21-.67.58-.68,1.16.33.59.32,1.18-.02.59-.03,1.17.07.59.06,1.18-1.56.56-1.57,1.15-.26.58-.27,1.17,1.09.61,1.08,1.19.06.59.05,1.18,1.46.61,1.45,1.2-2.37.55-2.38,1.13,1.66.62,1.65,1.2-.85.57-.86,1.16-.17.58-.18,1.17-.98.57-.99,1.16,2.55.63,2.54,1.22-1.93.55-1.94,1.14-.4.58-.41,1.17,1.98.62,1.97,1.21-2.23.55-2.24,1.14.17.59.16,1.18,0,.59,0,1.18-.35.58-.36,1.17.76.6.75,1.19,1.29.61,1.28,1.2.05.59.04,1.18-1.01.57-1.02,1.16-.66.58-.67,1.16-.04.59-.05,1.18,1.22.61,1.21,1.2-.88.57-.89,1.16-.34.58-.35,1.17.69.6.68,1.19,1.42.61,1.41,1.2-2.29.55-2.3,1.14,1.24.61,1.23,1.2.87.6.86,1.19-.62.58-.63,1.17-1.9.56-1.91,1.15.18.59.17,1.18.02.59.01,1.18,1.46.61,1.45,1.2-1.24.57-1.25,1.16.69.6.68,1.19.92.6.91,1.19-.8.57-.81,1.16.77.6.76,1.19.07.59.06,1.18-.72.58-.73,1.17-.5.58-.51,1.17-.15.59-.16,1.18-.74.58-.75,1.17.57.6.55,1.19.84.6.83,1.19-1.34.57-1.36,1.15,1.12.61,1.11,1.2.65.6.64,1.19.33.6.32,1.18-.1.59-.11,1.18.42.6.41,1.19-1.17.57-1.18,1.16.06.59.05,1.18.95.61.94,1.2-.05.59-.06,1.18-2.06.55-2.07,1.14,1.57.62,1.56,1.21-1.42.56-1.43,1.15-.47.58-.48,1.17.07.59.06,1.18,1.82.62,1.81,1.21.36.59.35,1.18-1.71.56-1.72,1.15.59.6.58,1.19.58.6.57,1.19.45.6.44,1.18-.66.58-.67,1.16-1.86.56-1.87,1.15,2.48.63,2.47,1.22.39.6.38,1.19-.29.58-.3,1.17-.93.57-.94,1.16-.16.59-.17,1.18-.55.58-.56,1.17.05.59.03,1.18,1.12.61,1.11,1.2.37.6.36,1.19-.78.58-.79,1.17-1.11.57-1.12,1.16.84.6.83,1.19-1.14.57-1.15,1.16,1.07.61,1.06,1.2-.21.59-.22,1.18.48.6.47,1.19-.98.57-.99,1.17,2.02.63,2.01,1.22-.59.58-.6,1.17-1.16.57-1.17,1.16-.45.58-.46,1.18.85.61.84,1.2-.35.58-.36,1.17-1.16.57-1.17,1.16,2.69.64,2.68,1.23-1.25.57-1.26,1.16,0,.59,0,1.19,1.39.62,1.38,1.21-1.89.56-1.9,1.15.51.6.5,1.2,1.2.61,1.19,1.21c0,.38.15.54.19.91s-1.24.91-1.14,1.26.71.48.87.82.58.4.78.72-1.35,2.02-1.1,2.29,2.22-1.23,2.51-1-.28,1.63.05,1.81.55.83.9.96,1.07-1.04,1.45-.97.65-.51,1.03-.51c.59,0,.59.58,1.17.58s.59.77,1.17.77.59.18,1.17.18.59-.02,1.17-.02.59-.14,1.17-.14.59-1.6,1.17-1.6.59,2.44,1.17,2.44.59-1.11,1.17-1.11.59,1.2,1.17,1.2.59-.46,1.17-.46.59-1.97,1.17-1.97.59.72,1.17.72.59.95,1.17.95.59-1.56,1.17-1.56.59,2.02,1.17,2.02.59-.03,1.17-.03.59-.16,1.17-.16.59-2.03,1.17-2.03.59,1.32,1.17,1.32.59-.51,1.17-.51.59.6,1.18.6.59.98,1.18.98.59-.85,1.18-.85.59-1.69,1.17-1.69.59,2.55,1.17,2.55.59-1.93,1.17-1.93.59,1.87,1.17,1.87.59-1.29,1.17-1.29.59-.39,1.17-.39.59,1.87,1.17,1.87.59-.25,1.17-.25.59-1.59,1.17-1.59.59.1,1.17.1.59.62,1.17.62.59-1.12,1.17-1.12.59-.29,1.17-.29.59,2.65,1.17,2.65.59-2.12,1.17-2.12.59-.3,1.18-.3.59,1.54,1.18,1.54.59.66,1.18.66.59-.62,1.18-.62.59.46,1.17.46.59.25,1.17.25.59-2.34,1.17-2.34.59-.31,1.17-.31.59,2.1,1.17,2.1.59-1.99,1.17-1.99.59.95,1.17.95.59.82,1.17.82.59-.3,1.18-.3.59-.31,1.18-.31.59-.16,1.18-.16.59,1.39,1.18,1.39.59.14,1.18.14.59.11,1.18.11.59-2.05,1.17-2.05.59.4,1.17.4.59.18,1.17.18.59-.43,1.18-.43.59.96,1.18.96.59-.54,1.18-.54.59.34,1.18.34.59-1.58,1.18-1.58.59,2.02,1.18,2.02.59-.75,1.18-.75.59,1.06,1.18,1.06.59-.28,1.18-.28.59-1.59,1.18-1.59.59,1.23,1.18,1.23.59-.62,1.18-.62.59.67,1.17.67.59.63,1.17.63.59-1.6,1.17-1.6.59,1.61,1.17,1.61.59-1.12,1.17-1.12.59,1.5,1.17,1.5.59-1.08,1.17-1.08.59-1.64,1.17-1.64.59.14,1.18.14.59,1.46,1.18,1.46.59.59,1.18.59.59-1.77,1.18-1.77.59-.19,1.17-.19.59.49,1.17.49.59,2.05,1.18,2.05.59-2.36,1.18-2.36.59-.52,1.18-.52.59,2.15,1.18,2.15.59-1.57,1.18-1.57.59,1.05,1.18,1.05.59.9,1.18.9.59-.07,1.18-.07.59-.5,1.18-.5.59-.9,1.18-.9.59.06,1.18.06.59.43,1.18.43.59.14,1.17.14.59.92,1.18.92.59-1.75,1.18-1.75.59-.37,1.18-.37.59.93,1.18.93.59.98,1.18.98.59-1.1,1.18-1.1.59-.22,1.18-.22.59-.17,1.18-.17.59,1,1.18,1,.59-1.68,1.18-1.68.59,1.05,1.19,1.05.59-1.2,1.19-1.2c.38,0,.54.11.91.04s1.19,1.71,1.54,1.59.13-1.53.45-1.72.67-.18.96-.42,1.85.76,2.1.48-.2-1.26,0-1.58.64-.58.8-.93,1.14-.54,1.25-.91-.96-1.09-.91-1.47.01-.78,0-1.16c0-.59-1-.57-1.01-1.16s.76-.6.75-1.19-.31-.58-.32-1.17-.65-.57-.66-1.16.29-.59.28-1.18,1.1-.61,1.09-1.19-1.96-.55-1.97-1.14,2.86-.64,2.85-1.22-1.25-.56-1.26-1.15-.36-.58-.37-1.16-1-.57-1.01-1.15,1.43-.61,1.41-1.2,1.18-.61,1.17-1.19-2.71-.54-2.72-1.12,1.35-.61,1.34-1.2.71-.6.69-1.18.14-.59.13-1.17-.28-.58-.29-1.17-1.46-.56-1.47-1.15,2.18-.62,2.17-1.21-2.73-.54-2.74-1.12.89-.6.88-1.19-.91-.57-.92-1.16.85-.6.84-1.19-.93-.57-.94-1.16,1.42-.61,1.41-1.2.64-.6.63-1.19-1.57-.56-1.58-1.15.17-.59.16-1.18.6-.6.59-1.19-.8-.57-.81-1.16.94-.61.93-1.19-.26-.58-.27-1.17-.05-.59-.06-1.18.71-.6.7-1.19-.51-.58-.52-1.17.21-.59.2-1.18-.7-.58-.71-1.16-.44-.58-.45-1.17,2.23-.63,2.22-1.21-2.17-.55-2.18-1.14,2.01-.62,2-1.21-.73-.57-.74-1.16-.72-.57-.73-1.16,1.33-.61,1.32-1.2-1.43-.56-1.44-1.15.75-.6.74-1.19.47-.6.46-1.18-1.85-.55-1.86-1.14,2.04-.62,2.03-1.21-2.46-.54-2.47-1.13.94-.6.93-1.19.51-.6.5-1.18-.35-.58-.36-1.17-.65-.58-.66-1.17-.77-.58-.78-1.16.82-.6.81-1.19,1.96-.62,1.95-1.21-2.59-.54-2.6-1.13.95-.61.94-1.2,1.69-.62,1.68-1.21-.07-.59-.08-1.18-2.25-.55-2.26-1.14.78-.6.77-1.19.97-.61.96-1.19-.63-.58-.64-1.17.08-.59.07-1.18-1.29-.57-1.3-1.15,1.2-.61,1.19-1.2-.06-.59-.07-1.17.44-.6.43-1.18-1.56-.56-1.57-1.15,1.86-.62,1.84-1.21-1.65-.56-1.66-1.15.04-.59.03-1.18,1.68-.62,1.67-1.21-1.32-.57-1.33-1.16-.16-.59-.17-1.18-.22-.59-.23-1.17.44-.6.43-1.19-.41-.58-.42-1.17.63-.6.62-1.19-1.37-.56-1.38-1.15,1.95-.62,1.94-1.21.48-.6.47-1.19-2.63-.54-2.64-1.13,2.37-.63,2.36-1.22-1.71-.56-1.72-1.15-.74-.58-.75-1.17,1.34-.61,1.33-1.2,1.1-.61,1.09-1.2-.58-.58-.59-1.17.61-.6.6-1.19-.62-.58-.63-1.17-.24-.58-.25-1.17-.36-.58-.37-1.17-.34-.58-.35-1.17,1.29-.61,1.28-1.2.15-.59.14-1.18-.69-.58-.7-1.17-.83-.58-.84-1.17,1.79-.62,1.77-1.21-2.2-.55-2.21-1.14-.38-.58-.39-1.17.4-.6.39-1.19-.36-.58-.37-1.17,0-.59-.02-1.18,2.38-.63,2.37-1.22-1.78-.56-1.79-1.15,1.07-.61,1.06-1.2-.57-.58-.58-1.17-1.29-.57-1.3-1.15,1.63-.62,1.62-1.2.16-.59.15-1.18-.14-.59-.15-1.17-.56-.58-.57-1.17-.74-.58-.75-1.17,1.24-.61,1.23-1.2.97-.61.95-1.2-1.89-.56-1.9-1.15-.84-.57-.85-1.16,1-.61.99-1.2.08-.59.07-1.18.51-.6.5-1.19-.88-.58-.89-1.17,1.35-.61,1.34-1.2-1.11-.57-1.12-1.16-.42-.58-.43-1.17,2.18-.63,2.17-1.22-2.16-.55-2.17-1.14.64-.6.63-1.19-.55-.58-.56-1.17-.61-.58-.62-1.17,2.45-.63,2.44-1.22-1.82-.56-1.83-1.15.81-.6.8-1.19-1.58-.56-1.59-1.16.73-.6.72-1.19,1.19-.61,1.18-1.2.02-.59,0-1.18-.67-.58-.68-1.17,1.1-.61,1.09-1.2-1.94-.56-1.95-1.15,1.29-.61,1.28-1.21-1.2-.57-1.21-1.16,1.23-.62,1.22-1.21-.37-.59-.38-1.18c0-.41-1.52-.58-1.59-.98s2.09-1.35,1.96-1.73-.94-.59-1.14-.95-.17-.96-.42-1.28-.17-1.19-.47-1.46-1-.36-1.35-.57-1.51,1.17-1.89,1.03-.41-1.32-.81-1.4-.86,1.66-1.27,1.66Z"/>
    <path class="cls-2" d="M199.1,51.41c-.59,0-.59-.7-1.18-.7s-.59-1.78-1.18-1.78-.59-.49-1.18-.49-.59,1.85-1.18,1.85-.59-1.63-1.18-1.63-.59,2.29-1.18,2.29-.59-1.55-1.18-1.55-.59.41-1.18.41-.59.7-1.18.7-.59-.04-1.18-.04-.59-.89-1.18-.89-.59-.7-1.18-.7-.59,1.46-1.18,1.46-.59.85-1.18.85-.59-1.95-1.18-1.95-.59.09-1.19.09-.59.15-1.18.15-.59.3-1.18.3-.59,1.12-1.18,1.12-.59.4-1.18.4-.59-.22-1.18-.22-.59.26-1.18.26-.59-1.74-1.18-1.74-.59.57-1.18.57-.59-.91-1.18-.91-.59.42-1.18.42-.59-.73-1.18-.73-.59,1.32-1.18,1.32-.59-1.63-1.18-1.63-.59-.17-1.18-.17-.59,1.39-1.18,1.39-.59-.29-1.18-.29-.59.7-1.18.7-.59.86-1.19.86-.59-.76-1.19-.76-.59-.7-1.18-.7-.59-1.08-1.18-1.08-.59,1.92-1.18,1.92-.59.67-1.18.67-.59-.14-1.18-.14-.59-.67-1.18-.67-.59.9-1.18.9-.59-2.72-1.18-2.72-.59.6-1.18.6-.59.42-1.18.42-.59,1.48-1.19,1.48-.59.13-1.19.13-.59.1-1.19.1-.59-1.55-1.19-1.55-.59-.53-1.18-.53-.59-.71-1.18-.71-.59.06-1.18.06-.59,1.43-1.18,1.43-.59,1.26-1.18,1.26-.59-.1-1.18-.1-.59-.98-1.19-.98-.59.13-1.19.13-.59.53-1.19.53-.59-.67-1.19-.67-.59,1.11-1.18,1.11-.59-2.24-1.18-2.24-.59,1.4-1.18,1.4-.59-1.95-1.19-1.95-.59,2.02-1.19,2.02-.59-1.04-1.19-1.04-.59,1.96-1.18,1.96-.59-1.19-1.18-1.19-.59-1.73-1.18-1.73-.59,2.65-1.18,2.65-.59-.39-1.18-.39-.59-.1-1.18-.1-.59,0-1.18,0-.59-1.49-1.18-1.49-.59.96-1.19.96-.59-.06-1.19-.06-.59.18-1.19.18-.59-.5-1.18-.5-.59-1.2-1.18-1.2-.59,1.89-1.18,1.89-.59.69-1.19.69-.59-.7-1.19-.7-.59.93-1.19.93-.59-2.06-1.19-2.06-.59.09-1.19.09-.59,1.06-1.19,1.06-.59-1.79-1.19-1.79-.59.86-1.19.86-.59,1.4-1.19,1.4-.59.24-1.19.24-.59-1.15-1.19-1.15-.59-1.51-1.19-1.51-.59,1.92-1.19,1.92-.59-.87-1.18-.87-.59,1.05-1.19,1.05-.59-1.1-1.19-1.1-.59-.72-1.19-.72-.6,1.59-1.19,1.59-.59-1.79-1.19-1.79-.6.91-1.19.91-.6-.26-1.19-.26-.59-.21-1.19-.21-.6-.33-1.19-.33-.6.67-1.2.67-.6.06-1.2.06c-.41,0-.84.45-1.23.52s-1.05-.4-1.43-.26-.5.99-.84,1.2-.14,1.06-.44,1.33-.44.52-.69.84-2.02-.33-2.22.03-.18.97-.31,1.36,1.1,1.13,1.03,1.54-.6.7-.61,1.11c0,.59.4.59.39,1.18s-.43.58-.44,1.17-.98.57-.99,1.16,2.15.62,2.14,1.21-2.52.54-2.53,1.13,2.46.63,2.45,1.21-1.51.56-1.52,1.15-.14.58-.15,1.17-.36.58-.37,1.17,2.14.62,2.12,1.21-1.94.55-1.95,1.14-.88.57-.89,1.16.21.59.2,1.18.67.6.66,1.18.56.6.55,1.18.7.6.69,1.18-.61.58-.62,1.16-1.13.57-1.14,1.15-.21.58-.22,1.17,1.13.61,1.12,1.19-1.45.56-1.46,1.15,1.11.61,1.1,1.19.41.59.4,1.18.78.6.77,1.19-.59.58-.6,1.16-1.25.57-1.26,1.15.32.59.31,1.18.08.59.07,1.18.01.59,0,1.18.78.6.77,1.19-.18.59-.2,1.17-1.53.56-1.55,1.15.78.6.77,1.19.34.59.33,1.18-.49.58-.5,1.17,1.86.62,1.85,1.21-2.39.55-2.4,1.13-.31.58-.32,1.17.23.59.22,1.18,2.11.62,2.1,1.21-.67.58-.68,1.16.33.59.32,1.18-.02.59-.03,1.17.07.59.06,1.18-1.56.56-1.57,1.15-.26.58-.27,1.17,1.09.61,1.08,1.19.06.59.05,1.18,1.46.61,1.45,1.2-2.37.55-2.38,1.13,1.66.62,1.65,1.2-.85.57-.86,1.16-.17.58-.18,1.17-.98.57-.99,1.16,2.55.63,2.54,1.22-1.93.55-1.94,1.14-.4.58-.41,1.17,1.98.62,1.97,1.21-2.23.55-2.24,1.14.17.59.16,1.18,0,.59,0,1.18-.35.58-.36,1.17.76.6.75,1.19,1.29.61,1.28,1.2.05.59.04,1.18-1.01.57-1.02,1.16-.66.58-.67,1.16-.04.59-.05,1.18,1.22.61,1.21,1.2-.88.57-.89,1.16-.34.58-.35,1.17.69.6.68,1.19,1.42.61,1.41,1.2-2.29.55-2.3,1.14,1.24.61,1.23,1.2.87.6.86,1.19-.62.58-.63,1.17-1.9.56-1.91,1.15.18.59.17,1.18.02.59.01,1.18,1.46.61,1.45,1.2-1.24.57-1.25,1.16.69.6.68,1.19.92.6.91,1.19-.8.57-.81,1.16.77.6.76,1.19.07.59.06,1.18-.72.58-.73,1.17-.5.58-.51,1.17-.15.59-.16,1.18-.74.58-.75,1.17.57.6.55,1.19.84.6.83,1.19-1.34.57-1.36,1.15,1.12.61,1.11,1.2.65.6.64,1.19.33.6.32,1.18-.1.59-.11,1.18.42.6.41,1.19-1.17.57-1.18,1.16.06.59.05,1.18.95.61.94,1.2-.05.59-.06,1.18-2.06.55-2.07,1.14,1.57.62,1.56,1.21-1.42.56-1.43,1.15-.47.58-.48,1.17.07.59.06,1.18,1.82.62,1.81,1.21.36.59.35,1.18-1.71.56-1.72,1.15.59.6.58,1.19.58.6.57,1.19.45.6.44,1.18-.66.58-.67,1.16-1.86.56-1.87,1.15,2.48.63,2.47,1.22.39.6.38,1.19-.29.58-.3,1.17-.93.57-.94,1.16-.16.59-.17,1.18-.55.58-.56,1.17.05.59.03,1.18,1.12.61,1.11,1.2.37.6.36,1.19-.78.58-.79,1.17-1.11.57-1.12,1.16.84.6.83,1.19-1.14.57-1.15,1.16,1.07.61,1.06,1.2-.21.59-.22,1.18.48.6.47,1.19-.98.57-.99,1.17,2.02.63,2.01,1.22-.59.58-.6,1.17-1.16.57-1.17,1.16-.45.58-.46,1.18.85.61.84,1.2-.35.58-.36,1.17-1.16.57-1.17,1.16,2.69.64,2.68,1.23-1.25.57-1.26,1.16,0,.59,0,1.19,1.39.62,1.38,1.21-1.89.56-1.9,1.15.51.6.5,1.2,1.2.61,1.19,1.21c0,.38.15.54.19.91s-1.24.91-1.14,1.26.71.48.87.82.58.4.78.72-1.35,2.02-1.1,2.29,2.22-1.23,2.51-1-.28,1.63.05,1.81.55.83.9.96,1.07-1.04,1.45-.97.65-.51,1.03-.51c.59,0,.59.58,1.17.58s.59.77,1.17.77.59.18,1.17.18.59-.02,1.17-.02.59-.14,1.17-.14.59-1.6,1.17-1.6.59,2.44,1.17,2.44.59-1.11,1.17-1.11.59,1.2,1.17,1.2.59-.46,1.17-.46.59-1.97,1.17-1.97.59.72,1.17.72.59.95,1.17.95.59-1.56,1.17-1.56.59,2.02,1.17,2.02.59-.03,1.17-.03.59-.16,1.17-.16.59-2.03,1.17-2.03.59,1.32,1.17,1.32.59-.51,1.17-.51.59.6,1.18.6.59.98,1.18.98.59-.85,1.18-.85.59-1.69,1.17-1.69.59,2.55,1.17,2.55.59-1.93,1.17-1.93.59,1.87,1.17,1.87.59-1.29,1.17-1.29.59-.39,1.17-.39.59,1.87,1.17,1.87.59-.25,1.17-.25.59-1.59,1.17-1.59.59.1,1.17.1.59.62,1.17.62.59-1.12,1.17-1.12.59-.29,1.17-.29.59,2.65,1.17,2.65.59-2.12,1.17-2.12.59-.3,1.18-.3.59,1.54,1.18,1.54.59.66,1.18.66.59-.62,1.18-.62.59.46,1.17.46.59.25,1.17.25.59-2.34,1.17-2.34.59-.31,1.17-.31.59,2.1,1.17,2.1.59-1.99,1.17-1.99.59.95,1.17.95.59.82,1.17.82.59-.3,1.18-.3.59-.31,1.18-.31.59-.16,1.18-.16.59,1.39,1.18,1.39.59.14,1.18.14.59.11,1.18.11.59-2.05,1.17-2.05.59.4,1.17.4.59.18,1.17.18.59-.43,1.18-.43.59.96,1.18.96.59-.54,1.18-.54.59.34,1.18.34.59-1.58,1.18-1.58.59,2.02,1.18,2.02.59-.75,1.18-.75.59,1.06,1.18,1.06.59-.28,1.18-.28.59-1.59,1.18-1.59.59,1.23,1.18,1.23.59-.62,1.18-.62.59.67,1.17.67.59.63,1.17.63.59-1.6,1.17-1.6.59,1.61,1.17,1.61.59-1.12,1.17-1.12.59,1.5,1.17,1.5.59-1.08,1.17-1.08.59-1.64,1.17-1.64.59.14,1.18.14.59,1.46,1.18,1.46.59.59,1.18.59.59-1.77,1.18-1.77.59-.19,1.17-.19.59.49,1.17.49.59,2.05,1.18,2.05.59-2.36,1.18-2.36.59-.52,1.18-.52.59,2.15,1.18,2.15.59-1.57,1.18-1.57.59,1.05,1.18,1.05.59.9,1.18.9.59-.07,1.18-.07.59-.5,1.18-.5.59-.9,1.18-.9.59.06,1.18.06.59.43,1.18.43.59.14,1.17.14.59.92,1.18.92.59-1.75,1.18-1.75.59-.37,1.18-.37.59.93,1.18.93.59.98,1.18.98.59-1.1,1.18-1.1.59-.22,1.18-.22.59-.17,1.18-.17.59,1,1.18,1,.59-1.68,1.18-1.68.59,1.05,1.19,1.05.59-1.2,1.19-1.2c.38,0,.54.11.91.04s1.19,1.71,1.54,1.59.13-1.53.45-1.72.67-.18.96-.42,1.85.76,2.1.48-.2-1.26,0-1.58.64-.58.8-.93,1.14-.54,1.25-.91-.96-1.09-.91-1.47.01-.78,0-1.16c0-.59-1-.57-1.01-1.16s.76-.6.75-1.19-.31-.58-.32-1.17-.65-.57-.66-1.16.29-.59.28-1.18,1.1-.61,1.09-1.19-1.96-.55-1.97-1.14,2.86-.64,2.85-1.22-1.25-.56-1.26-1.15-.36-.58-.37-1.16-1-.57-1.01-1.15,1.43-.61,1.41-1.2,1.18-.61,1.17-1.19-2.71-.54-2.72-1.12,1.35-.61,1.34-1.2.71-.6.69-1.18.14-.59.13-1.17-.28-.58-.29-1.17-1.46-.56-1.47-1.15,2.18-.62,2.17-1.21-2.73-.54-2.74-1.12.89-.6.88-1.19-.91-.57-.92-1.16.85-.6.84-1.19-.93-.57-.94-1.16,1.42-.61,1.41-1.2.64-.6.63-1.19-1.57-.56-1.58-1.15.17-.59.16-1.18.6-.6.59-1.19-.8-.57-.81-1.16.94-.61.93-1.19-.26-.58-.27-1.17-.05-.59-.06-1.18.71-.6.7-1.19-.51-.58-.52-1.17.21-.59.2-1.18-.7-.58-.71-1.16-.44-.58-.45-1.17,2.23-.63,2.22-1.21-2.17-.55-2.18-1.14,2.01-.62,2-1.21-.73-.57-.74-1.16-.72-.57-.73-1.16,1.33-.61,1.32-1.2-1.43-.56-1.44-1.15.75-.6.74-1.19.47-.6.46-1.18-1.85-.55-1.86-1.14,2.04-.62,2.03-1.21-2.46-.54-2.47-1.13.94-.6.93-1.19.51-.6.5-1.18-.35-.58-.36-1.17-.65-.58-.66-1.17-.77-.58-.78-1.16.82-.6.81-1.19,1.96-.62,1.95-1.21-2.59-.54-2.6-1.13.95-.61.94-1.2,1.69-.62,1.68-1.21-.07-.59-.08-1.18-2.25-.55-2.26-1.14.78-.6.77-1.19.97-.61.96-1.19-.63-.58-.64-1.17.08-.59.07-1.18-1.29-.57-1.3-1.15,1.2-.61,1.19-1.2-.06-.59-.07-1.17.44-.6.43-1.18-1.56-.56-1.57-1.15,1.86-.62,1.84-1.21-1.65-.56-1.66-1.15.04-.59.03-1.18,1.68-.62,1.67-1.21-1.32-.57-1.33-1.16-.16-.59-.17-1.18-.22-.59-.23-1.17.44-.6.43-1.19-.41-.58-.42-1.17.63-.6.62-1.19-1.37-.56-1.38-1.15,1.95-.62,1.94-1.21.48-.6.47-1.19-2.63-.54-2.64-1.13,2.37-.63,2.36-1.22-1.71-.56-1.72-1.15-.74-.58-.75-1.17,1.34-.61,1.33-1.2,1.1-.61,1.09-1.2-.58-.58-.59-1.17.61-.6.6-1.19-.62-.58-.63-1.17-.24-.58-.25-1.17-.36-.58-.37-1.17-.34-.58-.35-1.17,1.29-.61,1.28-1.2.15-.59.14-1.18-.69-.58-.7-1.17-.83-.58-.84-1.17,1.79-.62,1.77-1.21-2.2-.55-2.21-1.14-.38-.58-.39-1.17.4-.6.39-1.19-.36-.58-.37-1.17,0-.59-.02-1.18,2.38-.63,2.37-1.22-1.78-.56-1.79-1.15,1.07-.61,1.06-1.2-.57-.58-.58-1.17-1.29-.57-1.3-1.15,1.63-.62,1.62-1.2.16-.59.15-1.18-.14-.59-.15-1.17-.56-.58-.57-1.17-.74-.58-.75-1.17,1.24-.61,1.23-1.2.97-.61.95-1.2-1.89-.56-1.9-1.15-.84-.57-.85-1.16,1-.61.99-1.2.08-.59.07-1.18.51-.6.5-1.19-.88-.58-.89-1.17,1.35-.61,1.34-1.2-1.11-.57-1.12-1.16-.42-.58-.43-1.17,2.18-.63,2.17-1.22-2.16-.55-2.17-1.14.64-.6.63-1.19-.55-.58-.56-1.17-.61-.58-.62-1.17,2.45-.63,2.44-1.22-1.82-.56-1.83-1.15.81-.6.8-1.19-1.58-.56-1.59-1.16.73-.6.72-1.19,1.19-.61,1.18-1.2.02-.59,0-1.18-.67-.58-.68-1.17,1.1-.61,1.09-1.2-1.94-.56-1.95-1.15,1.29-.61,1.28-1.21-1.2-.57-1.21-1.16,1.23-.62,1.22-1.21-.37-.59-.38-1.18c0-.41-1.52-.58-1.59-.98s2.09-1.35,1.96-1.73-.94-.59-1.14-.95-.17-.96-.42-1.28-.17-1.19-.47-1.46-1-.36-1.35-.57-1.51,1.17-1.89,1.03-.41-1.32-.81-1.4-.86,1.66-1.27,1.66Z"/>
  </g>
  <g>
    <path class="cls-1" d="M136.93,57.45c0,.59,1.25.59,1.25,1.18s.33.59.33,1.18-.64.59-.64,1.18-1.39.59-1.39,1.18,2.49.59,2.49,1.18-2.03.59-2.03,1.18.3.59.3,1.18.08.59.08,1.18-.4.59-.4,1.18.63.59.63,1.18.6.59.6,1.18.11.59.11,1.18-1.02.59-1.02,1.18,1.12.59,1.12,1.18-.01.59-.01,1.18-1.47.59-1.47,1.18,2.07.59,2.07,1.18-.7.59-.7,1.18.34.59.34,1.18-.25.59-.25,1.18.27.59.27,1.18-2.1.59-2.1,1.18,2.43.59,2.43,1.18-2.51.59-2.51,1.18,1.47.59,1.47,1.18-1.46.59-1.46,1.18,2.42.59,2.42,1.18-2.22.59-2.22,1.18,2.16.59,2.16,1.18-2.43.59-2.43,1.18,1.54.59,1.54,1.18-1.29.59-1.29,1.18-.52.59-.52,1.18,2.31.59,2.31,1.18-.29.59-.29,1.18-1.19.59-1.19,1.18-.82.59-.82,1.18,1.25.59,1.25,1.18,1.56.59,1.56,1.18-2.63.59-2.63,1.18,2.6.59,2.6,1.18-.94.59-.94,1.18-.25.59-.25,1.18-1.37.59-1.37,1.18.91.59.91,1.18-1.21.59-1.21,1.18,2.86.59,2.86,1.18-1.8.59-1.8,1.18,1.65.59,1.65,1.18-.02.59-.02,1.18-2.13.59-2.13,1.18-.45.59-.45,1.18,1.71.59,1.71,1.18.33.59.33,1.18-1.59.59-1.59,1.18.04.59.04,1.18.85.59.85,1.18.6.59.6,1.18-.13.59-.13,1.18.22.59.22,1.18,0,.59,0,1.18.17.59.17,1.18-1.4.59-1.4,1.18-.06.59-.06,1.18.28.59.28,1.18,1.11.59,1.11,1.18-1.88.59-1.88,1.18,1.97.59,1.97,1.18-1.96.59-1.96,1.18,2.25.59,2.25,1.18-2.31.59-2.31,1.18,1.7.59,1.7,1.18.93.59.93,1.18-2.04.59-2.04,1.18.21.59.21,1.18,1.6.59,1.6,1.18.17.59.17,1.18-.87.59-.87,1.18-1.34.59-1.34,1.18,1.99.59,1.99,1.18-.83.59-.83,1.18-1.84.59-1.84,1.18,2.12.59,2.12,1.18.78.59.78,1.18-2.43.59-2.43,1.18.41.59.41,1.18.63.59.63,1.18-1.12.59-1.12,1.18.84.59.84,1.18-1.12.59-1.12,1.18,1.83.59,1.83,1.18-1.21.59-1.21,1.18-.43.59-.43,1.18,2.66.59,2.66,1.18-.28.59-.28,1.18-1.01.59-1.01,1.18.68.59.68,1.18-1.25.59-1.25,1.18-.55.59-.55,1.19,1.93.59,1.93,1.18.38.59.38,1.18-.04.59-.04,1.18-2.54.59-2.54,1.18,1.99.59,1.99,1.18-.59.59-.59,1.18-1.5.59-1.5,1.18,1.91.59,1.91,1.18-1.72.59-1.72,1.18,1.34.59,1.34,1.18-1.23.59-1.23,1.18,1.69.59,1.69,1.18-1.29.59-1.29,1.18,1.23.59,1.23,1.18.17.59.17,1.18-.95.59-.95,1.18.08.59.08,1.18-1.27.59-1.27,1.19,1.4.59,1.4,1.18-1.07.59-1.07,1.18.75.59.75,1.18.8.59.8,1.18-1.14.59-1.14,1.18,1.28.59,1.28,1.19.54.59.54,1.19.02.59.02,1.18,0,.59,0,1.18-2.73.59-2.73,1.18,2.5.59,2.5,1.19-1.18.59-1.18,1.19-.12.59-.12,1.19.73.59.73,1.19-1.86.59-1.86,1.19,2.61.59,2.61,1.19-1.03.59-1.03,1.19-1.22.59-1.22,1.18,1.77.59,1.77,1.19-2.02.59-2.02,1.19,1.45.59,1.45,1.19-.12.59-.12,1.19-1.48.59-1.48,1.19,1.12.59,1.12,1.19-.06.6-.06,1.19.39.59.39,1.19.82.6.82,1.19.53.6.53,1.19-.03.6-.03,1.19"/>
    <path class="cls-2" d="M136.93,57.45c0,.59,1.25.59,1.25,1.18s.33.59.33,1.18-.64.59-.64,1.18-1.39.59-1.39,1.18,2.49.59,2.49,1.18-2.03.59-2.03,1.18.3.59.3,1.18.08.59.08,1.18-.4.59-.4,1.18.63.59.63,1.18.6.59.6,1.18.11.59.11,1.18-1.02.59-1.02,1.18,1.12.59,1.12,1.18-.01.59-.01,1.18-1.47.59-1.47,1.18,2.07.59,2.07,1.18-.7.59-.7,1.18.34.59.34,1.18-.25.59-.25,1.18.27.59.27,1.18-2.1.59-2.1,1.18,2.43.59,2.43,1.18-2.51.59-2.51,1.18,1.47.59,1.47,1.18-1.46.59-1.46,1.18,2.42.59,2.42,1.18-2.22.59-2.22,1.18,2.16.59,2.16,1.18-2.43.59-2.43,1.18,1.54.59,1.54,1.18-1.29.59-1.29,1.18-.52.59-.52,1.18,2.31.59,2.31,1.18-.29.59-.29,1.18-1.19.59-1.19,1.18-.82.59-.82,1.18,1.25.59,1.25,1.18,1.56.59,1.56,1.18-2.63.59-2.63,1.18,2.6.59,2.6,1.18-.94.59-.94,1.18-.25.59-.25,1.18-1.37.59-1.37,1.18.91.59.91,1.18-1.21.59-1.21,1.18,2.86.59,2.86,1.18-1.8.59-1.8,1.18,1.65.59,1.65,1.18-.02.59-.02,1.18-2.13.59-2.13,1.18-.45.59-.45,1.18,1.71.59,1.71,1.18.33.59.33,1.18-1.59.59-1.59,1.18.04.59.04,1.18.85.59.85,1.18.6.59.6,1.18-.13.59-.13,1.18.22.59.22,1.18,0,.59,0,1.18.17.59.17,1.18-1.4.59-1.4,1.18-.06.59-.06,1.18.28.59.28,1.18,1.11.59,1.11,1.18-1.88.59-1.88,1.18,1.97.59,1.97,1.18-1.96.59-1.96,1.18,2.25.59,2.25,1.18-2.31.59-2.31,1.18,1.7.59,1.7,1.18.93.59.93,1.18-2.04.59-2.04,1.18.21.59.21,1.18,1.6.59,1.6,1.18.17.59.17,1.18-.87.59-.87,1.18-1.34.59-1.34,1.18,1.99.59,1.99,1.18-.83.59-.83,1.18-1.84.59-1.84,1.18,2.12.59,2.12,1.18.78.59.78,1.18-2.43.59-2.43,1.18.41.59.41,1.18.63.59.63,1.18-1.12.59-1.12,1.18.84.59.84,1.18-1.12.59-1.12,1.18,1.83.59,1.83,1.18-1.21.59-1.21,1.18-.43.59-.43,1.18,2.66.59,2.66,1.18-.28.59-.28,1.18-1.01.59-1.01,1.18.68.59.68,1.18-1.25.59-1.25,1.18-.55.59-.55,1.19,1.93.59,1.93,1.18.38.59.38,1.18-.04.59-.04,1.18-2.54.59-2.54,1.18,1.99.59,1.99,1.18-.59.59-.59,1.18-1.5.59-1.5,1.18,1.91.59,1.91,1.18-1.72.59-1.72,1.18,1.34.59,1.34,1.18-1.23.59-1.23,1.18,1.69.59,1.69,1.18-1.29.59-1.29,1.18,1.23.59,1.23,1.18.17.59.17,1.18-.95.59-.95,1.18.08.59.08,1.18-1.27.59-1.27,1.19,1.4.59,1.4,1.18-1.07.59-1.07,1.18.75.59.75,1.18.8.59.8,1.18-1.14.59-1.14,1.18,1.28.59,1.28,1.19.54.59.54,1.19.02.59.02,1.18,0,.59,0,1.18-2.73.59-2.73,1.18,2.5.59,2.5,1.19-1.18.59-1.18,1.19-.12.59-.12,1.19.73.59.73,1.19-1.86.59-1.86,1.19,2.61.59,2.61,1.19-1.03.59-1.03,1.19-1.22.59-1.22,1.18,1.77.59,1.77,1.19-2.02.59-2.02,1.19,1.45.59,1.45,1.19-.12.59-.12,1.19-1.48.59-1.48,1.19,1.12.59,1.12,1.19-.06.6-.06,1.19.39.59.39,1.19.82.6.82,1.19.53.6.53,1.19-.03.6-.03,1.19"/>
  </g>
</svg>