<?xml version="1.0" encoding="UTF-8"?>
<svg id="_레이어_1" data-name="레이어 1" xmlns="http://www.w3.org/2000/svg" viewBox="0 0 275 275">
  <defs>
    <style>
      .cls-1 {
        fill: none;
      }

      .cls-1, .cls-2 {
        stroke: #474642;
        stroke-linecap: round;
        stroke-linejoin: round;
        stroke-width: 1.5px;
      }

      .cls-2 {
        fill: #f2f4f5;
      }
    </style>
  </defs>
  <g>
    <rect class="cls-2" x="127.46" y="41.53" width="45.58" height="12.52"/>
    <rect class="cls-2" x="119.86" y="220.95" width="60.78" height="12.52"/>
    <g>
      <polygon class="cls-2" points="103.05 54.05 102.97 57.7 113.51 55.12 117.89 54.05 103.05 54.05"/>
      <polygon class="cls-2" points="198.43 111.7 198.32 106.52 187.79 109.09 198.43 111.7"/>
      <polygon class="cls-2" points="197.28 57.73 197.2 54.05 191 54.05 186.62 55.12 150.06 64.07 113.51 73.03 102.59 75.7 102.32 88.16 102.2 93.7 113.57 90.92 150.06 81.98 186.62 73.03 197.55 70.35 197.28 57.73"/>
      <polygon class="cls-2" points="197.66 75.73 197.55 70.35 186.62 73.03 150.06 81.98 113.57 90.92 102.2 93.7 101.93 106.55 101.82 111.67 112.33 109.09 150.06 99.85 186.55 90.92 197.93 88.13 197.66 75.73"/>
      <polygon class="cls-2" points="182.23 54.05 117.89 54.05 113.51 55.12 102.97 57.7 102.7 70.38 102.59 75.7 113.51 73.03 150.06 64.07 186.62 55.12 191 54.05 182.23 54.05"/>
      <polygon class="cls-2" points="198.72 124.9 198.43 111.7 187.79 109.09 150.06 118.34 187.79 127.58 198.83 130.28 198.72 124.9"/>
      <polygon class="cls-2" points="200.68 216.83 187.79 219.98 183.84 220.95 200.77 220.95 200.68 216.83"/>
      <polygon class="cls-2" points="199.11 143.29 198.83 130.28 187.79 127.58 150.06 118.34 112.33 127.58 150.06 136.82 187.79 146.06 199.23 148.86 199.11 143.29"/>
      <polygon class="cls-2" points="200.42 204.59 200.29 198.44 187.79 201.5 150.06 210.74 108.37 220.95 183.84 220.95 187.79 219.98 200.68 216.83 200.42 204.59"/>
      <polygon class="cls-2" points="100.74 161.7 100.62 167.41 112.33 164.54 100.74 161.7"/>
      <polygon class="cls-2" points="199.5 161.67 199.23 148.86 187.79 146.06 150.06 136.82 112.33 127.58 101.42 130.25 101.14 143.32 112.33 146.06 150.06 155.3 187.79 164.54 199.63 167.44 199.5 161.67"/>
      <polygon class="cls-2" points="199.9 180.06 199.63 167.44 187.79 164.54 150.06 155.3 112.33 146.06 101.14 143.32 101.02 148.83 100.74 161.7 112.33 164.54 150.06 173.78 187.79 183.02 200.02 186.02 199.9 180.06"/>
      <polygon class="cls-2" points="112.33 164.54 100.62 167.41 100.35 180.09 100.22 185.99 112.33 183.02 150.06 173.78 112.33 164.54"/>
      <polygon class="cls-2" points="198.05 93.73 197.93 88.13 186.55 90.92 150.06 99.85 112.33 109.09 101.82 111.67 101.53 124.93 101.42 130.25 112.33 127.58 150.06 118.34 187.79 109.09 198.32 106.52 198.05 93.73"/>
      <polygon class="cls-2" points="200.02 186.02 187.79 183.02 150.06 192.26 112.33 201.5 99.83 204.56 99.56 216.86 99.48 220.95 108.37 220.95 150.06 210.74 187.79 201.5 200.29 198.44 200.02 186.02"/>
      <polygon class="cls-2" points="150.06 173.78 112.33 183.02 100.22 185.99 99.96 198.47 99.83 204.56 112.33 201.5 150.06 192.26 187.79 183.02 150.06 173.78"/>
    </g>
  </g>
  <g>
    <path class="cls-2" d="M69.81,166.15h0c4.2,0,7.54-3.52,7.32-7.71l-7.32-104.39h0l-7.32,104.39c-.22,4.19,3.12,7.71,7.32,7.71Z"/>
    <line class="cls-2" x1="69.81" y1="157.27" x2="69.81" y2="148.52"/>
  </g>
  <path class="cls-1" d="M69.81,152.9c-22.09,0-35.58,11.57-35.58,25.83s13.49,25.83,35.58,25.83h30.42"/>
  <line class="cls-2" x1="77.14" y1="152.9" x2="86.98" y2="152.9"/>
</svg>