<?xml version="1.0" encoding="UTF-8"?>
<svg id="_레이어_1" data-name="레이어 1" xmlns="http://www.w3.org/2000/svg" viewBox="0 0 275 275">
  <defs>
    <style>
      .cls-1 {
        fill: #f2f4f5;
        stroke: #474642;
        stroke-linecap: round;
        stroke-linejoin: round;
        stroke-width: 1.5px;
      }
    </style>
  </defs>
  <g>
    <rect class="cls-1" x="141.1" y="101.62" width="81.24" height="125.83"/>
    <path class="cls-1" d="M213.58,47.55v22.76c-.28-.03-.56-.04-.84-.04-4.25,0-7.71,3.43-7.74,7.7v.06c-.04,4.25-3.5,7.7-7.76,7.7s-7.76-3.49-7.76-7.76c-.04-4.27-3.5-7.7-7.77-7.7s-7.71,3.43-7.76,7.7v.06c-.03,4.25-3.49,7.7-7.76,7.7s-7.76-3.49-7.76-7.76c-.03-4.27-3.49-7.7-7.76-7.7-.28,0-.56.01-.82.04v-22.76h63.72Z"/>
    <path class="cls-1" d="M213.58,70.3v31.32h-63.72v-31.32c.27-.03.54-.04.82-.04,4.27,0,7.73,3.43,7.76,7.7,0,4.27,3.47,7.76,7.76,7.76s7.73-3.44,7.76-7.7v-.06c.04-4.27,3.5-7.7,7.76-7.7s7.73,3.43,7.77,7.7c0,4.27,3.46,7.76,7.76,7.76s7.71-3.44,7.76-7.7v-.06c.03-4.27,3.49-7.7,7.74-7.7.28,0,.56.01.84.04Z"/>
  </g>
  <g>
    <rect class="cls-1" x="52.66" y="101.62" width="81.24" height="125.83"/>
    <path class="cls-1" d="M125.15,47.55v22.76c-.28-.03-.56-.04-.84-.04-4.25,0-7.71,3.43-7.74,7.7v.06c-.04,4.25-3.5,7.7-7.76,7.7s-7.76-3.49-7.76-7.76c-.04-4.27-3.5-7.7-7.77-7.7s-7.71,3.43-7.76,7.7v.06c-.03,4.25-3.49,7.7-7.76,7.7s-7.76-3.49-7.76-7.76c-.03-4.27-3.49-7.7-7.76-7.7-.28,0-.56.01-.82.04v-22.76h63.72Z"/>
    <path class="cls-1" d="M125.15,70.3v31.32h-63.72v-31.32c.27-.03.54-.04.82-.04,4.27,0,7.73,3.43,7.76,7.7,0,4.27,3.47,7.76,7.76,7.76s7.73-3.44,7.76-7.7v-.06c.04-4.27,3.5-7.7,7.76-7.7s7.73,3.43,7.77,7.7c0,4.27,3.46,7.76,7.76,7.76s7.71-3.44,7.76-7.7v-.06c.03-4.27,3.49-7.7,7.74-7.7.28,0,.56.01.84.04Z"/>
  </g>
</svg>