<?xml version="1.0" encoding="UTF-8"?>
<svg id="_레이어_1" data-name="레이어 1" xmlns="http://www.w3.org/2000/svg" viewBox="0 0 275 275">
  <defs>
    <style>
      .cls-1 {
        fill: #f2f4f5;
        stroke: #474642;
        stroke-linecap: round;
        stroke-linejoin: round;
        stroke-width: 1.5px;
      }
    </style>
  </defs>
  <rect class="cls-1" x="48.46" y="48.46" width="178.07" height="178.07"/>
  <path class="cls-1" d="M98.5,144.41c0,10.06-7.95,18.21-17.75,18.21s-17.75-8.15-17.75-18.21,17.75-32.02,17.75-32.02c0,0,17.75,21.97,17.75,32.02Z"/>
  <path class="cls-1" d="M155.25,144.41c0,10.06-7.95,18.21-17.75,18.21s-17.75-8.15-17.75-18.21,17.75-32.02,17.75-32.02c0,0,17.75,21.97,17.75,32.02Z"/>
  <path class="cls-1" d="M212,144.41c0,10.06-7.95,18.21-17.75,18.21s-17.75-8.15-17.75-18.21,17.75-32.02,17.75-32.02c0,0,17.75,21.97,17.75,32.02Z"/>
</svg>