<?xml version="1.0" encoding="UTF-8"?>
<svg id="_레이어_1" data-name="레이어 1" xmlns="http://www.w3.org/2000/svg" viewBox="0 0 275 275">
  <defs>
    <style>
      .cls-1, .cls-2 {
        fill: #f2f4f5;
      }

      .cls-3 {
        fill: none;
      }

      .cls-3, .cls-2 {
        stroke: #474642;
        stroke-linecap: round;
        stroke-linejoin: round;
        stroke-width: 1.5px;
      }

      .cls-4 {
        fill: #474642;
      }
    </style>
  </defs>
  <rect class="cls-2" x="48.46" y="48.46" width="178.07" height="178.07"/>
  <g>
    <path class="cls-2" d="M156.19,125.84c0,10.54-8.33,19.09-18.6,19.09s-18.6-8.55-18.6-19.09,18.6-33.56,18.6-33.56c0,0,18.6,23.02,18.6,33.56Z"/>
    <g>
      <path class="cls-1" d="M74.49,155.53c26.67,0,45.35,10.55,45.35,27.19"/>
      <g>
        <path class="cls-3" d="M76.12,155.54c25.8.42,43.72,10.87,43.72,27.17"/>
        <polygon class="cls-4" points="80.9 161.86 81.96 160.8 76.7 155.6 82.26 150.73 81.27 149.6 74.49 155.53 80.9 161.86"/>
      </g>
    </g>
    <g>
      <path class="cls-1" d="M94.94,139.43c15.36,0,32.22,11.39,32.22,29.08"/>
      <g>
        <path class="cls-3" d="M96.57,139.47c14.9.77,30.6,11.97,30.6,29.04"/>
        <polygon class="cls-4" points="100.98 146.12 102.09 145.11 97.14 139.62 102.97 135.08 102.05 133.9 94.94 139.43 100.98 146.12"/>
      </g>
    </g>
    <g>
      <path class="cls-1" d="M200.51,155.53c-26.67,0-45.35,10.55-45.35,27.19"/>
      <g>
        <path class="cls-3" d="M198.88,155.54c-25.8.42-43.72,10.87-43.72,27.17"/>
        <polygon class="cls-4" points="193.73 149.6 192.74 150.73 198.3 155.6 193.04 160.8 194.1 161.86 200.51 155.53 193.73 149.6"/>
      </g>
    </g>
    <g>
      <path class="cls-1" d="M180.06,139.43c-15.36,0-32.22,11.39-32.22,29.08"/>
      <g>
        <path class="cls-3" d="M178.43,139.47c-14.9.77-30.6,11.97-30.6,29.04"/>
        <polygon class="cls-4" points="172.95 133.9 172.03 135.08 177.86 139.62 172.91 145.11 174.02 146.12 180.06 139.43 172.95 133.9"/>
      </g>
    </g>
  </g>
</svg>