<?xml version="1.0" encoding="UTF-8"?>
<svg id="_레이어_1" data-name="레이어 1" xmlns="http://www.w3.org/2000/svg" viewBox="0 0 275 275">
  <defs>
    <style>
      .cls-1 {
        fill: #f2f4f5;
        stroke: #474642;
        stroke-linecap: round;
        stroke-linejoin: round;
        stroke-width: 1.5px;
      }
    </style>
  </defs>
  <g>
    <g>
      <polygon class="cls-1" points="36.08 207.74 33.47 219.25 33.47 219.25 75.5 229.3 75.38 217.14 36.08 207.74"/>
      <polygon class="cls-1" points="75.24 203.12 74.99 176.94 74.73 150.76 74.46 123.9 74.21 97.72 73.94 70.56 73.6 42.44 67.61 69.05 61.77 94.74 56.14 119.51 50.36 144.93 44.73 169.71 39.1 194.48 36.08 207.74 75.38 217.14 75.24 203.12"/>
    </g>
    <g>
      <polygon class="cls-1" points="238.92 207.74 241.53 219.25 241.53 219.25 199.5 229.3 199.62 217.14 238.92 207.74"/>
      <polygon class="cls-1" points="199.76 203.12 200.01 176.94 200.27 150.76 200.54 123.9 200.79 97.72 201.06 70.56 201.4 42.44 207.39 69.05 213.23 94.74 218.86 119.51 224.64 144.93 230.27 169.71 235.9 194.48 238.92 207.74 199.62 217.14 199.76 203.12"/>
    </g>
  </g>
  <g>
    <polygon class="cls-1" points="204.01 205.4 204.01 205.4 203.57 178.24 203.57 178.24 203.14 151.08 203.14 151.08 202.7 123.92 202.7 123.92 202.27 96.76 202.27 96.76 201.83 69.6 201.83 69.6 201.4 42.44 73.6 42.44 73.17 69.6 73.16 69.6 72.73 96.76 72.73 96.76 72.3 123.92 72.3 123.92 71.86 151.08 71.86 151.08 71.43 178.24 71.43 178.24 70.99 205.4 70.99 205.4 70.56 232.56 204.44 232.56 204.01 205.4"/>
    <path class="cls-1" d="M162.88,42.44c0,2.16-.27,4.25-.77,6.26-2.8,10.99-12.76,19.13-24.61,19.13s-21.82-8.13-24.61-19.13c-.5-2-.77-4.09-.77-6.26h7.62c0,2.2.4,4.3,1.14,6.26,2.51,6.72,9,11.5,16.61,11.5s14.09-4.79,16.61-11.5c.75-1.95,1.14-4.05,1.14-6.26h7.62Z"/>
    <path class="cls-1" d="M155.26,42.44c0,2.2-.4,4.3-1.14,6.26-2.52,6.72-9.02,11.5-16.61,11.5s-14.1-4.79-16.61-11.5c-.75-1.95-1.14-4.05-1.14-6.26h35.52Z"/>
    <line class="cls-1" x1="70.77" y1="219.4" x2="204.23" y2="219.4"/>
  </g>
  <g>
    <line class="cls-1" x1="104.83" y1="85.72" x2="104.83" y2="197.56"/>
    <line class="cls-1" x1="126.61" y1="85.72" x2="126.61" y2="197.56"/>
    <line class="cls-1" x1="148.39" y1="85.72" x2="148.39" y2="197.56"/>
    <line class="cls-1" x1="170.17" y1="85.72" x2="170.17" y2="197.56"/>
  </g>
</svg>