<?xml version="1.0" encoding="UTF-8"?>
<svg id="_레이어_1" data-name="레이어 1" xmlns="http://www.w3.org/2000/svg" viewBox="0 0 275 275">
  <defs>
    <style>
      .cls-1 {
        fill: none;
      }

      .cls-1, .cls-2 {
        stroke: #474642;
        stroke-linecap: round;
        stroke-linejoin: round;
        stroke-width: 1.5px;
      }

      .cls-2 {
        fill: #f2f4f5;
      }
    </style>
  </defs>
  <polygon class="cls-2" points="220.11 85.39 160.09 88.11 115.23 88.11 54.88 85.39 50.95 228.56 224.05 228.56 220.11 85.39"/>
  <g>
    <polygon class="cls-2" points="187.5 46.44 136.85 91.47 87.73 46.44 187.5 46.44"/>
    <polygon class="cls-2" points="195.69 85.39 173.99 142.93 136.85 92.31 100.93 141.25 79.3 85.39 83.93 63.97 87.73 46.44 99.7 57.4 136.85 91.47 175.4 57.2 187.5 46.44 191.23 64.13 195.69 85.39"/>
    <path class="cls-1" d="M191.23,64.13c-1.24,2.68-3.94,4.55-7.08,4.55-4.27,0-7.76-3.47-7.76-7.76-.01-1.35-.37-2.63-.99-3.72-1.32-2.37-3.86-3.96-6.77-3.96-4.25,0-7.71,3.43-7.74,7.68v.07c-.03,4.24-3.5,7.68-7.76,7.68s-7.76-3.47-7.76-7.76c-.03-4.25-3.5-7.68-7.76-7.68s-7.73,3.43-7.76,7.68v.07c-.04,4.24-3.5,7.68-7.76,7.68s-7.76-3.47-7.76-7.76c-.04-4.25-3.49-7.68-7.77-7.68-2.99,0-5.58,1.69-6.87,4.17-.54,1.05-.87,2.24-.88,3.52v.07c-.03,4.24-3.49,7.68-7.76,7.68-3.19,0-5.95-1.94-7.12-4.71l3.8-17.53h99.77l3.72,17.69Z"/>
  </g>
</svg>