<?xml version="1.0" encoding="UTF-8"?>
<svg id="_레이어_1" data-name="레이어 1" xmlns="http://www.w3.org/2000/svg" viewBox="0 0 275 275">
  <defs>
    <style>
      .cls-1 {
        fill: #474642;
      }

      .cls-2 {
        fill: #f2f4f5;
        stroke: #474642;
        stroke-linecap: round;
        stroke-linejoin: round;
        stroke-width: 1.5px;
      }
    </style>
  </defs>
  <polygon class="cls-2" points="149.79 74.47 137.33 141.45 124.77 73.9 137.07 57.14 149.79 74.47"/>
  <rect class="cls-1" x="130.92" y="74.47" width="12.51" height="66.98"/>
  <polygon class="cls-2" points="72.98 47.7 32.71 225.41 74.96 235.51 72.98 47.7"/>
  <polygon class="cls-2" points="201.43 47.75 242.29 225.46 200.04 235.56 201.43 47.75"/>
  <polygon class="cls-2" points="204.49 238.84 142.1 238.84 137.21 207.21 132.31 238.84 69.93 238.84 72.98 47.7 119.9 47.7 137.33 141.45 154.77 47.7 201.43 47.7 204.49 238.84"/>
  <polygon class="cls-2" points="177.69 66.81 176.08 47.7 155.93 41.42 154.77 47.7 137.33 141.45 177.69 86.16 163.49 66.81 177.69 66.81"/>
  <polygon class="cls-2" points="137.33 141.45 119.9 47.7 118.74 41.42 98.59 47.7 96.98 66.81 111.17 66.81 96.98 86.16 137.33 141.45"/>
  <polygon class="cls-2" points="155.93 41.42 137.07 56.85 118.74 41.42 155.93 41.42"/>
  <polygon class="cls-1" points="143.43 74.47 130.92 74.47 127.17 55.89 147.18 55.89 143.43 74.47"/>
  <polygon class="cls-2" points="155.93 41.42 154.77 47.7 149.79 74.47 137.07 57.14 124.77 73.9 119.9 47.7 118.74 41.42 137.07 56.85 155.93 41.42"/>
  <circle class="cls-2" cx="137.18" cy="160.49" r="3.54"/>
  <circle class="cls-2" cx="137.18" cy="184.48" r="3.54"/>
</svg>