<?xml version="1.0" encoding="UTF-8"?>
<svg id="_레이어_1" data-name="레이어 1" xmlns="http://www.w3.org/2000/svg" viewBox="0 0 275 275">
  <defs>
    <style>
      .cls-1 {
        fill: #474642;
      }

      .cls-2 {
        fill: #f2f4f5;
        stroke: #474642;
        stroke-linecap: round;
        stroke-linejoin: round;
        stroke-width: 1.5px;
      }
    </style>
  </defs>
  <g>
    <polygon class="cls-2" points="149.11 72.17 136.71 138.81 124.22 71.6 136.45 54.92 149.11 72.17"/>
    <polygon class="cls-1" points="142.78 138.81 130.33 138.81 131.58 72.17 141.54 72.17 142.78 138.81"/>
    <polygon class="cls-2" points="70.2 45.29 38.84 222.34 78.39 232.39 70.2 45.29"/>
    <polygon class="cls-2" points="202.97 45.34 236.16 222.39 195.37 232.45 202.97 45.34"/>
    <polygon class="cls-2" points="201.04 235.71 141.45 235.71 136.59 204.23 131.71 235.71 72.14 235.71 70.2 45.29 82.63 45.53 119.37 45.53 136.71 138.81 154.06 45.53 190.53 45.53 202.97 45.29 201.04 235.71"/>
    <path class="cls-2" d="M175.26,45.53l-20.05-6.24-1.16,6.24-17.35,93.28,31.08-57.48c5.92-10.95,8.52-23.39,7.47-35.8h0Z"/>
    <path class="cls-2" d="M119.37,45.53l-1.16-6.24-20.05,6.24h0c-1.05,12.41,1.55,24.85,7.47,35.8l31.08,57.48-17.35-93.28Z"/>
    <polygon class="cls-2" points="155.22 39.29 136.45 54.64 118.21 39.29 155.22 39.29"/>
    <polygon class="cls-1" points="141.54 72.17 131.58 72.17 126.6 53.68 146.51 53.68 141.54 72.17"/>
    <polygon class="cls-2" points="155.22 39.29 154.06 45.53 149.11 72.17 136.45 54.92 124.22 71.6 119.37 45.53 118.21 39.29 136.45 54.64 155.22 39.29"/>
    <circle class="cls-2" cx="136.56" cy="157.76" r="3.53"/>
    <circle class="cls-2" cx="136.56" cy="181.62" r="3.53"/>
  </g>
  <polyline class="cls-2" points="164.77 114.44 164.77 108.48 192.85 108.48 192.85 114.44"/>
  <path class="cls-2" d="M177.82,100.3h10.16v8.18h-18.34c0-4.52,3.67-8.18,8.18-8.18Z"/>
</svg>