<?xml version="1.0" encoding="UTF-8"?>
<svg id="_레이어_1" data-name="레이어 1" xmlns="http://www.w3.org/2000/svg" viewBox="0 0 275 275">
  <defs>
    <style>
      .cls-1, .cls-2, .cls-3 {
        stroke: #474642;
        stroke-linecap: round;
        stroke-linejoin: round;
      }

      .cls-1, .cls-3 {
        fill: #f2f4f5;
      }

      .cls-2 {
        fill: none;
      }

      .cls-2, .cls-3 {
        stroke-width: 1.5px;
      }
    </style>
  </defs>
  <g>
    <path class="cls-1" d="M235.11,182.09v31.48c0,8.69-7.04,15.72-15.71,15.72H55.61c-.64,0-1.29-.04-1.92-.12-7.78-.95-13.81-7.58-13.81-15.61,0-5.65,2.97-10.61,7.43-13.37,2.4-1.51,5.24-2.37,8.28-2.37-3.58,0-6.88-1.2-9.51-3.22-3.77-2.87-6.2-7.4-6.2-12.51v-31.45c0-8.69,7.04-15.74,15.72-15.74h163.78c8.67,0,15.72,7.05,15.72,15.74,0,4.18-1.64,7.99-4.3,10.81-2.87,3.03-6.92,4.91-11.41,4.91,8.67,0,15.71,7.04,15.71,15.71Z"/>
    <g>
      <line class="cls-3" x1="61.79" y1="166.38" x2="213.21" y2="166.38"/>
      <line class="cls-3" x1="213.21" y1="134.92" x2="61.79" y2="134.92"/>
      <path class="cls-3" d="M39.88,166.38v-15.72c0-8.68,7.04-15.72,15.72-15.72h6.18"/>
      <path class="cls-3" d="M213.21,134.93h6.18c8.68,0,15.72,7.04,15.72,15.72h0c0,8.68-7.04,15.72-15.72,15.72h-6.18"/>
      <path class="cls-3" d="M39.88,166.38v15.74c0,8.68,7.04,15.72,15.72,15.72h6.19"/>
      <path class="cls-3" d="M235.12,197.84v-15.74c0-8.68-7.04-15.72-15.72-15.72h-6.19"/>
      <line class="cls-3" x1="61.79" y1="229.3" x2="213.21" y2="229.3"/>
      <path class="cls-3" d="M213.21,229.3h6.19c8.68,0,15.72-7.04,15.72-15.72v-15.74"/>
      <line class="cls-3" x1="213.21" y1="229.3" x2="61.79" y2="229.3"/>
      <line class="cls-3" x1="61.79" y1="197.84" x2="213.21" y2="197.84"/>
      <line class="cls-3" x1="61.79" y1="229.3" x2="213.21" y2="229.3"/>
      <line class="cls-3" x1="213.21" y1="229.3" x2="61.79" y2="229.3"/>
      <path class="cls-2" d="M213.22,229.3H55.61c-8.69,0-15.73-7.04-15.73-15.73h0c0-8.69,7.04-15.73,15.73-15.73h6.18"/>
    </g>
  </g>
  <path class="cls-3" d="M203.49,127.52c-.18,0-.36.04-.54.05V59.2c.18.01.35.05.54.05,4.23,0,7.55-3.87,6.62-8.26-.57-2.69-2.83-4.8-5.54-5.22-3.9-.6-7.26,2.13-7.76,5.77,0,0,0,0,0,0h-118.6s0,0,0,0c-.5-3.64-3.86-6.37-7.76-5.77-2.71.42-4.98,2.53-5.54,5.22-.93,4.39,2.4,8.25,6.62,8.25.18,0,.36-.04.54-.05v68.37c-.18-.01-.35-.05-.54-.05-4.23,0-7.55,3.87-6.62,8.25.57,2.69,2.83,4.8,5.54,5.22,3.9.6,7.26-2.13,7.76-5.77,0,0,0,0,0,0h118.6s0,0,0,0c.5,3.64,3.86,6.37,7.76,5.77,2.71-.42,4.98-2.53,5.54-5.22.93-4.39-2.39-8.26-6.62-8.26Z"/>
</svg>