<?xml version="1.0" encoding="UTF-8"?>
<svg id="_레이어_1" data-name="레이어 1" xmlns="http://www.w3.org/2000/svg" viewBox="0 0 275 275">
  <defs>
    <style>
      .cls-1 {
        fill: #f2f4f5;
        stroke: #474642;
        stroke-linecap: round;
        stroke-linejoin: round;
        stroke-width: 1.5px;
      }
    </style>
  </defs>
  <rect class="cls-1" x="48.46" y="48.46" width="178.07" height="178.07"/>
  <path class="cls-1" d="M117.34,170.98c0-10.36-7.62-18.92-17.55-20.44-1.52-9.93-10.08-17.55-20.44-17.55s-18.92,7.62-20.44,17.55c-9.93,1.52-17.55,10.08-17.55,20.44s7.62,18.92,17.55,20.44c1.52,9.93,10.08,17.55,20.44,17.55s18.92-7.62,20.44-17.55c9.93-1.52,17.55-10.08,17.55-20.44Z"/>
  <g>
    <line class="cls-1" x1="94.08" y1="78.86" x2="94.08" y2="99.75"/>
    <line class="cls-1" x1="104.52" y1="89.3" x2="83.63" y2="89.3"/>
    <line class="cls-1" x1="101.46" y1="81.92" x2="86.69" y2="96.69"/>
    <line class="cls-1" x1="101.46" y1="96.69" x2="86.69" y2="81.92"/>
    <line class="cls-1" x1="104.52" y1="89.3" x2="83.63" y2="89.3"/>
  </g>
  <path class="cls-1" d="M233.63,104.02c0-10.36-7.62-18.92-17.55-20.44-1.52-9.93-10.08-17.55-20.44-17.55s-18.92,7.62-20.44,17.55c-9.93,1.52-17.55,10.08-17.55,20.44s7.62,18.92,17.55,20.44c1.52,9.93,10.08,17.55,20.44,17.55s18.92-7.62,20.44-17.55c9.93-1.52,17.55-10.08,17.55-20.44Z"/>
  <g>
    <line class="cls-1" x1="180.92" y1="175.25" x2="180.92" y2="196.14"/>
    <line class="cls-1" x1="191.37" y1="185.7" x2="170.48" y2="185.7"/>
    <line class="cls-1" x1="188.31" y1="178.31" x2="173.54" y2="193.08"/>
    <line class="cls-1" x1="188.31" y1="193.08" x2="173.54" y2="178.31"/>
    <line class="cls-1" x1="191.37" y1="185.7" x2="170.48" y2="185.7"/>
  </g>
</svg>