<?xml version="1.0" encoding="UTF-8"?>
<svg id="_레이어_1" data-name="레이어 1" xmlns="http://www.w3.org/2000/svg" viewBox="0 0 275 275">
  <defs>
    <style>
      .cls-1 {
        fill: #f2f4f5;
        stroke: #474642;
        stroke-linecap: round;
        stroke-linejoin: round;
        stroke-width: 1.5px;
      }
    </style>
  </defs>
  <polygon class="cls-1" points="75.02 209.35 74.76 183.17 74.5 156.99 74.24 130.13 73.98 103.95 73.71 76.8 73.29 48.67 67.39 75.28 61.54 100.98 55.91 125.75 50.14 151.17 44.5 175.94 38.87 200.71 33.24 225.48 33.24 225.48 75.28 235.53 75.02 209.35"/>
  <polygon class="cls-1" points="236.13 200.71 230.5 175.94 224.86 151.17 219.09 125.75 213.46 100.98 207.61 75.28 201.09 48.67 201.29 76.8 201.02 103.95 200.76 130.13 200.5 156.99 200.24 183.17 199.98 209.35 199.72 235.53 241.76 225.48 241.76 225.48 236.13 200.71"/>
  <rect class="cls-1" x="111.35" y="36.16" width="51.69" height="12.51"/>
  <polygon class="cls-1" points="203.7 211.68 203.7 211.68 203.26 184.52 203.26 184.52 202.83 157.36 202.83 157.36 202.39 130.2 202.39 130.2 201.96 103.04 201.96 103.04 201.53 75.88 201.53 75.88 201.09 48.67 73.29 48.67 72.86 75.88 72.86 75.88 72.42 103.04 72.42 103.04 71.99 130.2 71.99 130.2 71.55 157.36 71.55 157.36 71.12 184.52 71.12 184.52 70.69 211.68 70.68 211.68 70.25 238.84 204.13 238.84 203.7 211.68"/>
  <g>
    <line class="cls-1" x1="134.97" y1="36.16" x2="134.97" y2="238.84"/>
    <line class="cls-1" x1="139.41" y1="36.16" x2="139.41" y2="238.84"/>
  </g>
  <line class="cls-1" x1="79.25" y1="212.16" x2="102.39" y2="189.03"/>
  <line class="cls-1" x1="195.75" y1="212.16" x2="172.61" y2="189.03"/>
  <line class="cls-1" x1="72.17" y1="133.45" x2="202.22" y2="133.45"/>
</svg>