<?xml version="1.0" encoding="UTF-8"?>
<svg id="_레이어_1" data-name="레이어 1" xmlns="http://www.w3.org/2000/svg" viewBox="0 0 275 275">
  <defs>
    <style>
      .cls-1 {
        fill: #f2f4f5;
        stroke: #474642;
        stroke-linecap: round;
        stroke-linejoin: round;
        stroke-width: 1.5px;
      }
    </style>
  </defs>
  <polygon class="cls-1" points="73.44 35.74 33.24 212.55 75.28 222.6 73.44 35.74"/>
  <polygon class="cls-1" points="201.24 35.74 241.76 212.6 199.72 222.66 201.24 35.74"/>
  <polygon class="cls-1" points="204.28 249.49 70.39 249.49 70.91 221.55 73.44 35.74 98.78 35.74 97.19 54.76 111.3 54.76 97.19 74.01 128.02 100.67 137.34 108.73 162.48 130.46 146.66 100.67 177.49 74.01 163.37 54.76 177.49 54.76 175.88 35.74 201.24 35.74 201.42 49.55 201.42 49.63 203.77 221.69 204.28 249.49"/>
  <polygon class="cls-1" points="163.37 54.76 177.49 74.01 146.66 100.67 137.33 83.11 162.48 35.74 165.78 29.5 175.88 35.74 177.49 54.76 163.37 54.76"/>
  <polygon class="cls-1" points="162.48 130.46 137.34 108.73 128.02 100.67 97.19 74.01 111.3 54.76 97.19 54.76 98.78 35.74 108.88 29.5 112.19 35.74 137.33 83.11 146.66 100.67 162.48 130.46"/>
  <line class="cls-1" x1="162.47" y1="130.46" x2="162.47" y2="249.5"/>
  <polygon class="cls-1" points="165.78 29.5 162.48 35.74 137.33 83.11 112.19 35.74 108.88 29.5 165.78 29.5"/>
  <circle class="cls-1" cx="151.79" cy="139.67" r="3.53"/>
  <circle class="cls-1" cx="151.79" cy="171.5" r="3.53"/>
  <circle class="cls-1" cx="151.79" cy="203.32" r="3.53"/>
</svg>