<?xml version="1.0" encoding="UTF-8"?>
<svg id="_레이어_1" data-name="레이어 1" xmlns="http://www.w3.org/2000/svg" viewBox="0 0 275 275">
  <defs>
    <style>
      .cls-1 {
        fill: #f2f4f5;
        stroke: #474642;
        stroke-linecap: round;
        stroke-linejoin: round;
        stroke-width: 1.5px;
      }
    </style>
  </defs>
  <polygon class="cls-1" points="226.13 122.65 48.87 122.65 56.15 56.21 218.85 56.21 226.13 122.65"/>
  <polygon class="cls-1" points="145.66 207.4 145.66 122.65 214.04 122.65 218.42 207.4 145.66 207.4"/>
  <g>
    <line class="cls-1" x1="145.66" y1="207.4" x2="145.66" y2="219.79"/>
    <line class="cls-1" x1="150.21" y1="207.4" x2="150.21" y2="219.79"/>
    <line class="cls-1" x1="154.75" y1="207.4" x2="154.75" y2="219.79"/>
    <line class="cls-1" x1="159.3" y1="207.4" x2="159.3" y2="219.79"/>
    <line class="cls-1" x1="163.85" y1="207.4" x2="163.85" y2="219.79"/>
    <line class="cls-1" x1="168.4" y1="207.4" x2="168.4" y2="219.79"/>
    <line class="cls-1" x1="172.94" y1="207.4" x2="172.94" y2="219.79"/>
    <line class="cls-1" x1="177.49" y1="207.4" x2="177.49" y2="219.79"/>
    <line class="cls-1" x1="182.04" y1="207.4" x2="182.04" y2="219.79"/>
    <line class="cls-1" x1="186.58" y1="207.4" x2="186.58" y2="219.79"/>
    <line class="cls-1" x1="191.13" y1="207.4" x2="191.13" y2="219.79"/>
    <line class="cls-1" x1="195.68" y1="207.4" x2="195.68" y2="219.79"/>
    <line class="cls-1" x1="200.23" y1="207.4" x2="200.23" y2="219.79"/>
    <line class="cls-1" x1="204.77" y1="207.4" x2="204.77" y2="219.79"/>
    <line class="cls-1" x1="209.32" y1="207.4" x2="209.32" y2="219.79"/>
    <line class="cls-1" x1="213.87" y1="207.4" x2="213.87" y2="219.79"/>
    <line class="cls-1" x1="218.42" y1="207.4" x2="218.42" y2="219.79"/>
  </g>
</svg>