<?xml version="1.0" encoding="UTF-8"?>
<svg id="_레이어_1" data-name="레이어 1" xmlns="http://www.w3.org/2000/svg" viewBox="0 0 275 275">
  <defs>
    <style>
      .cls-1, .cls-2 {
        fill: #f2f4f5;
      }

      .cls-3 {
        fill: none;
      }

      .cls-3, .cls-2 {
        stroke: #474642;
        stroke-linecap: round;
        stroke-linejoin: round;
        stroke-width: 1.5px;
      }
    </style>
  </defs>
  <g>
    <polygon class="cls-1" points="207.67 98.16 207.67 98.16 207.67 98.16 138.11 75.29 131.41 88.18 81.75 72.28 66.13 72.28 57.54 127.33 57.54 148.55 246.48 148.55 246.48 127.33 246.48 110.91 207.67 98.16"/>
    <g>
      <polyline class="cls-3" points="81.75 72.28 66.13 72.28 57.54 127.33 246.48 127.33 246.48 110.91 138.11 75.29"/>
      <rect class="cls-3" x="57.54" y="127.33" width="188.94" height="21.22"/>
      <line class="cls-3" x1="66.13" y1="72.28" x2="111.88" y2="127.33"/>
      <polyline class="cls-3" points="207.67 98.16 200.78 111.41 201.36 127.33"/>
    </g>
    <line class="cls-2" x1="81.75" y1="72.28" x2="200.78" y2="111.41"/>
    <g>
      <line class="cls-2" x1="207.67" y1="98.16" x2="200.78" y2="111.41"/>
      <line class="cls-2" x1="199.94" y1="95.62" x2="193.07" y2="108.83"/>
      <line class="cls-2" x1="192.21" y1="93.08" x2="185.36" y2="106.25"/>
      <line class="cls-2" x1="184.48" y1="90.54" x2="177.65" y2="103.67"/>
      <line class="cls-2" x1="176.75" y1="87.99" x2="169.95" y2="101.08"/>
      <line class="cls-2" x1="169.02" y1="85.45" x2="162.24" y2="98.5"/>
      <line class="cls-2" x1="161.29" y1="82.91" x2="154.53" y2="95.92"/>
      <line class="cls-2" x1="153.57" y1="80.37" x2="146.82" y2="93.34"/>
      <line class="cls-2" x1="145.84" y1="77.83" x2="139.12" y2="90.76"/>
      <line class="cls-2" x1="138.11" y1="75.29" x2="131.41" y2="88.18"/>
    </g>
  </g>
  <g>
    <g>
      <polyline class="cls-2" points="56.73 127.45 41.11 127.45 32.52 182.49 221.46 182.49 221.46 166.08 113.09 130.46"/>
      <rect class="cls-2" x="32.52" y="182.49" width="188.94" height="21.22"/>
      <line class="cls-2" x1="41.11" y1="127.45" x2="86.86" y2="182.49"/>
      <polyline class="cls-2" points="182.65 153.32 175.76 166.57 176.34 182.49"/>
    </g>
    <line class="cls-2" x1="56.73" y1="127.45" x2="175.76" y2="166.57"/>
    <g>
      <line class="cls-2" x1="182.65" y1="153.32" x2="175.76" y2="166.57"/>
      <line class="cls-2" x1="173.95" y1="150.47" x2="167.09" y2="163.67"/>
      <line class="cls-2" x1="165.26" y1="147.61" x2="158.42" y2="160.77"/>
      <line class="cls-2" x1="156.56" y1="144.75" x2="149.75" y2="157.86"/>
      <line class="cls-2" x1="147.87" y1="141.89" x2="141.07" y2="154.96"/>
      <line class="cls-2" x1="139.17" y1="139.03" x2="132.4" y2="152.06"/>
      <line class="cls-2" x1="130.48" y1="136.18" x2="123.73" y2="149.16"/>
      <line class="cls-2" x1="121.79" y1="133.32" x2="115.06" y2="146.25"/>
      <line class="cls-2" x1="113.09" y1="130.46" x2="106.39" y2="143.35"/>
    </g>
  </g>
</svg>