<?xml version="1.0" encoding="UTF-8"?>
<svg id="_레이어_1" data-name="레이어 1" xmlns="http://www.w3.org/2000/svg" viewBox="0 0 275 275">
  <defs>
    <style>
      .cls-1 {
        fill: #f2f4f5;
        stroke: #474642;
        stroke-linecap: round;
        stroke-linejoin: round;
        stroke-width: 1.5px;
      }
    </style>
  </defs>
  <path class="cls-1" d="M146.05,72.68h-17.09c-38.23,0-69.23,30.99-69.23,69.23v36.07h23.77c15.02-5.23,33.21-9.13,54-9.13s38.99,3.9,54.02,9.13h23.75v-36.07c0-38.24-30.99-69.23-69.22-69.23Z"/>
  <path class="cls-1" d="M137.5,68.14c-4.63,0-8.39,2.03-8.39,4.54h16.77c0-2.51-3.75-4.54-8.39-4.54Z"/>
  <path class="cls-1" d="M225.95,189.44c-.81,1.39-2.27,2.17-3.76,2.17-.74,0-1.49-.19-2.17-.59-7.53-4.36-17.12-9.07-28.52-13.03-15.02-5.23-33.21-9.13-54.02-9.13s-38.98,3.9-54,9.13c-11.4,3.96-20.98,8.67-28.52,13.03-2.08,1.2-4.72.49-5.92-1.57-1.2-2.07-.49-4.72,1.58-5.92,3.13-1.81,6.6-3.68,10.39-5.53,18.46-9.07,44.55-17.8,76.48-17.8s58.05,8.74,76.5,17.8c3.78,1.86,7.25,3.73,10.37,5.53,2.08,1.2,2.79,3.86,1.59,5.92Z"/>
  <path class="cls-1" d="M224.36,183.52c-18.38-10.65-48.38-23.33-86.87-23.33s-68.48,12.68-86.87,23.33l6.82-7.15c9.08-9.52,20.2-16.85,32.56-21.36,13.03-4.75,29.04-8.4,47.49-8.4s34.46,3.65,47.49,8.4c12.37,4.51,23.5,11.86,32.58,21.39l6.79,7.13Z"/>
</svg>