<?xml version="1.0" encoding="UTF-8"?>
<svg id="_레이어_1" data-name="레이어 1" xmlns="http://www.w3.org/2000/svg" viewBox="0 0 275 275">
  <defs>
    <style>
      .cls-1 {
        fill: #f2f4f5;
        stroke: #474642;
        stroke-linecap: round;
        stroke-linejoin: round;
        stroke-width: 1.5px;
      }
    </style>
  </defs>
  <rect class="cls-1" x="48.46" y="48.46" width="178.07" height="178.07"/>
  <g>
    <g>
      <g>
        <line class="cls-1" x1="76.92" y1="75.17" x2="125.93" y2="124.18"/>
        <line class="cls-1" x1="101.42" y1="65.02" x2="101.42" y2="134.33"/>
        <line class="cls-1" x1="125.93" y1="75.17" x2="76.92" y2="124.18"/>
        <line class="cls-1" x1="136.08" y1="99.68" x2="66.77" y2="99.68"/>
      </g>
      <circle class="cls-1" cx="125.93" cy="124.18" r="4.82"/>
      <circle class="cls-1" cx="76.92" cy="75.17" r="4.82"/>
      <circle class="cls-1" cx="76.92" cy="124.18" r="4.82"/>
      <circle class="cls-1" cx="125.93" cy="75.17" r="4.82"/>
      <circle class="cls-1" cx="66.66" cy="99.79" r="4.82"/>
      <circle class="cls-1" cx="101.42" cy="64.8" r="4.82"/>
      <circle class="cls-1" cx="101.31" cy="134.44" r="4.82"/>
      <circle class="cls-1" cx="136.08" cy="99.46" r="4.82"/>
      <ellipse class="cls-1" cx="101.13" cy="99.47" rx="24.58" ry="24.15" transform="translate(-40.72 100.64) rotate(-45)"/>
      <g>
        <circle class="cls-1" cx="88.63" cy="99.47" r="7.59"/>
        <circle class="cls-1" cx="113.62" cy="99.47" r="7.59"/>
      </g>
    </g>
    <g>
      <g>
        <line class="cls-1" x1="149.19" y1="150.93" x2="198.19" y2="199.94"/>
        <line class="cls-1" x1="173.69" y1="140.78" x2="173.69" y2="210.09"/>
        <line class="cls-1" x1="198.19" y1="150.93" x2="149.19" y2="199.94"/>
        <line class="cls-1" x1="208.34" y1="175.43" x2="139.04" y2="175.43"/>
      </g>
      <circle class="cls-1" cx="198.19" cy="199.94" r="4.82"/>
      <circle class="cls-1" cx="149.19" cy="150.93" r="4.82"/>
      <circle class="cls-1" cx="149.19" cy="199.94" r="4.82"/>
      <circle class="cls-1" cx="198.19" cy="150.93" r="4.82"/>
      <circle class="cls-1" cx="138.92" cy="175.54" r="4.82"/>
      <circle class="cls-1" cx="173.69" cy="140.56" r="4.82"/>
      <circle class="cls-1" cx="173.58" cy="210.2" r="4.82"/>
      <circle class="cls-1" cx="208.34" cy="175.21" r="4.82"/>
      <ellipse class="cls-1" cx="173.4" cy="175.22" rx="24.58" ry="24.15" transform="translate(-73.11 173.93) rotate(-45)"/>
      <g>
        <circle class="cls-1" cx="160.9" cy="175.22" r="7.59"/>
        <circle class="cls-1" cx="185.89" cy="175.22" r="7.59"/>
      </g>
    </g>
  </g>
</svg>