<?xml version="1.0" encoding="UTF-8"?>
<svg id="_레이어_1" data-name="레이어 1" xmlns="http://www.w3.org/2000/svg" viewBox="0 0 55.23 50.96">
  <defs>
    <style>
      .cls-1 {
        fill: #474642;
      }
    </style>
  </defs>
  <polygon class="cls-1" points="21.77 19.24 20.18 23.76 23.36 23.76 23.36 23.76 21.77 19.24"/>
  <path class="cls-1" d="M27.61,0h0C12.36,0,0,9.75,0,21.77c0,7.77,5.17,14.59,12.94,18.45-.42,1.46-2.72,9.38-2.81,10.01,0,0-.05.47.25.65.3.18.66.04.66.04.87-.12,10.07-6.59,11.67-7.71,1.59.23,3.23.34,4.9.34,15.25,0,27.61-9.75,27.61-21.77S42.86,0,27.61,0ZM13.94,27.85c0,.84-.71,1.52-1.59,1.52s-1.59-.68-1.59-1.52v-9.46h-2.49c-.86,0-1.56-.7-1.56-1.56s.7-1.56,1.56-1.56h8.16c.86,0,1.56.7,1.56,1.56s-.7,1.56-1.56,1.56h-2.49v9.46ZM27.33,29.13c-.32.14-.66.22-1.01.22h0c-.66,0-1.17-.27-1.33-.7l-.79-2.07h-4.86s-.79,2.07-.79,2.07c-.15.43-.66.7-1.32.7-.35,0-.69-.07-1.01-.22-.44-.2-.86-.76-.38-2.26l3.81-10.03c.27-.76,1.08-1.55,2.12-1.57,1.04.02,1.86.81,2.12,1.57l3.81,10.03c.48,1.51.06,2.06-.38,2.27ZM35.38,29.14h-5.11c-.84,0-1.53-.66-1.53-1.46v-10.82c0-.88.73-1.59,1.63-1.59s1.63.71,1.63,1.59v9.36h3.39c.84,0,1.53.66,1.53,1.46s-.68,1.46-1.53,1.46ZM47.85,27.94c-.06.42-.28.8-.62,1.05-.28.21-.61.32-.96.32-.5,0-.97-.23-1.27-.63l-3.74-4.95-.55.55v3.48c0,.88-.71,1.59-1.59,1.59h0c-.88,0-1.59-.71-1.59-1.59v-10.9c0-.88.71-1.59,1.59-1.59s1.59.71,1.59,1.59v3.42l4.44-4.44c.23-.23.54-.35.88-.35.4,0,.8.17,1.1.47.28.28.45.64.47,1.01.02.38-.1.72-.35.97l-3.63,3.63,3.92,5.19c.26.34.37.76.31,1.18Z"/>
</svg>