<?xml version="1.0" encoding="UTF-8"?>
<svg id="_레이어_10" data-name="레이어 10" xmlns="http://www.w3.org/2000/svg" viewBox="0 0 1229.47 122">
  <defs>
    <style>
      .cls-1 {
        fill: #f2f4f5;
        stroke: #474642;
        stroke-miterlimit: 10;
        stroke-width: 1.5px;
      }
    </style>
  </defs>
  <g>
    <path class="cls-1" d="M114.15,1.01c-33.1,0-60.01,26.91-60.01,59.99,0,33.07,26.91,60,60.01,60,33.07,0,59.99-26.93,59.99-60,0-33.08-26.91-59.99-59.99-59.99ZM151.51,43.54c-.7.21-1.37.48-2.03.77-6.09,3.09-10.28,9.4-10.28,16.7,0,7.3,4.18,13.61,10.27,16.7.66.29,1.34.56,2.04.77-.02.03-.03.06-.05.1.34.13.68.25,1.04.36-6.64,13.61-20.58,23-36.75,23-22.6,0-40.93-18.33-40.93-40.92,0-22.61,18.33-40.93,40.93-40.93,16.17,0,30.1,9.4,36.75,23.01-.35.11-.69.23-1.03.36.02.03.03.06.05.09Z"/>
    <path class="cls-1" d="M281.58,1.01c-33.1,0-60.01,26.91-60.01,59.99,0,33.07,26.91,60,60.01,60,33.07,0,59.99-26.93,59.99-60,0-33.08-26.91-59.99-59.99-59.99ZM318.94,43.54c-.7.21-1.37.48-2.03.77-6.09,3.09-10.28,9.4-10.28,16.7s4.18,13.61,10.27,16.7c.66.29,1.34.56,2.04.77-.02.03-.03.06-.05.1.34.13.68.25,1.04.36-6.64,13.61-20.58,23-36.76,23-22.6,0-40.92-18.33-40.92-40.92,0-22.61,18.33-40.93,40.92-40.93,16.17,0,30.11,9.4,36.76,23.01-.35.11-.69.23-1.03.36.02.03.03.06.05.09Z"/>
    <path class="cls-1" d="M47.57,83.83c-.37-5.99-2.7-10.61-7.48-14.21,0,0,1.32-1.25,1.73-1.69,3.25-3.49,4.39-8.33,4.67-12.99.49-8.28.49-19.82,0-28.1-.82-13.87-7.99-23.43-22.08-23.95-7-.26-23.41-.28-23.41-.28v113.89c1.45.75,3.38,1.06,5.04,1.39,15.25,3.04,40.24,3.39,41.54-17.43.3-4.82.3-11.8,0-16.62ZM18.66,19.75s4.66-.21,6.66.69c3.04,1.37,3.85,6.02,4.05,9.06.43,6.45.43,16.31-.01,22.76-.5,7.26-3.04,10.36-10.7,9.77V19.75ZM29.5,99.24c-1.8,4.12-7.17,3.43-10.84,3.21v-24.36s3.71,0,4.95,0c2.53,0,4.63,1.57,5.59,3.24,1.75,3.06,1.71,14.68.3,17.9Z"/>
    <path class="cls-1" d="M374.2,2.89c-7.12-.26-23.81-.29-23.81-.29v116.79s17.96,0,17.96,0V20.04s4.57-.55,6.78.71c3.42,1.95,3.91,6.12,4.12,9.22.37,5.52.43,66.62.17,89.43h17.23s0-92.14,0-92.14c-.84-14.1-8.12-23.82-22.45-24.36Z"/>
    <path class="cls-1" d="M216.29,3.6l-1.87,17.85c-6.08-2.68-17.01-4.53-19.16,4-3.87,15.44,13.22,33.41,18.74,47.21,5.22,13.03,6.59,34.95-6.38,43.99-8.22,5.74-21.81,4.49-30.97,1.81l1.2-17.91c7.5,2.14,19.16,5.5,21.27-5.13,3.36-16.88-12.77-32.15-18.7-46.62-4.78-11.68-6.33-27.8,1.64-38.44C190.03-.25,204.72-.18,216.29,3.6Z"/>
    <path class="cls-1" d="M524.25,62.15v.1c0,.17,0,.33,0,.49-.09,7.66-1.64,14.01-4.37,20.73-3.05,7.52-7.58,14.28-13.22,19.93-5.65,5.65-12.42,10.18-19.93,13.23-6.95,2.82-14.54,4.37-22.47,4.37h0c-7.94,0-15.53-1.56-22.48-4.37-7.51-3.05-14.28-7.58-19.93-13.23-5.64-5.65-10.17-12.41-13.22-19.93-2.82-6.94-4.38-14.54-4.38-22.47h0c0-7.95,1.56-15.54,4.37-22.48,3.05-7.52,7.58-14.28,13.23-19.93,2.83-2.83,5.93-5.37,9.27-7.59,3.34-2.21,6.91-4.11,10.66-5.63,6.95-2.81,14.53-4.37,22.48-4.37h0c7.94,0,15.52,1.55,22.47,4.37,7.51,3.05,14.28,7.57,19.93,13.23l-13.55,13.55c-7.39-7.45-17.63-12.07-28.97-12.07-22.6,0-40.92,18.32-40.92,40.93,0,22.6,18.33,40.92,40.92,40.92,16.17,0,30.12-9.38,36.76-23-.29-.09-.58-.18-.87-.29.04-.07.07-.14.1-.2-3.51-1.23-6.53-3.5-8.69-6.45-2.2-3-3.49-6.7-3.49-10.71,0-.09,0-.19,0-.28.06-4.28,1.6-8.18,4.13-11.25,2.14-2.59,4.99-4.59,8.26-5.68,1.81-.61,3.75-.94,5.76-.94.69,0,1.39.04,2.07.12,10.24,1.16,15.96,10.68,16.08,18.72,0,.06,0,.12,0,.18Z"/>
  </g>
  <g>
    <path class="cls-1" d="M626.4,1c-33.1,0-60.01,26.91-60.01,59.99,0,33.07,26.91,60,60.01,60,33.07,0,59.99-26.93,59.99-60,0-33.08-26.91-59.99-59.99-59.99ZM663.75,43.53c-.7.21-1.37.48-2.03.77-6.09,3.09-10.28,9.4-10.28,16.7,0,7.3,4.18,13.61,10.27,16.7.66.29,1.34.56,2.04.77-.02.03-.03.06-.05.1.34.13.68.25,1.04.36-6.64,13.61-20.58,23-36.76,23-22.6,0-40.92-18.33-40.92-40.92,0-22.61,18.33-40.93,40.92-40.93,16.17,0,30.11,9.4,36.76,23.01-.35.11-.69.23-1.03.36.02.03.03.06.05.09Z"/>
    <path class="cls-1" d="M756.58,61c0-2.47.22-4.9.64-7.25-.12.58-.21,1.17-.29,1.76-.01.09-.03.17-.04.25-.01.09-.03.17-.04.25,0,.09-.01.18-.03.26-.04.34-.07.68-.11,1.02-.04.5-.09.99-.11,1.49,0,.04,0,.08,0,.12,0,.15,0,.29-.01.45,0,.11,0,.23-.01.34,0,.12,0,.23,0,.34,0,.23-.01.46-.01.69,0,.1,0,.18,0,.28,0,.06,0,.12,0,.18,0,.26,0,.53.01.8,0,.12,0,.23,0,.35,0,.11.01.23.01.34,0,.15.01.29.01.44,0,.04,0,.08,0,.12.03.5.07.99.11,1.48.04.34.07.68.11,1.02.02.21.06.42.09.62.1.81.23,1.61.39,2.4.06.31.12.62.2.93.11.5.23.99.36,1.48-.83-3.24-1.26-6.64-1.26-10.14ZM757.22,53.75c.12-.67.26-1.34.41-2-.16.66-.3,1.32-.41,2ZM825.62,90.69c-7.32,6.96-17.2,11.23-28.11,11.23-18.23,0-33.69-11.93-38.97-28.41-.04-.12-.08-.23-.11-.34-.08-.26-.16-.51-.23-.77-.12-.42-.24-.83-.35-1.26-.83-3.24-1.26-6.64-1.26-10.14,0-2.47.22-4.9.64-7.25.12-.67.26-1.34.41-2,.08-.37.18-.72.27-1.09.12-.46.25-.91.38-1.37.14-.46.28-.92.44-1.38.09-.27.19-.54.29-.81,5.69-15.77,20.78-27.04,38.5-27.04,10.9,0,20.79,4.27,28.11,11.22l12.7-12.7c-.34-.34-.68-.68-1.02-1.01-.34-.34-.69-.66-1.05-.98-1.07-.96-2.17-1.9-3.3-2.79-.38-.29-.76-.59-1.15-.88-.38-.28-.77-.57-1.16-.85-.39-.29-.79-.56-1.19-.83-.39-.27-.8-.53-1.21-.8-.4-.26-.81-.51-1.23-.77-.41-.25-.83-.5-1.24-.74-.42-.24-.84-.47-1.27-.71-1.27-.69-2.57-1.34-3.9-1.94-.45-.2-.89-.39-1.34-.58-.39-.17-.8-.33-1.2-.5-.12-.05-.25-.1-.37-.14-.38-.15-.77-.3-1.15-.44-.42-.15-.86-.31-1.29-.45-.07-.03-.12-.05-.19-.07-.43-.15-.87-.29-1.31-.42-.47-.15-.94-.29-1.41-.42-3.33-.94-6.76-1.61-10.28-1.97-2.02-.2-4.06-.31-6.12-.31-2.07,0-4.11.1-6.12.31-3.53.37-6.96,1.03-10.29,1.97-.47.13-.94.28-1.42.42-.43.13-.86.28-1.29.42-.07.02-.14.04-.21.07-.37.12-.74.26-1.1.39-.1.03-.21.07-.31.11-.32.12-.64.24-.96.37-.15.05-.29.11-.43.18-.35.13-.69.28-1.04.42-.07.02-.14.05-.21.09-.34.15-.69.3-1.04.45-.17.07-.34.15-.5.23-.36.17-.71.34-1.06.5-.44.21-.88.42-1.31.65-.34.17-.67.34-1,.53-.03,0-.07.03-.09.05-.12.06-.25.13-.37.2-.23.12-.46.26-.69.38-.23.13-.47.26-.69.4-.15.09-.3.18-.45.26-.07.04-.13.08-.2.12-.37.21-.72.43-1.08.67-.15.09-.3.18-.45.28-.49.31-.96.63-1.44.96-.48.33-.96.67-1.43,1.01-.06.04-.12.08-.18.13-.43.31-.85.63-1.27.95-.95.73-1.88,1.49-2.78,2.28-.19.17-.37.33-.56.5-.36.31-.71.64-1.06.97-.01,0-.03.02-.04.03-.45.42-.88.85-1.32,1.28h-.01s-.05.07-.05.07c-.32.32-.64.65-.96.99-.1.11-.21.23-.32.34-.22.23-.44.47-.66.71-.32.36-.64.72-.96,1.08-.04.04-.07.08-.1.12h0c-.24.28-.48.57-.72.85h0s-.07.07-.09.12c-.09.11-.18.22-.26.33-.2.23-.38.46-.56.7-.03.03-.05.07-.08.1-.15.2-.31.4-.46.6-.15.18-.28.36-.42.54-.07.09-.14.18-.2.27-.15.2-.3.41-.45.61-.29.4-.58.81-.86,1.22-.17.25-.34.49-.5.74-.17.26-.33.5-.5.76-.23.37-.47.74-.69,1.11-.44.72-.86,1.45-1.27,2.2-.18.31-.34.61-.5.93-.01.02-.02.04-.04.07,0,.02-.02.04-.03.06-.23.42-.45.86-.66,1.29-.23.45-.45.91-.66,1.36-.2.42-.39.84-.58,1.26-.02.06-.05.12-.07.18-.19.45-.38.89-.56,1.34-.18.44-.34.87-.51,1.31-.17.44-.33.88-.48,1.32-.02.05-.03.1-.05.14-.29.84-.58,1.69-.83,2.55-.28.9-.53,1.8-.75,2.72,0,0,0,.02,0,.03,0,.02,0,.04-.01.06-.14.56-.26,1.12-.39,1.68-.51,2.33-.88,4.72-1.1,7.15-.05.56-.09,1.11-.12,1.67,0,.09-.01.18-.02.26-.03.58-.06,1.15-.07,1.73-.03.62-.04,1.24-.04,1.86s0,1.24.04,1.86c.01.58.04,1.17.07,1.75,0,.07.01.13.01.2.04.57.08,1.14.13,1.71.22,2.43.58,4.81,1.1,7.14.12.58.26,1.16.4,1.74.23.92.48,1.83.75,2.73,0,0,0,0,0,.01,0,0,0,.01,0,.02.27.9.56,1.78.87,2.66,0,0,0,.01,0,.02,0,0,0,.01,0,.02.13.37.26.74.4,1.11.19.5.38,1,.58,1.5.18.45.37.9.56,1.34.02.06.05.12.07.18.19.42.38.84.58,1.26.21.46.43.91.66,1.37.21.43.43.86.66,1.29,0,.02.02.04.03.06.01.02.02.04.04.07.16.31.33.62.5.93.72,1.32,1.51,2.61,2.33,3.87.61.94,1.25,1.86,1.91,2.76.23.31.46.61.69.91.2.26.39.51.6.77.03.04.06.08.09.12h0c.04.06.09.12.14.18.42.53.86,1.04,1.29,1.55.24.28.49.56.74.84.25.28.5.56.76.83.26.27.51.54.77.81.26.27.53.54.79.8,1.58,1.59,3.26,3.09,5.03,4.49,1.75,1.41,3.6,2.72,5.5,3.91.4.26.81.5,1.22.75.04.02.09.05.13.08.41.24.82.47,1.24.71.33.18.66.37.99.55.99.54,2.01,1.05,3.04,1.52.46.22.91.42,1.38.63.47.2.94.39,1.4.58,1.73.72,3.51,1.34,5.32,1.87,1.36.42,2.74.77,4.14,1.07,2.79.63,5.66,1.05,8.59,1.26.96.07,1.92.12,2.89.15.02,0,.04,0,.06,0,.5.01.99.02,1.49.02s.99,0,1.49-.02c.02,0,.04,0,.06,0,.96-.02,1.93-.07,2.89-.15,1.41-.1,2.81-.25,4.19-.46.07,0,.15-.01.21-.03.45-.07.91-.14,1.35-.21.47-.09.95-.17,1.42-.26.37-.07.74-.15,1.1-.23.58-.13,1.15-.26,1.72-.4.45-.12.89-.23,1.34-.35h.01c.45-.13.91-.26,1.36-.39.45-.13.9-.28,1.35-.42.9-.29,1.78-.59,2.66-.94.44-.16.88-.34,1.31-.51.47-.19.94-.39,1.4-.58.47-.2.93-.41,1.39-.63.45-.21.91-.43,1.36-.65.45-.23.91-.46,1.34-.69.41-.22.82-.44,1.23-.66.05-.03.11-.07.17-.1.38-.22.76-.44,1.14-.67.03-.01.07-.03.1-.05.02-.01.05-.03.07-.04.4-.24.8-.49,1.2-.74.08-.04.15-.1.23-.15.94-.58,1.85-1.2,2.75-1.85.52-.37,1.03-.75,1.54-1.14.35-.26.69-.53,1.04-.82.07-.05.14-.1.21-.17.4-.32.8-.65,1.19-.99.43-.37.85-.74,1.27-1.11.79-.71,1.56-1.44,2.31-2.19l-12.7-12.7Z"/>
    <path class="cls-1" d="M950.62,1c-33.1,0-60.01,26.91-60.01,59.99,0,33.07,26.91,60,60.01,60,33.07,0,59.99-26.93,59.99-60,0-33.08-26.91-59.99-59.99-59.99ZM987.97,43.53c-.7.21-1.37.48-2.03.77-6.09,3.09-10.28,9.4-10.28,16.7,0,7.3,4.18,13.61,10.27,16.7.66.29,1.34.56,2.04.77-.02.03-.03.06-.05.1.34.13.68.25,1.04.36-6.64,13.61-20.58,23-36.76,23-22.6,0-40.92-18.33-40.92-40.92,0-22.61,18.33-40.93,40.92-40.93,16.17,0,30.11,9.4,36.76,23.01-.35.11-.69.23-1.03.36.02.03.03.06.05.09ZM114.15,1.01c-33.1,0-60.01,26.91-60.01,59.99,0,33.07,26.91,60,60.01,60,33.07,0,59.99-26.93,59.99-60,0-33.08-26.91-59.99-59.99-59.99ZM151.51,43.54c-.7.21-1.37.48-2.03.77-6.09,3.09-10.28,9.4-10.28,16.7,0,7.3,4.18,13.61,10.27,16.7.66.29,1.34.56,2.04.77-.02.03-.03.06-.05.1.34.13.68.25,1.04.36-6.64,13.61-20.58,23-36.75,23-22.6,0-40.93-18.33-40.93-40.92,0-22.61,18.33-40.93,40.93-40.93,16.17,0,30.1,9.4,36.75,23.01-.35.11-.69.23-1.03.36.02.03.03.06.05.09ZM281.58,1.01c-33.1,0-60.01,26.91-60.01,59.99,0,33.07,26.91,60,60.01,60,33.07,0,59.99-26.93,59.99-60,0-33.08-26.91-59.99-59.99-59.99ZM318.94,43.54c-.7.21-1.37.48-2.03.77-6.09,3.09-10.28,9.4-10.28,16.7s4.18,13.61,10.27,16.7c.66.29,1.34.56,2.04.77-.02.03-.03.06-.05.1.34.13.68.25,1.04.36-6.64,13.61-20.58,23-36.76,23-22.6,0-40.92-18.33-40.92-40.92,0-22.61,18.33-40.93,40.92-40.93,16.17,0,30.11,9.4,36.76,23.01-.35.11-.69.23-1.03.36.02.03.03.06.05.09ZM47.57,83.83c-.37-5.99-2.7-10.61-7.48-14.21,0,0,1.32-1.25,1.73-1.69,3.25-3.49,4.39-8.33,4.67-12.99.49-8.28.49-19.82,0-28.1-.82-13.87-7.99-23.43-22.08-23.95-7-.26-23.41-.28-23.41-.28v113.89c1.45.75,3.38,1.06,5.04,1.39,15.25,3.04,40.24,3.39,41.54-17.43.3-4.82.3-11.8,0-16.62ZM18.66,19.75s4.66-.21,6.66.69c3.04,1.37,3.85,6.02,4.05,9.06.43,6.45.43,16.31-.01,22.76-.5,7.26-3.04,10.36-10.7,9.77V19.75ZM29.5,99.24c-1.8,4.12-7.17,3.43-10.84,3.21v-24.36s3.71,0,4.95,0c2.53,0,4.63,1.57,5.59,3.24,1.75,3.06,1.71,14.68.3,17.9ZM374.2,2.89c-7.12-.26-23.81-.29-23.81-.29v116.79s17.96,0,17.96,0V20.04s4.57-.55,6.78.71c3.42,1.95,3.91,6.12,4.12,9.22.37,5.52.43,66.62.17,89.43h17.23s0-92.14,0-92.14c-.84-14.1-8.12-23.82-22.45-24.36ZM216.29,3.6l-1.87,17.85c-6.08-2.68-17.01-4.53-19.16,4-3.87,15.44,13.22,33.41,18.74,47.21,5.22,13.03,6.59,34.95-6.38,43.99-8.22,5.74-21.81,4.49-30.97,1.81l1.2-17.91c7.5,2.14,19.16,5.5,21.27-5.13,3.36-16.88-12.77-32.15-18.7-46.62-4.78-11.68-6.33-27.8,1.64-38.44C190.03-.25,204.72-.18,216.29,3.6ZM524.25,62.15v.1c0,.17,0,.33,0,.49-.09,7.66-1.64,14.01-4.37,20.73-3.05,7.52-7.58,14.28-13.22,19.93-5.65,5.65-12.42,10.18-19.93,13.23-6.95,2.82-14.54,4.37-22.47,4.37h0c-7.94,0-15.53-1.56-22.48-4.37-7.51-3.05-14.28-7.58-19.93-13.23-5.64-5.65-10.17-12.41-13.22-19.93-2.82-6.94-4.38-14.54-4.38-22.47h0c0-7.95,1.56-15.54,4.37-22.48,3.05-7.52,7.58-14.28,13.23-19.93,2.83-2.83,5.93-5.37,9.27-7.59,3.34-2.21,6.91-4.11,10.66-5.63,6.95-2.81,14.53-4.37,22.48-4.37h0c7.94,0,15.52,1.55,22.47,4.37,7.51,3.05,14.28,7.57,19.93,13.23l-13.55,13.55c-7.39-7.45-17.63-12.07-28.97-12.07-22.6,0-40.92,18.32-40.92,40.93,0,22.6,18.33,40.92,40.92,40.92,16.17,0,30.12-9.38,36.76-23-.29-.09-.58-.18-.87-.29.04-.07.07-.14.1-.2-3.51-1.23-6.53-3.5-8.69-6.45-2.2-3-3.49-6.7-3.49-10.71,0-.09,0-.19,0-.28.06-4.28,1.6-8.18,4.13-11.25,2.14-2.59,4.99-4.59,8.26-5.68,1.81-.61,3.75-.94,5.76-.94.69,0,1.39.04,2.07.12,10.24,1.16,15.96,10.68,16.08,18.72,0,.06,0,.12,0,.18ZM626.4,1c-33.1,0-60.01,26.91-60.01,59.99,0,33.07,26.91,60,60.01,60,33.07,0,59.99-26.93,59.99-60,0-33.08-26.91-59.99-59.99-59.99ZM663.75,43.53c-.7.21-1.37.48-2.03.77-6.09,3.09-10.28,9.4-10.28,16.7,0,7.3,4.18,13.61,10.27,16.7.66.29,1.34.56,2.04.77-.02.03-.03.06-.05.1.34.13.68.25,1.04.36-6.64,13.61-20.58,23-36.76,23-22.6,0-40.92-18.33-40.92-40.92,0-22.61,18.33-40.93,40.92-40.93,16.17,0,30.11,9.4,36.76,23.01-.35.11-.69.23-1.03.36.02.03.03.06.05.09ZM756.58,61c0-2.47.22-4.9.64-7.25-.12.58-.21,1.17-.29,1.76-.01.09-.03.17-.04.25-.01.09-.03.17-.04.25,0,.09-.01.18-.03.26-.04.34-.07.68-.11,1.02-.04.5-.09.99-.11,1.49,0,.04,0,.08,0,.12,0,.15,0,.29-.01.45,0,.11,0,.23-.01.34,0,.12,0,.23,0,.34,0,.23-.01.46-.01.69,0,.1,0,.18,0,.28,0,.06,0,.12,0,.18,0,.26,0,.53.01.8,0,.12,0,.23,0,.35,0,.11.01.23.01.34,0,.15.01.29.01.44,0,.04,0,.08,0,.12.03.5.07.99.11,1.48.04.34.07.68.11,1.02.02.21.06.42.09.62.1.81.23,1.61.39,2.4.06.31.12.62.2.93.11.5.23.99.36,1.48-.83-3.24-1.26-6.64-1.26-10.14ZM757.22,53.75c.12-.67.26-1.34.41-2-.16.66-.3,1.32-.41,2ZM825.62,90.69c-7.32,6.96-17.2,11.23-28.11,11.23-18.23,0-33.69-11.93-38.97-28.41-.04-.12-.08-.23-.11-.34-.08-.26-.16-.51-.23-.77-.12-.42-.24-.83-.35-1.26-.83-3.24-1.26-6.64-1.26-10.14,0-2.47.22-4.9.64-7.25.12-.67.26-1.34.41-2,.08-.37.18-.72.27-1.09.12-.46.25-.91.38-1.37.14-.46.28-.92.44-1.38.09-.27.19-.54.29-.81,5.69-15.77,20.78-27.04,38.5-27.04,10.9,0,20.79,4.27,28.11,11.22l12.7-12.7c-.34-.34-.68-.68-1.02-1.01-.34-.34-.69-.66-1.05-.98-1.07-.96-2.17-1.9-3.3-2.79-.38-.29-.76-.59-1.15-.88-.38-.28-.77-.57-1.16-.85-.39-.29-.79-.56-1.19-.83-.39-.27-.8-.53-1.21-.8-.4-.26-.81-.51-1.23-.77-.41-.25-.83-.5-1.24-.74-.42-.24-.84-.47-1.27-.71-1.27-.69-2.57-1.34-3.9-1.94-.45-.2-.89-.39-1.34-.58-.39-.17-.8-.33-1.2-.5-.12-.05-.25-.1-.37-.14-.38-.15-.77-.3-1.15-.44-.42-.15-.86-.31-1.29-.45-.07-.03-.12-.05-.19-.07-.43-.15-.87-.29-1.31-.42-.47-.15-.94-.29-1.41-.42-3.33-.94-6.76-1.61-10.28-1.97-2.02-.2-4.06-.31-6.12-.31-2.07,0-4.11.1-6.12.31-3.53.37-6.96,1.03-10.29,1.97-.47.13-.94.28-1.42.42-.43.13-.86.28-1.29.42-.07.02-.14.04-.21.07-.37.12-.74.26-1.1.39-.1.03-.21.07-.31.11-.32.12-.64.24-.96.37-.15.05-.29.11-.43.18-.35.13-.69.28-1.04.42-.07.02-.14.05-.21.09-.34.15-.69.3-1.04.45-.17.07-.34.15-.5.23-.36.17-.71.34-1.06.5-.44.21-.88.42-1.31.65-.34.17-.67.34-1,.53-.03,0-.07.03-.09.05-.12.06-.25.13-.37.2-.23.12-.46.26-.69.38-.23.13-.47.26-.69.4-.15.09-.3.18-.45.26-.07.04-.13.08-.2.12-.37.21-.72.43-1.08.67-.15.09-.3.18-.45.28-.49.31-.96.63-1.44.96-.48.33-.96.67-1.43,1.01-.06.04-.12.08-.18.13-.43.31-.85.63-1.27.95-.95.73-1.88,1.49-2.78,2.28-.19.17-.37.33-.56.5-.36.31-.71.64-1.06.97-.01,0-.03.02-.04.03-.45.42-.88.85-1.32,1.28h-.01s-.05.07-.05.07c-.32.32-.64.65-.96.99-.1.11-.21.23-.32.34-.22.23-.44.47-.66.71-.32.36-.64.72-.96,1.08-.04.04-.07.08-.1.12h0c-.24.28-.48.57-.72.85h0s-.07.07-.09.12c-.09.11-.18.22-.26.33-.2.23-.38.46-.56.7-.03.03-.05.07-.08.1-.15.2-.31.4-.46.6-.15.18-.28.36-.42.54-.07.09-.14.18-.2.27-.15.2-.3.41-.45.61-.29.4-.58.81-.86,1.22-.17.25-.34.49-.5.74-.17.26-.33.5-.5.76-.23.37-.47.74-.69,1.11-.44.72-.86,1.45-1.27,2.2-.18.31-.34.61-.5.93-.01.02-.02.04-.04.07,0,.02-.02.04-.03.06-.23.42-.45.86-.66,1.29-.23.45-.45.91-.66,1.36-.2.42-.39.84-.58,1.26-.02.06-.05.12-.07.18-.19.45-.38.89-.56,1.34-.18.44-.34.87-.51,1.31-.17.44-.33.88-.48,1.32-.02.05-.03.1-.05.14-.29.84-.58,1.69-.83,2.55-.28.9-.53,1.8-.75,2.72,0,0,0,.02,0,.03,0,.02,0,.04-.01.06-.14.56-.26,1.12-.39,1.68-.51,2.33-.88,4.72-1.1,7.15-.05.56-.09,1.11-.12,1.67,0,.09-.01.18-.02.26-.03.58-.06,1.15-.07,1.73-.03.62-.04,1.24-.04,1.86s0,1.24.04,1.86c.01.58.04,1.17.07,1.75,0,.07.01.13.01.2.04.57.08,1.14.13,1.71.22,2.43.58,4.81,1.1,7.14.12.58.26,1.16.4,1.74.23.92.48,1.83.75,2.73,0,0,0,0,0,.01,0,0,0,.01,0,.02.27.9.56,1.78.87,2.66,0,0,0,.01,0,.02,0,0,0,.01,0,.02.13.37.26.74.4,1.11.19.5.38,1,.58,1.5.18.45.37.9.56,1.34.02.06.05.12.07.18.19.42.38.84.58,1.26.21.46.43.91.66,1.37.21.43.43.86.66,1.29,0,.02.02.04.03.06.01.02.02.04.04.07.16.31.33.62.5.93.72,1.32,1.51,2.61,2.33,3.87.61.94,1.25,1.86,1.91,2.76.23.31.46.61.69.91.2.26.39.51.6.77.03.04.06.08.09.12h0c.04.06.09.12.14.18.42.53.86,1.04,1.29,1.55.24.28.49.56.74.84.25.28.5.56.76.83.26.27.51.54.77.81.26.27.53.54.79.8,1.58,1.59,3.26,3.09,5.03,4.49,1.75,1.41,3.6,2.72,5.5,3.91.4.26.81.5,1.22.75.04.02.09.05.13.08.41.24.82.47,1.24.71.33.18.66.37.99.55.99.54,2.01,1.05,3.04,1.52.46.22.91.42,1.38.63.47.2.94.39,1.4.58,1.73.72,3.51,1.34,5.32,1.87,1.36.42,2.74.77,4.14,1.07,2.79.63,5.66,1.05,8.59,1.26.96.07,1.92.12,2.89.15.02,0,.04,0,.06,0,.5.01.99.02,1.49.02s.99,0,1.49-.02c.02,0,.04,0,.06,0,.96-.02,1.93-.07,2.89-.15,1.41-.1,2.81-.25,4.19-.46.07,0,.15-.01.21-.03.45-.07.91-.14,1.35-.21.47-.09.95-.17,1.42-.26.37-.07.74-.15,1.1-.23.58-.13,1.15-.26,1.72-.4.45-.12.89-.23,1.34-.35h.01c.45-.13.91-.26,1.36-.39.45-.13.9-.28,1.35-.42.9-.29,1.78-.59,2.66-.94.44-.16.88-.34,1.31-.51.47-.19.94-.39,1.4-.58.47-.2.93-.41,1.39-.63.45-.21.91-.43,1.36-.65.45-.23.91-.46,1.34-.69.41-.22.82-.44,1.23-.66.05-.03.11-.07.17-.1.38-.22.76-.44,1.14-.67.03-.01.07-.03.1-.05.02-.01.05-.03.07-.04.4-.24.8-.49,1.2-.74.08-.04.15-.1.23-.15.94-.58,1.85-1.2,2.75-1.85.52-.37,1.03-.75,1.54-1.14.35-.26.69-.53,1.04-.82.07-.05.14-.1.21-.17.4-.32.8-.65,1.19-.99.43-.37.85-.74,1.27-1.11.79-.71,1.56-1.44,2.31-2.19l-12.7-12.7ZM950.62,1c-33.1,0-60.01,26.91-60.01,59.99,0,33.07,26.91,60,60.01,60,33.07,0,59.99-26.93,59.99-60,0-33.08-26.91-59.99-59.99-59.99ZM987.97,43.53c-.7.21-1.37.48-2.03.77-6.09,3.09-10.28,9.4-10.28,16.7,0,7.3,4.18,13.61,10.27,16.7.66.29,1.34.56,2.04.77-.02.03-.03.06-.05.1.34.13.68.25,1.04.36-6.64,13.61-20.58,23-36.76,23-22.6,0-40.92-18.33-40.92-40.92,0-22.61,18.33-40.93,40.92-40.93,16.17,0,30.11,9.4,36.76,23.01-.35.11-.69.23-1.03.36.02.03.03.06.05.09ZM1041.15,61c0-2.47.22-4.9.64-7.25-.12.58-.21,1.17-.29,1.76-.01.09-.03.17-.04.25-.01.09-.03.17-.04.25,0,.09-.01.18-.03.26-.04.34-.07.68-.11,1.02-.04.5-.09.99-.11,1.49,0,.04,0,.08,0,.12,0,.15,0,.29-.01.45,0,.11,0,.23-.01.34,0,.12,0,.23,0,.34,0,.23-.01.46-.01.69,0,.1,0,.18,0,.28,0,.06,0,.12,0,.18,0,.26,0,.53.01.8,0,.12,0,.23,0,.35,0,.11.01.23.01.34,0,.15.01.29.01.44,0,.04,0,.08,0,.12.03.5.07.99.11,1.48.04.34.07.68.11,1.02.02.21.06.42.09.62.1.81.23,1.61.39,2.4.06.31.12.62.2.93.11.5.23.99.36,1.48-.83-3.24-1.26-6.64-1.26-10.14ZM1041.78,53.75c.12-.67.26-1.34.41-2-.16.66-.3,1.32-.41,2ZM1110.18,90.69c-7.32,6.96-17.2,11.23-28.11,11.23-18.23,0-33.69-11.93-38.97-28.41-.04-.12-.08-.23-.11-.34-.08-.26-.16-.51-.23-.77-.12-.42-.24-.83-.35-1.26-.83-3.24-1.26-6.64-1.26-10.14,0-2.47.22-4.9.64-7.25.12-.67.26-1.34.41-2,.08-.37.18-.72.27-1.09.12-.46.25-.91.38-1.37.14-.46.28-.92.44-1.38.09-.27.19-.54.29-.81,5.69-15.77,20.78-27.04,38.5-27.04,10.9,0,20.79,4.27,28.11,11.22l12.7-12.7c-.34-.34-.68-.68-1.02-1.01-.34-.34-.69-.66-1.05-.98-1.07-.96-2.17-1.9-3.3-2.79-.38-.29-.76-.59-1.15-.88-.38-.28-.77-.57-1.16-.85-.39-.29-.79-.56-1.19-.83-.39-.27-.8-.53-1.21-.8-.4-.26-.81-.51-1.23-.77-.41-.25-.83-.5-1.24-.74-.42-.24-.84-.47-1.27-.71-1.27-.69-2.57-1.34-3.9-1.94-.45-.2-.89-.39-1.34-.58-.39-.17-.8-.33-1.2-.5-.12-.05-.25-.1-.37-.14-.38-.15-.77-.3-1.15-.44-.42-.15-.86-.31-1.29-.45-.07-.03-.12-.05-.19-.07-.43-.15-.87-.29-1.31-.42-.47-.15-.94-.29-1.41-.42-3.33-.94-6.76-1.61-10.28-1.97-2.02-.2-4.06-.31-6.12-.31s-4.11.1-6.12.31c-3.53.37-6.96,1.03-10.29,1.97-.47.13-.94.28-1.42.42-.43.13-.86.28-1.29.42-.07.02-.14.04-.21.07-.37.12-.74.26-1.1.39-.1.03-.21.07-.31.11-.32.12-.64.24-.96.37-.15.05-.29.11-.43.18-.35.13-.69.28-1.04.42-.07.02-.14.05-.21.09-.34.15-.69.3-1.04.45-.17.07-.34.15-.5.23-.36.17-.71.34-1.06.5-.44.21-.88.42-1.31.65-.34.17-.67.34-1,.53-.03,0-.07.03-.09.05-.12.06-.25.13-.37.2-.23.12-.46.26-.69.38-.23.13-.47.26-.69.4-.15.09-.3.18-.45.26-.07.04-.13.08-.2.12-.37.21-.72.43-1.08.67-.15.09-.3.18-.45.28-.49.31-.96.63-1.44.96-.48.33-.96.67-1.43,1.01-.06.04-.12.08-.18.13-.43.31-.85.63-1.27.95-.95.73-1.88,1.49-2.78,2.28-.19.17-.37.33-.56.5-.36.31-.71.64-1.06.97-.01,0-.03.02-.04.03-.45.42-.88.85-1.32,1.28h-.01s-.05.07-.05.07c-.32.32-.64.65-.96.99-.1.11-.21.23-.32.34-.22.23-.44.47-.66.71-.32.36-.64.72-.96,1.08-.04.04-.07.08-.1.12h0c-.24.28-.48.57-.72.85h0s-.07.07-.09.12c-.09.11-.18.22-.26.33-.2.23-.38.46-.56.7-.03.03-.05.07-.08.1-.15.2-.31.4-.46.6-.15.18-.28.36-.42.54-.07.09-.14.18-.2.27-.15.2-.3.41-.45.61-.29.4-.58.81-.86,1.22-.17.25-.34.49-.5.74-.17.26-.33.5-.5.76-.23.37-.47.74-.69,1.11-.44.72-.86,1.45-1.27,2.2-.18.31-.34.61-.5.93-.01.02-.02.04-.04.07,0,.02-.02.04-.03.06-.23.42-.45.86-.66,1.29-.23.45-.45.91-.66,1.36-.2.42-.39.84-.58,1.26-.02.06-.05.12-.07.18-.19.45-.38.89-.56,1.34-.18.44-.34.87-.51,1.31-.17.44-.33.88-.48,1.32-.02.05-.03.1-.05.14-.29.84-.58,1.69-.83,2.55-.28.9-.53,1.8-.75,2.72,0,0,0,.02,0,.03,0,.02,0,.04-.01.06-.14.56-.26,1.12-.39,1.68-.51,2.33-.88,4.72-1.1,7.15-.05.56-.09,1.11-.12,1.67,0,.09-.01.18-.02.26-.03.58-.06,1.15-.07,1.73-.03.62-.04,1.24-.04,1.86s0,1.24.04,1.86c.01.58.04,1.17.07,1.75,0,.07.01.13.01.2.04.57.08,1.14.13,1.71.22,2.43.58,4.81,1.1,7.14.12.58.26,1.16.4,1.74.23.92.48,1.83.75,2.73,0,0,0,0,0,.01,0,0,0,.01,0,.02.27.9.56,1.78.87,2.66,0,0,0,.01,0,.02,0,0,0,.01,0,.02.13.37.26.74.4,1.11.19.5.38,1,.58,1.5.18.45.37.9.56,1.34.02.06.05.12.07.18.19.42.38.84.58,1.26.21.46.43.91.66,1.37.21.43.43.86.66,1.29,0,.02.02.04.03.06.01.02.02.04.04.07.16.31.33.62.5.93.72,1.32,1.51,2.61,2.33,3.87.61.94,1.25,1.86,1.91,2.76.23.31.46.61.69.91.2.26.39.51.6.77.03.04.06.08.09.12h0c.04.06.09.12.14.18.42.53.86,1.04,1.29,1.55.24.28.49.56.74.84.25.28.5.56.76.83.26.27.51.54.77.81.26.27.53.54.79.8,1.58,1.59,3.26,3.09,5.03,4.49,1.75,1.41,3.6,2.72,5.5,3.91.4.26.81.5,1.22.75.04.02.09.05.13.08.41.24.82.47,1.24.71.33.18.66.37.99.55.99.54,2.01,1.05,3.04,1.52.46.22.91.42,1.38.63.47.2.94.39,1.4.58,1.73.72,3.51,1.34,5.32,1.87,1.36.42,2.74.77,4.14,1.07,2.79.63,5.66,1.05,8.59,1.26.96.07,1.92.12,2.89.15.02,0,.04,0,.06,0,.5.01.99.02,1.49.02s.99,0,1.49-.02c.02,0,.04,0,.06,0,.96-.02,1.93-.07,2.89-.15,1.41-.1,2.81-.25,4.19-.46.07,0,.15-.01.21-.03.45-.07.91-.14,1.35-.21.47-.09.95-.17,1.42-.26.37-.07.74-.15,1.1-.23.58-.13,1.15-.26,1.72-.4.45-.12.89-.23,1.34-.35h.01c.45-.13.91-.26,1.36-.39.45-.13.9-.28,1.35-.42.9-.29,1.78-.59,2.66-.94.44-.16.88-.34,1.31-.51.47-.19.94-.39,1.4-.58.47-.2.93-.41,1.39-.63.45-.21.91-.43,1.36-.65.45-.23.91-.46,1.34-.69.41-.22.82-.44,1.23-.66.05-.03.11-.07.17-.1.38-.22.76-.44,1.14-.67.03-.01.07-.03.1-.05.02-.01.05-.03.07-.04.4-.24.8-.49,1.2-.74.08-.04.15-.1.23-.15.94-.58,1.85-1.2,2.75-1.85.52-.37,1.03-.75,1.54-1.14.35-.26.69-.53,1.04-.82.07-.05.14-.1.21-.17.4-.32.8-.65,1.19-.99.43-.37.85-.74,1.27-1.11.79-.71,1.56-1.44,2.31-2.19l-12.7-12.7ZM1150.75,2.61v59.43s6.49,0,6.49,0c.17,0,1.55-.51,1.79-.63,2.21-1.15,2.48-3.5,2.83-5.69l2.28-53.11h17.26s-1.37,34.77-1.37,34.77c-.42,8.5-.23,13.8-1.38,22.13-.58,4.15-1.98,9.08-5.59,11.52.6.47,1.29.8,1.89,1.29,6.08,5.01,2.58,20.81,3.91,27.64.67,3.45,3.07,2.76,5.78,2.08l.17.31-.21,15.61c-4.47,1.69-10.93,2.2-15.26-.11-9.83-5.25-6.31-21.15-7.5-30.25-.26-1.95-1.01-8.31-2.95-9.19-.18-.08-1.41-.47-1.5-.47h-6.64s0,40.04,0,40.04h-17.26s0-115.35,0-115.35h17.26ZM870,2.61v100.03c.14.22.31.21.54.24,3.29.39,8.75-.02,12.15-.32,2.31-.2,4.6-.68,6.93-.78l.62,15.87c-1.8.26-3.58.67-5.39.91-8.32,1.13-17.89,1.15-26.19-.18-2.26-.36-4.7-.83-6.82-1.59V2.61s18.16,0,18.16,0ZM1207,84.98l1.61-82.37h18.16s-3.11,82.37-3.11,82.37h-16.66ZM1228.47,106.25c0,7.26-5.88,13.14-13.14,13.14s-13.14-5.88-13.14-13.14c0-7.26,5.88-13.14,13.14-13.14s13.14,5.88,13.14,13.14ZM724.24,15.03c.02-.29.04-.59.04-.88,0-7.26-5.88-13.14-13.14-13.14-7.26,0-13.14,5.88-13.14,13.14,0,5.23,3.06,9.73,7.48,11.84v15.37c10.25,0,17.32-7.58,18.55-18.55.39-3.51.33-6.15.2-7.77Z"/>
    <path class="cls-1" d="M1041.15,61c0-2.47.22-4.9.64-7.25-.12.58-.21,1.17-.29,1.76-.01.09-.03.17-.04.25-.01.09-.03.17-.04.25,0,.09-.01.18-.03.26-.04.34-.07.68-.11,1.02-.04.5-.09.99-.11,1.49,0,.04,0,.08,0,.12,0,.15,0,.29-.01.45,0,.11,0,.23-.01.34,0,.12,0,.23,0,.34,0,.23-.01.46-.01.69,0,.1,0,.18,0,.28,0,.06,0,.12,0,.18,0,.26,0,.53.01.8,0,.12,0,.23,0,.35,0,.11.01.23.01.34,0,.15.01.29.01.44,0,.04,0,.08,0,.12.03.5.07.99.11,1.48.04.34.07.68.11,1.02.02.21.06.42.09.62.1.81.23,1.61.39,2.4.06.31.12.62.2.93.11.5.23.99.36,1.48-.83-3.24-1.26-6.64-1.26-10.14ZM1041.78,53.75c.12-.67.26-1.34.41-2-.16.66-.3,1.32-.41,2ZM1110.18,90.69c-7.32,6.96-17.2,11.23-28.11,11.23-18.23,0-33.69-11.93-38.97-28.41-.04-.12-.08-.23-.11-.34-.08-.26-.16-.51-.23-.77-.12-.42-.24-.83-.35-1.26-.83-3.24-1.26-6.64-1.26-10.14,0-2.47.22-4.9.64-7.25.12-.67.26-1.34.41-2,.08-.37.18-.72.27-1.09.12-.46.25-.91.38-1.37.14-.46.28-.92.44-1.38.09-.27.19-.54.29-.81,5.69-15.77,20.78-27.04,38.5-27.04,10.9,0,20.79,4.27,28.11,11.22l12.7-12.7c-.34-.34-.68-.68-1.02-1.01-.34-.34-.69-.66-1.05-.98-1.07-.96-2.17-1.9-3.3-2.79-.38-.29-.76-.59-1.15-.88-.38-.28-.77-.57-1.16-.85-.39-.29-.79-.56-1.19-.83-.39-.27-.8-.53-1.21-.8-.4-.26-.81-.51-1.23-.77-.41-.25-.83-.5-1.24-.74-.42-.24-.84-.47-1.27-.71-1.27-.69-2.57-1.34-3.9-1.94-.45-.2-.89-.39-1.34-.58-.39-.17-.8-.33-1.2-.5-.12-.05-.25-.1-.37-.14-.38-.15-.77-.3-1.15-.44-.42-.15-.86-.31-1.29-.45-.07-.03-.12-.05-.19-.07-.43-.15-.87-.29-1.31-.42-.47-.15-.94-.29-1.41-.42-3.33-.94-6.76-1.61-10.28-1.97-2.02-.2-4.06-.31-6.12-.31s-4.11.1-6.12.31c-3.53.37-6.96,1.03-10.29,1.97-.47.13-.94.28-1.42.42-.43.13-.86.28-1.29.42-.07.02-.14.04-.21.07-.37.12-.74.26-1.1.39-.1.03-.21.07-.31.11-.32.12-.64.24-.96.37-.15.05-.29.11-.43.18-.35.13-.69.28-1.04.42-.07.02-.14.05-.21.09-.34.15-.69.3-1.04.45-.17.07-.34.15-.5.23-.36.17-.71.34-1.06.5-.44.21-.88.42-1.31.65-.34.17-.67.34-1,.53-.03,0-.07.03-.09.05-.12.06-.25.13-.37.2-.23.12-.46.26-.69.38-.23.13-.47.26-.69.4-.15.09-.3.18-.45.26-.07.04-.13.08-.2.12-.37.21-.72.43-1.08.67-.15.09-.3.18-.45.28-.49.31-.96.63-1.44.96-.48.33-.96.67-1.43,1.01-.06.04-.12.08-.18.13-.43.31-.85.63-1.27.95-.95.73-1.88,1.49-2.78,2.28-.19.17-.37.33-.56.5-.36.31-.71.64-1.06.97-.01,0-.03.02-.04.03-.45.42-.88.85-1.32,1.28h-.01s-.05.07-.05.07c-.32.32-.64.65-.96.99-.1.11-.21.23-.32.34-.22.23-.44.47-.66.71-.32.36-.64.72-.96,1.08-.04.04-.07.08-.1.12h0c-.24.28-.48.57-.72.85h0s-.07.07-.09.12c-.09.11-.18.22-.26.33-.2.23-.38.46-.56.7-.03.03-.05.07-.08.1-.15.2-.31.4-.46.6-.15.18-.28.36-.42.54-.07.09-.14.18-.2.27-.15.2-.3.41-.45.61-.29.4-.58.81-.86,1.22-.17.25-.34.49-.5.74-.17.26-.33.5-.5.76-.23.37-.47.74-.69,1.11-.44.72-.86,1.45-1.27,2.2-.18.31-.34.61-.5.93-.01.02-.02.04-.04.07,0,.02-.02.04-.03.06-.23.42-.45.86-.66,1.29-.23.45-.45.91-.66,1.36-.2.42-.39.84-.58,1.26-.02.06-.05.12-.07.18-.19.45-.38.89-.56,1.34-.18.44-.34.87-.51,1.31-.17.44-.33.88-.48,1.32-.02.05-.03.1-.05.14-.29.84-.58,1.69-.83,2.55-.28.9-.53,1.8-.75,2.72,0,0,0,.02,0,.03,0,.02,0,.04-.01.06-.14.56-.26,1.12-.39,1.68-.51,2.33-.88,4.72-1.1,7.15-.05.56-.09,1.11-.12,1.67,0,.09-.01.18-.02.26-.03.58-.06,1.15-.07,1.73-.03.62-.04,1.24-.04,1.86s0,1.24.04,1.86c.01.58.04,1.17.07,1.75,0,.07.01.13.01.2.04.57.08,1.14.13,1.71.22,2.43.58,4.81,1.1,7.14.12.58.26,1.16.4,1.74.23.92.48,1.83.75,2.73,0,0,0,0,0,.01,0,0,0,.01,0,.02.27.9.56,1.78.87,2.66,0,0,0,.01,0,.02,0,0,0,.01,0,.02.13.37.26.74.4,1.11.19.5.38,1,.58,1.5.18.45.37.9.56,1.34.02.06.05.12.07.18.19.42.38.84.58,1.26.21.46.43.91.66,1.37.21.43.43.86.66,1.29,0,.02.02.04.03.06.01.02.02.04.04.07.16.31.33.62.5.93.72,1.32,1.51,2.61,2.33,3.87.61.94,1.25,1.86,1.91,2.76.23.31.46.61.69.91.2.26.39.51.6.77.03.04.06.08.09.12h0c.04.06.09.12.14.18.42.53.86,1.04,1.29,1.55.24.28.49.56.74.84.25.28.5.56.76.83.26.27.51.54.77.81.26.27.53.54.79.8,1.58,1.59,3.26,3.09,5.03,4.49,1.75,1.41,3.6,2.72,5.5,3.91.4.26.81.5,1.22.75.04.02.09.05.13.08.41.24.82.47,1.24.71.33.18.66.37.99.55.99.54,2.01,1.05,3.04,1.52.46.22.91.42,1.38.63.47.2.94.39,1.4.58,1.73.72,3.51,1.34,5.32,1.87,1.36.42,2.74.77,4.14,1.07,2.79.63,5.66,1.05,8.59,1.26.96.07,1.92.12,2.89.15.02,0,.04,0,.06,0,.5.01.99.02,1.49.02s.99,0,1.49-.02c.02,0,.04,0,.06,0,.96-.02,1.93-.07,2.89-.15,1.41-.1,2.81-.25,4.19-.46.07,0,.15-.01.21-.03.45-.07.91-.14,1.35-.21.47-.09.95-.17,1.42-.26.37-.07.74-.15,1.1-.23.58-.13,1.15-.26,1.72-.4.45-.12.89-.23,1.34-.35h.01c.45-.13.91-.26,1.36-.39.45-.13.9-.28,1.35-.42.9-.29,1.78-.59,2.66-.94.44-.16.88-.34,1.31-.51.47-.19.94-.39,1.4-.58.47-.2.93-.41,1.39-.63.45-.21.91-.43,1.36-.65.45-.23.91-.46,1.34-.69.41-.22.82-.44,1.23-.66.05-.03.11-.07.17-.1.38-.22.76-.44,1.14-.67.03-.01.07-.03.1-.05.02-.01.05-.03.07-.04.4-.24.8-.49,1.2-.74.08-.04.15-.1.23-.15.94-.58,1.85-1.2,2.75-1.85.52-.37,1.03-.75,1.54-1.14.35-.26.69-.53,1.04-.82.07-.05.14-.1.21-.17.4-.32.8-.65,1.19-.99.43-.37.85-.74,1.27-1.11.79-.71,1.56-1.44,2.31-2.19l-12.7-12.7Z"/>
    <path class="cls-1" d="M1150.75,2.61v59.43s6.49,0,6.49,0c.17,0,1.55-.51,1.79-.63,2.21-1.15,2.48-3.5,2.83-5.69l2.28-53.11h17.26s-1.37,34.77-1.37,34.77c-.42,8.5-.23,13.8-1.38,22.13-.58,4.15-1.98,9.08-5.59,11.52.6.47,1.29.8,1.89,1.29,6.08,5.01,2.58,20.81,3.91,27.64.67,3.45,3.07,2.76,5.78,2.08l.17.31-.21,15.61c-4.47,1.69-10.93,2.2-15.26-.11-9.83-5.25-6.31-21.15-7.5-30.25-.26-1.95-1.01-8.31-2.95-9.19-.18-.08-1.41-.47-1.5-.47h-6.64s0,40.04,0,40.04h-17.26s0-115.35,0-115.35h17.26Z"/>
    <path class="cls-1" d="M870,2.61v100.03c.14.22.31.21.54.24,3.29.39,8.75-.02,12.15-.32,2.31-.2,4.6-.68,6.93-.78l.62,15.87c-1.8.26-3.58.67-5.39.91-8.32,1.13-17.89,1.15-26.19-.18-2.26-.36-4.7-.83-6.82-1.59V2.61s18.16,0,18.16,0Z"/>
    <polygon class="cls-1" points="1207 84.98 1208.62 2.61 1226.77 2.61 1223.67 84.98 1207 84.98"/>
    <circle class="cls-1" cx="1215.33" cy="106.25" r="13.14"/>
    <path class="cls-1" d="M724.24,15.03c.02-.29.04-.59.04-.88,0-7.26-5.88-13.14-13.14-13.14-7.26,0-13.14,5.88-13.14,13.14,0,5.23,3.06,9.73,7.48,11.84v15.37c10.25,0,17.32-7.58,18.55-18.55.39-3.51.33-6.15.2-7.77Z"/>
  </g>
</svg>