<?xml version="1.0" encoding="UTF-8"?>
<svg id="_레이어_1" data-name="레이어 1" xmlns="http://www.w3.org/2000/svg" viewBox="0 0 37.28 52.75">
  <defs>
    <style>
      .cls-1 {
        fill: #028dfd;
      }

      .cls-2 {
        fill: #474642;
      }
    </style>
  </defs>
  <path class="cls-1" d="M18.64,51.11c-.22,0-.44-.1-.58-.27-.7-.85-17.21-21.03-17.21-31.04S8.83,1.21,18.64,1.21s17.79,8.34,17.79,18.59-16.51,30.19-17.21,31.04c-.14.17-.35.27-.58.27ZM19.17,9.27c-5.31,0-9.62,4.32-9.62,9.62s4.32,9.63,9.62,9.63c3.43,0,6.52-1.78,8.26-4.7-1.84-.92-3.06-2.84-3.06-4.94s1.22-4.01,3.06-4.93c-1.73-2.92-4.83-4.7-8.26-4.7Z"/>
  <path class="cls-2" d="M18.64,1.96c9.41,0,17.04,7.99,17.04,17.84s-17.04,30.57-17.04,30.57c0,0-17.04-20.71-17.04-30.57S9.23,1.96,18.64,1.96M19.17,29.27c4.1,0,7.63-2.38,9.32-5.83-1.94-.59-3.37-2.4-3.37-4.55s1.43-3.95,3.37-4.54c-1.69-3.45-5.22-5.83-9.32-5.83-5.73,0-10.37,4.65-10.37,10.37s4.64,10.38,10.37,10.38M18.64.46C8.42.46.1,9.13.1,19.8c0,4.39,2.95,11.05,8.77,19.81,4.25,6.4,8.57,11.66,8.61,11.71.28.35.71.55,1.16.55s.87-.2,1.16-.55c.04-.05,4.36-5.31,8.61-11.71,5.82-8.76,8.77-15.42,8.77-19.81C37.18,9.13,28.86.46,18.64.46h0ZM19.17,27.77c-4.89,0-8.87-3.98-8.87-8.88s3.98-8.87,8.87-8.87c2.9,0,5.55,1.39,7.2,3.7-1.68,1.15-2.76,3.08-2.76,5.17s1.06,4.05,2.75,5.19c-1.65,2.31-4.29,3.69-7.19,3.69h0Z"/>
</svg>