<?xml version="1.0" encoding="UTF-8"?>
<svg id="_레이어_1" data-name="레이어 1" xmlns="http://www.w3.org/2000/svg" xmlns:xlink="http://www.w3.org/1999/xlink" viewBox="0 0 950 500">
  <defs>
    <style>
      .cls-1 {
        mask: url(#mask);
      }

      .cls-2, .cls-3, .cls-4, .cls-5 {
        stroke-width: 1.5px;
      }

      .cls-2, .cls-6 {
        stroke: #000;
      }

      .cls-2, .cls-6, .cls-4, .cls-5, .cls-7 {
        stroke-miterlimit: 10;
      }

      .cls-2, .cls-5 {
        fill: none;
      }

      .cls-3 {
        stroke-linecap: round;
        stroke-linejoin: round;
      }

      .cls-3, .cls-4 {
        fill: #f1f3f4;
      }

      .cls-3, .cls-4, .cls-5, .cls-7 {
        stroke: #474642;
      }

      .cls-6 {
        fill: #fff;
        stroke-width: .5px;
      }

      .cls-8 {
        letter-spacing: -.01em;
      }

      .cls-9 {
        font-family: PretendardVariable-Medium, 'Pretendard Variable';
        font-size: 16.34px;
        font-variation-settings: 'wght' 500;
        font-weight: 500;
      }

      .cls-9, .cls-7 {
        fill: #474642;
      }

      .cls-7 {
        font-family: PretendardVariable-ExtraLight, 'Pretendard Variable';
        font-size: 23.32px;
        font-variation-settings: 'wght' 200;
        font-weight: 200;
        stroke-width: .3px;
      }
    </style>
    <mask id="mask" x="327.74" y="69.71" width="98.25" height="98.26" maskUnits="userSpaceOnUse">
      <circle class="cls-6" cx="376.86" cy="118.84" r="39.72"/>
    </mask>
  </defs>
  <g>
    <line class="cls-2" x1="193.89" y1="97.92" x2="253.53" y2="97.92"/>
    <polygon points="248.56 104.05 247.54 102.95 252.95 97.92 247.54 92.88 248.56 91.79 255.16 97.92 248.56 104.05"/>
  </g>
  <g>
    <line class="cls-2" x1="455.24" y1="97.92" x2="514.88" y2="97.92"/>
    <polygon points="509.91 104.05 508.89 102.95 514.3 97.92 508.89 92.88 509.91 91.79 516.51 97.92 509.91 104.05"/>
  </g>
  <g>
    <line class="cls-2" x1="694.72" y1="97.92" x2="754.36" y2="97.92"/>
    <polygon points="749.39 104.05 748.36 102.95 753.78 97.92 748.36 92.88 749.39 91.79 755.98 97.92 749.39 104.05"/>
  </g>
  <circle class="cls-3" cx="112.46" cy="58.55" r="27.65"/>
  <polygon class="cls-4" points="159.65 162.06 65.27 162.06 65.27 120.91 84.27 91.24 140.65 91.24 159.65 120.91 159.65 162.06"/>
  <line class="cls-4" x1="88.98" y1="113.27" x2="135.95" y2="113.27"/>
  <line class="cls-4" x1="135.95" y1="103.51" x2="88.98" y2="103.51"/>
  <polyline class="cls-4" points="81.56 113.27 81.56 103.51 88.98 103.51"/>
  <polyline class="cls-4" points="135.95 103.51 143.36 103.51 143.36 113.27 135.95 113.27"/>
  <line class="cls-4" x1="135.95" y1="113.27" x2="88.98" y2="113.27"/>
  <line class="cls-4" x1="88.98" y1="123.02" x2="135.95" y2="123.02"/>
  <polyline class="cls-4" points="81.56 113.27 81.56 123.02 88.98 123.02"/>
  <polyline class="cls-4" points="143.36 123.02 143.36 113.27 135.95 113.27"/>
  <line class="cls-4" x1="88.98" y1="132.78" x2="135.95" y2="132.78"/>
  <line class="cls-4" x1="135.95" y1="123.02" x2="88.98" y2="123.02"/>
  <polyline class="cls-4" points="88.98 123.02 81.56 123.02 81.56 132.78"/>
  <polyline class="cls-4" points="135.95 132.78 143.36 132.78 143.36 123.02"/>
  <line class="cls-4" x1="135.95" y1="132.78" x2="88.98" y2="132.78"/>
  <line class="cls-4" x1="88.98" y1="142.54" x2="135.95" y2="142.54"/>
  <polyline class="cls-4" points="81.56 132.78 81.56 142.54 88.98 142.54"/>
  <polyline class="cls-4" points="143.36 142.54 143.36 132.78 135.95 132.78"/>
  <line class="cls-4" x1="88.98" y1="152.3" x2="135.95" y2="152.3"/>
  <line class="cls-4" x1="135.95" y1="142.54" x2="88.98" y2="142.54"/>
  <polyline class="cls-4" points="88.98 142.54 81.56 142.54 81.56 152.3"/>
  <polyline class="cls-4" points="135.95 152.3 143.36 152.3 143.36 142.54"/>
  <line class="cls-4" x1="88.98" y1="162.06" x2="135.95" y2="162.06"/>
  <line class="cls-4" x1="135.95" y1="152.3" x2="88.98" y2="152.3"/>
  <polyline class="cls-4" points="81.56 152.3 81.56 162.06 88.98 162.06"/>
  <polyline class="cls-4" points="135.95 162.06 143.36 162.06 143.36 152.3 135.95 152.3"/>
  <polyline class="cls-4" points="72.3 140.38 83.56 140.38 83.56 163.64 61.04 163.64 61.04 132.78 78.04 132.78"/>
  <polyline class="cls-4" points="152.63 140.38 141.36 140.38 141.36 163.64 163.89 163.64 163.89 132.78 146.89 132.78"/>
  <text class="cls-9" transform="translate(75.17 206.27)"><tspan x="0" y="0">세탁물 전달</tspan></text>
  <g>
    <polygon class="cls-4" points="414.84 78.36 350 109.3 285.16 78.36 310.68 41.99 389.32 41.99 414.84 78.36"/>
    <polygon class="cls-4" points="391.64 144.72 308.36 144.72 310.68 41.99 389.32 41.99 391.64 144.72"/>
    <path class="cls-4" d="M334.35,41.99c0,6.45,7.01,11.67,15.65,11.67s15.65-5.23,15.65-11.67h-31.3Z"/>
  </g>
  <g>
    <rect class="cls-4" x="401.52" y="145.68" width="13.86" height="32.4" transform="translate(-16.62 273.03) rotate(-36.27)"/>
    <circle class="cls-4" cx="376.86" cy="118.84" r="48.12"/>
    <g class="cls-1">
      <g>
        <rect class="cls-4" x="389.93" y="70.46" width="8.95" height="8.68"/>
        <rect class="cls-4" x="389.93" y="88.09" width="8.95" height="26.33"/>
        <rect class="cls-4" x="389.93" y="123.38" width="8.95" height="26.23"/>
        <rect class="cls-4" x="389.93" y="158.56" width="8.95" height="8.67"/>
        <rect class="cls-4" x="354.74" y="70.46" width="8.95" height="8.68"/>
        <rect class="cls-4" x="354.74" y="88.09" width="8.95" height="26.33"/>
        <rect class="cls-4" x="354.74" y="123.38" width="8.95" height="26.23"/>
        <rect class="cls-4" x="354.74" y="158.56" width="8.95" height="8.67"/>
        <rect class="cls-4" x="346.11" y="79.14" width="26.23" height="8.95"/>
        <rect class="cls-4" x="328.49" y="79.14" width="8.67" height="8.95"/>
        <rect class="cls-4" x="381.29" y="79.14" width="26.33" height="8.95"/>
        <rect class="cls-4" x="416.57" y="79.14" width="8.67" height="8.95"/>
        <rect class="cls-4" x="328.49" y="96.83" width="26.26" height="8.95"/>
        <rect class="cls-4" x="363.7" y="96.83" width="26.23" height="8.95"/>
        <rect class="cls-4" x="398.88" y="96.83" width="26.36" height="8.95"/>
        <rect class="cls-4" x="346.11" y="114.42" width="26.23" height="8.95"/>
        <rect class="cls-4" x="328.49" y="114.42" width="8.67" height="8.95"/>
        <rect class="cls-4" x="381.29" y="114.42" width="26.33" height="8.95"/>
        <rect class="cls-4" x="416.57" y="114.42" width="8.67" height="8.95"/>
        <rect class="cls-4" x="398.88" y="132.01" width="26.36" height="8.95"/>
        <rect class="cls-4" x="363.7" y="132.01" width="26.23" height="8.95"/>
        <rect class="cls-4" x="328.49" y="132.01" width="26.26" height="8.95"/>
        <rect class="cls-4" x="346.11" y="149.6" width="26.23" height="8.95"/>
        <rect class="cls-4" x="328.49" y="149.6" width="8.67" height="8.95"/>
        <rect class="cls-4" x="381.29" y="149.6" width="26.33" height="8.95"/>
        <rect class="cls-4" x="416.57" y="149.6" width="8.67" height="8.95"/>
        <rect class="cls-4" x="407.62" y="70.46" width="8.95" height="26.37"/>
        <rect class="cls-4" x="407.62" y="105.78" width="8.95" height="26.23"/>
        <rect class="cls-4" x="407.62" y="140.97" width="8.95" height="26.26"/>
        <rect class="cls-4" x="372.34" y="70.46" width="8.95" height="26.37"/>
        <rect class="cls-4" x="372.34" y="105.78" width="8.95" height="26.23"/>
        <rect class="cls-4" x="372.34" y="140.97" width="8.95" height="26.26"/>
        <rect class="cls-4" x="337.15" y="70.46" width="8.95" height="26.37"/>
        <rect class="cls-4" x="337.15" y="105.78" width="8.95" height="26.23"/>
        <rect class="cls-4" x="337.15" y="140.97" width="8.95" height="26.26"/>
      </g>
    </g>
    <circle class="cls-5" cx="376.86" cy="118.84" r="39.72"/>
  </g>
  <text class="cls-9" transform="translate(315.49 206.27)"><tspan x="0" y="0">소재</tspan><tspan class="cls-8" x="28.24" y="0">,</tspan><tspan x="32.42" y="0" xml:space="preserve"> 오염</tspan><tspan class="cls-8" x="64.65" y="0">,</tspan><tspan x="-9.84" y="19.61">요청사항 확인</tspan></text>
  <g>
    <g>
      <rect class="cls-4" x="554.12" y="41.99" width="102.98" height="118.73"/>
      <line class="cls-4" x1="568.07" y1="56.6" x2="642.44" y2="56.6"/>
      <line class="cls-4" x1="568.07" y1="71.07" x2="642.44" y2="71.07"/>
      <line class="cls-4" x1="568.07" y1="85.55" x2="642.44" y2="85.55"/>
      <line class="cls-4" x1="568.07" y1="114.51" x2="642.44" y2="114.51"/>
      <line class="cls-4" x1="568.07" y1="100.03" x2="642.44" y2="100.03"/>
      <text class="cls-7" transform="translate(568.07 146.44)"><tspan x="0" y="0">₩ </tspan></text>
    </g>
    <text class="cls-9" transform="translate(550.21 206.27)"><tspan x="0" y="0">세탁 방식 및 가격</tspan><tspan x="16.11" y="19.61">안내 후 접수</tspan></text>
  </g>
  <g>
    <g>
      <rect class="cls-4" x="785.98" y="41.99" width="102.98" height="118.73"/>
      <path class="cls-4" d="M837.48,64c-20.6,0-37.36,16.75-37.36,37.35s16.76,37.36,37.36,37.36,37.35-16.76,37.35-37.36-16.76-37.35-37.35-37.35Z"/>
    </g>
    <text class="cls-9" transform="translate(791.12 206.27)"><tspan x="0" y="0">맞춤 세탁 진행</tspan></text>
  </g>
  <g>
    <line class="cls-2" x1="117.98" y1="347.94" x2="177.62" y2="347.94"/>
    <polygon points="172.65 354.07 171.63 352.97 177.05 347.94 171.63 342.9 172.65 341.8 179.25 347.94 172.65 354.07"/>
  </g>
  <g>
    <line class="cls-2" x1="374.32" y1="347.94" x2="433.96" y2="347.94"/>
    <polygon points="428.99 354.07 427.96 352.97 433.38 347.94 427.96 342.9 428.99 341.8 435.58 347.94 428.99 354.07"/>
  </g>
  <g>
    <line class="cls-2" x1="613.95" y1="347.94" x2="673.59" y2="347.94"/>
    <polygon points="668.62 354.07 667.59 352.97 673.01 347.94 667.59 342.9 668.62 341.8 675.21 347.94 668.62 354.07"/>
  </g>
  <g>
    <g>
      <polygon class="cls-4" points="344.32 339.37 276.78 371.6 209.25 339.37 235.83 301.49 317.73 301.49 344.32 339.37"/>
      <polygon class="cls-4" points="320.15 408.49 233.42 408.49 235.83 301.49 317.73 301.49 320.15 408.49"/>
      <path class="cls-4" d="M260.48,301.49c0,6.71,7.3,12.16,16.3,12.16s16.3-5.44,16.3-12.16h-32.6Z"/>
      <path class="cls-4" d="M243.39,341.91h0c0-8.85-7.17-16.02-16.02-16.02h0c8.85,0,16.02-7.17,16.02-16.02h0c0,8.85,7.17,16.02,16.02,16.02h0c-8.85,0-16.02,7.17-16.02,16.02Z"/>
      <path class="cls-4" d="M308.45,414.3h0c0-15.49-12.56-28.05-28.05-28.05h0c15.49,0,28.05-12.56,28.05-28.05h0c0,15.49,12.56,28.05,28.05,28.05h0c-15.49,0-28.05,12.56-28.05,28.05Z"/>
    </g>
    <text class="cls-9" transform="translate(230.43 459.86)"><tspan x="0" y="0">맞춤 케어 진행</tspan></text>
  </g>
  <g>
    <g>
      <rect class="cls-4" x="492.82" y="348.54" width="42.53" height="42.53" transform="translate(883.89 -144.29) rotate(90)"/>
      <polygon class="cls-4" points="587.95 295.94 587.95 295.94 540.4 416.3 517.99 365.9 467.58 343.48 587.95 295.94"/>
      <line class="cls-4" x1="587.95" y1="295.94" x2="517.99" y2="365.9"/>
    </g>
    <text class="cls-9" transform="translate(463.3 459.86)"><tspan x="0" y="0">세탁 완료 안내 수신</tspan></text>
  </g>
  <g>
    <g>
      <circle class="cls-4" cx="767.62" cy="310.22" r="27.65"/>
      <polygon class="cls-4" points="814.8 413.73 720.43 413.73 720.43 372.58 739.42 342.91 795.81 342.91 814.8 372.58 814.8 413.73"/>
      <g>
        <line class="cls-4" x1="744.13" y1="364.93" x2="791.1" y2="364.93"/>
        <line class="cls-4" x1="791.1" y1="355.17" x2="744.13" y2="355.17"/>
        <polyline class="cls-4" points="736.72 364.93 736.72 355.18 744.13 355.18"/>
        <polyline class="cls-4" points="791.1 355.18 798.51 355.18 798.51 364.93 791.1 364.93"/>
        <line class="cls-4" x1="791.1" y1="364.93" x2="744.13" y2="364.93"/>
        <line class="cls-4" x1="744.13" y1="374.69" x2="791.1" y2="374.69"/>
        <polyline class="cls-4" points="736.71 364.93 736.71 374.69 744.13 374.69"/>
        <polyline class="cls-4" points="798.52 374.69 798.52 364.93 791.1 364.93"/>
        <line class="cls-4" x1="744.13" y1="384.45" x2="791.1" y2="384.45"/>
        <line class="cls-4" x1="791.1" y1="374.69" x2="744.13" y2="374.69"/>
        <polyline class="cls-4" points="744.13 374.69 736.71 374.69 736.71 384.45"/>
        <polyline class="cls-4" points="791.1 384.45 798.52 384.45 798.52 374.69"/>
        <line class="cls-4" x1="791.1" y1="384.45" x2="744.13" y2="384.45"/>
        <line class="cls-4" x1="744.13" y1="394.21" x2="791.1" y2="394.21"/>
        <polyline class="cls-4" points="736.71 384.45 736.71 394.21 744.13 394.21"/>
        <polyline class="cls-4" points="798.52 394.21 798.52 384.45 791.1 384.45"/>
        <line class="cls-4" x1="744.13" y1="403.97" x2="791.1" y2="403.97"/>
        <line class="cls-4" x1="791.1" y1="394.21" x2="744.13" y2="394.21"/>
        <polyline class="cls-4" points="744.13 394.21 736.71 394.21 736.71 403.97"/>
        <polyline class="cls-4" points="791.1 403.97 798.52 403.97 798.52 394.21"/>
        <line class="cls-4" x1="744.13" y1="413.73" x2="791.1" y2="413.73"/>
        <line class="cls-4" x1="791.1" y1="403.97" x2="744.13" y2="403.97"/>
        <polyline class="cls-4" points="736.71 403.97 736.71 413.73 744.13 413.73"/>
        <polyline class="cls-4" points="791.1 413.73 798.52 413.73 798.52 403.97 791.1 403.97"/>
      </g>
      <g>
        <polyline class="cls-4" points="727.45 392.04 738.71 392.04 738.71 415.3 716.19 415.3 716.19 384.45 733.19 384.45"/>
        <polyline class="cls-4" points="807.78 392.04 796.52 392.04 796.52 415.3 819.04 415.3 819.04 384.45 802.04 384.45"/>
      </g>
    </g>
    <text class="cls-9" transform="translate(705.15 459.86)"><tspan x="0" y="0">세탁물 확인 후 수령</tspan></text>
  </g>
  <path class="cls-4" d="M860.74,112.23c-4.03,8.26-12.49,13.96-22.3,13.96-13.71,0-24.83-11.12-24.83-24.83s11.12-24.84,24.83-24.84c9.81,0,18.27,5.7,22.3,13.96-4.66,1.42-8.07,5.75-8.07,10.88s3.4,9.47,8.07,10.88Z"/>
</svg>