<?xml version="1.0" encoding="UTF-8"?>
<svg id="_레이어_1" data-name="레이어 1" xmlns="http://www.w3.org/2000/svg" viewBox="0 0 950 500">
  <defs>
    <style>
      .cls-1 {
        fill: none;
      }

      .cls-1, .cls-2, .cls-3, .cls-4, .cls-5 {
        stroke-miterlimit: 10;
      }

      .cls-1, .cls-2, .cls-4, .cls-5 {
        stroke-width: 1.5px;
      }

      .cls-1, .cls-5 {
        stroke: #000;
      }

      .cls-2, .cls-3, .cls-4 {
        stroke: #474642;
      }

      .cls-2, .cls-3, .cls-6 {
        fill: #474642;
      }

      .cls-4, .cls-5 {
        fill: #f1f3f4;
      }

      .cls-6 {
        font-family: PretendardVariable-Medium, 'Pretendard Variable';
        font-size: 16.34px;
        font-variation-settings: 'wght' 500;
        font-weight: 500;
      }
    </style>
  </defs>
  <g>
    <rect class="cls-5" x="769.16" y="55.14" width="106.14" height="88.31"/>
    <path class="cls-5" d="M928.37,143.45h-53.07v-79.08h14.54c15.05,15.05,23.49,23.49,38.54,38.54v40.54Z"/>
    <g>
      <circle class="cls-5" cx="797.4" cy="143.45" r="18.2"/>
      <circle class="cls-5" cx="797.4" cy="143.45" r="9.37"/>
    </g>
    <g>
      <circle class="cls-5" cx="892.83" cy="143.45" r="18.2"/>
      <circle class="cls-5" cx="892.83" cy="143.45" r="9.37"/>
    </g>
  </g>
  <g>
    <rect class="cls-5" x="769.16" y="302.77" width="106.14" height="88.31"/>
    <path class="cls-5" d="M928.37,391.09h-53.07v-79.08h14.54c15.05,15.05,23.49,23.49,38.54,38.54v40.54Z"/>
    <g>
      <circle class="cls-5" cx="797.4" cy="391.09" r="18.2"/>
      <circle class="cls-5" cx="797.4" cy="391.09" r="9.37"/>
    </g>
    <g>
      <circle class="cls-5" cx="892.83" cy="391.09" r="18.2"/>
      <circle class="cls-5" cx="892.83" cy="391.09" r="9.37"/>
    </g>
  </g>
  <g>
    <g>
      <rect class="cls-4" x="35.08" y="50.54" width="97.07" height="114.11" transform="translate(191.2 23.97) rotate(90)"/>
      <rect class="cls-4" x="70.3" y="15.31" width="26.62" height="114.11" transform="translate(155.98 -11.25) rotate(90)"/>
      <rect class="cls-4" x="37.02" y="53.14" width="19.02" height="9.51" transform="translate(104.43 11.37) rotate(90)"/>
      <rect class="cls-4" x="61.74" y="53.14" width="19.02" height="9.51" transform="translate(129.15 -13.36) rotate(90)"/>
      <rect class="cls-4" x="86.47" y="53.14" width="19.02" height="9.51" transform="translate(153.87 -38.08) rotate(90)"/>
      <rect class="cls-4" x="111.19" y="53.14" width="19.02" height="9.51" transform="translate(178.6 -62.8) rotate(90)"/>
      <rect class="cls-2" x="41.78" y="97.6" width="9.51" height="9.51" transform="translate(148.89 55.83) rotate(90)"/>
      <rect class="cls-2" x="66.5" y="97.6" width="9.51" height="9.51" transform="translate(173.61 31.11) rotate(90)"/>
      <rect class="cls-2" x="91.22" y="97.6" width="9.51" height="9.51" transform="translate(198.34 6.38) rotate(90)"/>
      <rect class="cls-2" x="115.94" y="97.6" width="9.51" height="9.51" transform="translate(223.06 -18.34) rotate(90)"/>
      <rect class="cls-2" x="41.78" y="116.54" width="9.51" height="9.51" transform="translate(167.82 74.76) rotate(90)"/>
      <rect class="cls-2" x="91.22" y="116.54" width="9.51" height="9.51" transform="translate(217.27 25.32) rotate(90)"/>
      <rect class="cls-2" x="41.78" y="135.47" width="9.51" height="9.51" transform="translate(186.76 93.69) rotate(90)"/>
      <rect class="cls-2" x="66.5" y="116.54" width="9.51" height="9.51" transform="translate(192.55 50.04) rotate(90)"/>
      <rect class="cls-2" x="66.5" y="135.47" width="9.51" height="9.51" transform="translate(211.48 68.97) rotate(90)"/>
    </g>
    <g>
      <circle class="cls-4" cx="120.7" cy="137.11" r="31.28"/>
      <polygon class="cls-3" points="121.65 136.16 121.65 119.04 119.75 119.04 119.75 136.16 119.75 138.06 121.65 138.06 138.77 138.06 138.77 136.16 121.65 136.16"/>
    </g>
  </g>
  <g>
    <path class="cls-4" d="M349.26,117.91c-2.97,6.09-9.21,10.29-16.44,10.29-10.11,0-18.31-8.2-18.31-18.31s8.2-18.31,18.31-18.31c7.23,0,13.47,4.2,16.44,10.29-3.44,1.05-5.95,4.24-5.95,8.02s2.51,6.98,5.95,8.02Z"/>
    <path class="cls-4" d="M331.88,45.39l-62.69,52.61,19.76,7.19v51.43h85.87v-51.43l19.76-7.19-62.7-52.61ZM331.89,140.85c-17.07,0-30.96-13.89-30.96-30.96s13.89-30.96,30.96-30.96,30.96,13.89,30.96,30.96-13.9,30.96-30.96,30.96Z"/>
    <path class="cls-4" d="M331.89,78.93c-17.07,0-30.96,13.89-30.96,30.96s13.89,30.96,30.96,30.96,30.96-13.89,30.96-30.96-13.9-30.96-30.96-30.96ZM349.26,117.91c-2.97,6.09-9.21,10.29-16.44,10.29-10.11,0-18.31-8.2-18.31-18.31s8.2-18.31,18.31-18.31c7.23,0,13.47,4.2,16.44,10.29-3.44,1.05-5.95,4.24-5.95,8.02s2.51,6.98,5.95,8.02Z"/>
  </g>
  <g>
    <g>
      <rect class="cls-5" x="534.95" y="44.39" width="74.39" height="112.53"/>
      <rect class="cls-5" x="541.9" y="91.04" width="8.39" height="19.24"/>
      <rect class="cls-5" x="563.17" y="62.8" width="19.04" height="7.7" rx="3.68" ry="3.68"/>
    </g>
    <g>
      <path class="cls-5" d="M627.56,113.52c-.1,0-.19-.01-.29-.02-1.92-.08-3.65-1.07-4.79-2.61-2.05-2.77-5.7-4.62-9.87-4.62-1.59,0-3.11.27-4.49.76-3.4,1.2-7.15,1.2-10.55,0-1.38-.49-2.9-.76-4.49-.76-4.17,0-7.82,1.85-9.87,4.62-1.14,1.54-2.87,2.54-4.79,2.61-.1,0-.19,0-.29.02-4.9.33-8.87,4.39-9.1,9.3-.26,5.62,4.22,10.27,9.78,10.27h48.07c5.57,0,10.05-4.64,9.78-10.27-.23-4.91-4.2-8.97-9.1-9.3Z"/>
      <polygon class="cls-5" points="568.35 170.12 567.16 124.88 638.52 124.88 637.33 170.12 568.35 170.12"/>
      <polygon class="cls-5" points="590.64 124.17 584.69 124.17 585.88 142.01 590.51 142.01 591.83 142.01 613.86 142.01 615.6 142.01 619.8 142.01 620.99 124.17 615.04 124.17 614.24 136.19 591.44 136.19 590.64 124.17"/>
    </g>
  </g>
  <g>
    <line class="cls-1" x1="174.18" y1="97.92" x2="233.82" y2="97.92"/>
    <polygon points="228.85 104.05 227.83 102.95 233.24 97.92 227.83 92.88 228.85 91.79 235.45 97.92 228.85 104.05"/>
  </g>
  <g>
    <line class="cls-1" x1="426.53" y1="97.92" x2="486.17" y2="97.92"/>
    <polygon points="481.2 104.05 480.18 102.95 485.59 97.92 480.18 92.88 481.2 91.79 487.8 97.92 481.2 104.05"/>
  </g>
  <g>
    <line class="cls-1" x1="666.01" y1="97.92" x2="725.65" y2="97.92"/>
    <polygon points="720.68 104.05 719.65 102.95 725.07 97.92 719.65 92.88 720.68 91.79 727.27 97.92 720.68 104.05"/>
  </g>
  <text class="cls-6" transform="translate(39.26 206.27)"><tspan x="0" y="0">지역별 서비스</tspan><tspan x="-1.99" y="19.61">운영 일정 확인</tspan></text>
  <text class="cls-6" transform="translate(280.71 206.27)"><tspan x="0" y="0">보송 앱 / 웹에서</tspan><tspan x="20.94" y="19.61">수거 신청</tspan></text>
  <text class="cls-6" transform="translate(523.49 206.27)"><tspan x="0" y="0">전용 세탁 가방에</tspan><tspan x="-16.11" y="19.61">넣어 현관문 앞에 두기</tspan></text>
  <text class="cls-6" transform="translate(802.41 206.27)"><tspan x="0" y="0">기사 방문 수거</tspan></text>
  <g>
    <line class="cls-1" x1="174.18" y1="347.94" x2="233.82" y2="347.94"/>
    <polygon points="228.85 354.07 227.83 352.97 233.24 347.94 227.83 342.9 228.85 341.8 235.45 347.94 228.85 354.07"/>
  </g>
  <g>
    <line class="cls-1" x1="426.53" y1="347.94" x2="486.17" y2="347.94"/>
    <polygon points="481.2 354.07 480.18 352.97 485.59 347.94 480.18 342.9 481.2 341.8 487.8 347.94 481.2 354.07"/>
  </g>
  <g>
    <line class="cls-1" x1="666.01" y1="347.94" x2="725.65" y2="347.94"/>
    <polygon points="720.68 354.07 719.65 352.97 725.07 347.94 719.65 342.9 720.68 341.8 727.27 347.94 720.68 354.07"/>
  </g>
  <g>
    <polygon class="cls-4" points="399.42 339.37 331.89 371.6 264.35 339.37 290.94 301.49 372.84 301.49 399.42 339.37"/>
    <polygon class="cls-4" points="375.25 408.49 288.52 408.49 290.94 301.49 372.84 301.49 375.25 408.49"/>
    <path class="cls-4" d="M315.59,301.49c0,6.71,7.3,12.16,16.3,12.16s16.3-5.44,16.3-12.16h-32.6Z"/>
    <path class="cls-4" d="M298.5,341.91h0c0-8.85-7.17-16.02-16.02-16.02h0c8.85,0,16.02-7.17,16.02-16.02h0c0,8.85,7.17,16.02,16.02,16.02h0c-8.85,0-16.02,7.17-16.02,16.02Z"/>
    <path class="cls-4" d="M363.55,414.3h0c0-15.49-12.56-28.05-28.05-28.05h0c15.49,0,28.05-12.56,28.05-28.05h0c0,15.49,12.56,28.05,28.05,28.05h0c-15.49,0-28.05,12.56-28.05,28.05Z"/>
  </g>
  <text class="cls-6" transform="translate(285.54 459.86)"><tspan x="0" y="0">맞춤 케어 진행</tspan></text>
  <rect class="cls-4" x="543.96" y="348.54" width="42.53" height="42.53" transform="translate(935.02 -195.42) rotate(90)"/>
  <polygon class="cls-4" points="639.08 295.94 639.08 295.94 591.54 416.3 569.12 365.9 518.72 343.48 639.08 295.94"/>
  <line class="cls-4" x1="639.08" y1="295.94" x2="569.12" y2="365.9"/>
  <text class="cls-6" transform="translate(537.61 459.86)"><tspan x="0" y="0">세탁 완료 및</tspan><tspan x="-7.06" y="19.61">배달 안내 수신</tspan></text>
  <text class="cls-6" transform="translate(788.29 459.86)"><tspan x="0" y="0">현관문 앞까지 배달</tspan></text>
  <g>
    <g>
      <rect class="cls-4" x="32.12" y="295.58" width="102.98" height="118.73"/>
      <path class="cls-4" d="M83.62,317.59c-20.6,0-37.36,16.75-37.36,37.35s16.76,37.36,37.36,37.36,37.35-16.76,37.35-37.36-16.76-37.35-37.35-37.35ZM106.88,365.82c-4.03,8.26-12.49,13.96-22.3,13.96-13.71,0-24.83-11.12-24.83-24.83s11.12-24.84,24.83-24.84c9.81,0,18.27,5.7,22.3,13.96-4.66,1.42-8.07,5.75-8.07,10.88s3.4,9.47,8.07,10.88Z"/>
    </g>
    <text class="cls-6" transform="translate(37.27 459.86)"><tspan x="0" y="0">맞춤 세탁 진행</tspan></text>
  </g>
</svg>