<?xml version="1.0" encoding="UTF-8"?>
<svg id="_레이어_1" data-name="레이어 1" xmlns="http://www.w3.org/2000/svg" viewBox="0 0 950 500">
  <defs>
    <style>
      .cls-1, .cls-2, .cls-3 {
        fill: none;
      }

      .cls-2, .cls-3, .cls-4, .cls-5, .cls-6, .cls-7 {
        stroke-width: 1.5px;
      }

      .cls-2, .cls-3, .cls-4, .cls-6, .cls-7 {
        stroke: #000;
      }

      .cls-2, .cls-4, .cls-5, .cls-6 {
        stroke-miterlimit: 10;
      }

      .cls-3, .cls-7 {
        stroke-linejoin: bevel;
      }

      .cls-8, .cls-9, .cls-10 {
        fill: #474642;
      }

      .cls-8, .cls-4 {
        fill-rule: evenodd;
      }

      .cls-4, .cls-5, .cls-6, .cls-7 {
        fill: #f1f3f4;
      }

      .cls-5 {
        stroke: #474642;
      }

      .cls-10 {
        font-family: PretendardVariable-Medium, 'Pretendard Variable';
        font-size: 16.34px;
        font-variation-settings: 'wght' 500;
        font-weight: 500;
      }
    </style>
  </defs>
  <g>
    <path class="cls-6" d="M438.25,49.4c-28.64,0-51.95,23.3-51.95,51.95s23.31,51.96,51.95,51.96,51.96-23.32,51.96-51.96-23.3-51.95-51.96-51.95ZM436.92,135.9c-13.65,0-25.41-7.93-31.02-19.41,6.49-1.96,11.22-8,11.22-15.13s-4.73-13.16-11.22-15.13c5.61-11.48,17.37-19.42,31.02-19.42,19.07,0,34.54,15.47,34.54,34.55s-15.47,34.54-34.54,34.54Z"/>
    <path class="cls-6" d="M471.46,101.36c0,19.07-15.47,34.54-34.54,34.54-13.65,0-25.41-7.93-31.02-19.41,6.49-1.96,11.22-8,11.22-15.13s-4.73-13.16-11.22-15.13c5.61-11.48,17.37-19.42,31.02-19.42,19.07,0,34.54,15.47,34.54,34.55Z"/>
    <g>
      <path class="cls-3" d="M411.08,89.55v-15.14c0-8.36-6.78-15.14-15.14-15.14h0c-8.36,0-15.14,6.78-15.14,15.14v15.14"/>
      <rect class="cls-7" x="370.51" y="78.5" width="50.85" height="45.38" transform="translate(791.87 202.38) rotate(-180)"/>
      <path class="cls-9" d="M388.15,99.01c0-4.3,3.48-7.78,7.78-7.78,4.3,0,7.78,3.48,7.78,7.78,0,3.72-2.61,6.82-6.1,7.59v6.71h-3.37v-6.71c-3.49-.77-6.1-3.87-6.1-7.59Z"/>
    </g>
  </g>
  <g>
    <g>
      <polygon class="cls-6" points="255.07 86.91 192.63 116.71 130.19 86.91 154.77 51.89 230.49 51.89 255.07 86.91"/>
      <polygon class="cls-6" points="232.73 150.82 152.53 150.82 154.77 51.89 230.49 51.89 232.73 150.82"/>
      <path class="cls-6" d="M177.56,51.89c0,6.21,6.75,11.24,15.07,11.24s15.07-5.03,15.07-11.24h-30.14Z"/>
    </g>
    <path class="cls-6" d="M122.69,126.32l-16.31,11.13-2.4-32-1.77-23.59,50.22,24.17-1.94,1.3-13.14,8.98c14.76,10.18,33.29,14.66,51.81,11.42,2.92-.49,5.83-1.19,8.75-2.09l4.95,16.02c-28.63,8.85-58.39,2.11-80.18-15.35Z"/>
  </g>
  <g>
    <line class="cls-2" x1="278.06" y1="97.92" x2="337.7" y2="97.92"/>
    <polygon points="332.73 104.05 331.7 102.95 337.12 97.92 331.7 92.88 332.73 91.79 339.32 97.92 332.73 104.05"/>
  </g>
  <g>
    <line class="cls-2" x1="525.19" y1="97.92" x2="584.83" y2="97.92"/>
    <polygon points="579.86 104.05 578.84 102.95 584.26 97.92 578.84 92.88 579.86 91.79 586.46 97.92 579.86 104.05"/>
  </g>
  <text class="cls-10" transform="translate(155.34 206.27)"><tspan x="0" y="0">세탁물 투입</tspan></text>
  <text class="cls-10" transform="translate(398.97 206.27)"><tspan x="0" y="0">문 잠금 확인</tspan></text>
  <g>
    <g>
      <g>
        <g>
          <path class="cls-6" d="M792.84,119.87V55.76c0-6.25-5.08-11.33-11.33-11.33s-11.33,5.08-11.33,11.33v64.05c-8.01,4.1-13.51,12.42-13.51,22.04,0,13.68,11.09,24.76,24.76,24.76s24.76-11.09,24.76-24.76c0-9.56-5.43-17.84-13.36-21.97Z"/>
          <path class="cls-6" d="M787.89,129.81V55.76c0-3.52-2.86-6.38-6.38-6.38h0c-3.52,0-6.38,2.86-6.38,6.38v74.06c-4.45,2.61-7.22,7.78-6.07,13.53.97,4.85,4.86,8.8,9.7,9.83,8.21,1.74,15.47-4.51,15.47-12.42,0-4.68-2.56-8.72-6.33-10.93Z"/>
          <path class="cls-8" d="M784.17,132.22v-51.69c0-1.47-1.19-2.66-2.66-2.66s-2.66,1.19-2.66,2.66v51.65c-3.7,1.12-6.41,4.51-6.41,8.57,0,4.97,4.03,9,9,9s9-4.03,9-9c0-4.01-2.64-7.36-6.26-8.53Z"/>
        </g>
        <g>
          <polygon class="cls-4" points="829.85 49.38 811.93 81.73 847.78 81.73 829.85 49.38"/>
          <polygon class="cls-4" points="829.85 122.38 847.78 90.02 811.93 90.02 829.85 122.38"/>
        </g>
      </g>
      <g>
        <path class="cls-7" d="M723.67,128.92l.28.14c2.94,1.42,6.42-.07,7.51-3.15,1.5-4.21,2.49-8.56,2.96-13.05.34-3.24-2.12-6.09-5.38-6.09h-.37c-2.8,0-5.07-2.16-5.38-4.95-.4-3.56-1.2-7-2.38-10.26-.95-2.66.14-5.61,2.68-6.85l.27-.13c2.91-1.42,3.93-5.06,2.21-7.8-2.36-3.76-5.17-7.25-8.34-10.37-2.31-2.27-6.07-2.05-8.09.48l-.19.25c-1.76,2.21-4.87,2.64-7.26,1.14-2.94-1.85-6.11-3.38-9.45-4.53-2.66-.92-4.27-3.61-3.65-6.36l.07-.31c.71-3.16-1.48-6.23-4.69-6.6-2.16-.25-4.33-.37-6.51-.37h-.01c-2.28,0-4.56.14-6.82.41-3.22.39-5.4,3.47-4.67,6.63l.07.31c.63,2.74-.96,5.45-3.62,6.38-3.33,1.17-6.49,2.71-9.42,4.58-2.38,1.52-5.5,1.1-7.27-1.1l-.19-.24c-2.03-2.53-5.8-2.72-8.09-.44-3.15,3.14-5.94,6.65-8.29,10.42-1.71,2.75-.66,6.38,2.26,7.78l.27.13c2.55,1.22,3.65,4.17,2.72,6.83-1.66,4.73-2.57,9.82-2.57,15.11,0,.03,0,.05,0,.08h-5.45c-3.26.01-5.73,2.87-5.38,6.12.48,4.42,1.47,8.73,2.97,12.9,1.1,3.07,4.58,4.56,7.52,3.14l.29-.14c2.46-1.19,5.47-.4,6.91,1.92,1.93,3.1,4.23,5.96,6.82,8.51,1.96,1.92,2.08,5.03.37,7.18l-.2.25c-2.02,2.53-1.38,6.26,1.35,7.99,3.77,2.39,7.82,4.34,12.02,5.79,3.06,1.06,6.37-.77,7.09-3.93l.07-.3c.63-2.76,3.25-4.49,6.06-4.17,1.71.2,3.44.3,5.2.3s3.53-.11,5.25-.31c2.81-.33,5.43,1.41,6.06,4.16l.07.3c.72,3.16,4.03,4.98,7.1,3.92,4.2-1.46,8.25-3.41,12.01-5.81,2.73-1.74,3.36-5.46,1.34-7.99l-.19-.24c-1.71-2.14-1.59-5.26.36-7.18,2.59-2.55,4.88-5.41,6.81-8.52,1.44-2.32,4.45-3.12,6.91-1.93Z"/>
        <path class="cls-7" d="M706.28,105.52c0,15.62-12.72,28.34-28.34,28.34s-28.35-12.72-28.35-28.34,12.71-28.35,28.35-28.35,28.34,12.72,28.34,28.35Z"/>
      </g>
    </g>
    <text class="cls-10" transform="translate(646.98 206.27)"><tspan x="0" y="0">세탁 코스 및 건조 코스 선택</tspan></text>
  </g>
  <g>
    <line class="cls-2" x1="106.53" y1="347.94" x2="166.17" y2="347.94"/>
    <polygon points="161.2 354.07 160.18 352.97 165.59 347.94 160.18 342.9 161.2 341.8 167.8 347.94 161.2 354.07"/>
  </g>
  <g>
    <line class="cls-2" x1="626.71" y1="347.94" x2="686.35" y2="347.94"/>
    <polygon points="681.38 354.07 680.35 352.97 685.77 347.94 680.35 342.9 681.38 341.8 687.97 347.94 681.38 354.07"/>
  </g>
  <path class="cls-6" d="M358.71,350.53c0,29.02-23.59,52.63-52.61,52.63s-52.63-23.61-52.63-52.63,23.61-52.61,52.63-52.61,52.61,23.61,52.61,52.61Z"/>
  <path class="cls-1" d="M334.72,333.4c-6.07,0-9.69,6.4-9.69,17.13s3.62,17.08,9.69,17.08,9.69-6.39,9.69-17.08-3.62-17.13-9.69-17.13Z"/>
  <path d="M268.89,348.74l-.04.05h-.41l.02-.14,1.99-14.99h15.98v-1.32h-17.23l-2.35,18.27,1.71-.05c1.61-2.22,4.4-3.49,7.66-3.49,5.88,0,10.14,4.35,10.14,10.35.03,2.99-1.02,5.71-2.94,7.65-1.82,1.84-4.34,2.85-7.1,2.85-5.18,0-8.82-3.32-8.88-8.1h-1.37c.06,5.55,4.26,9.42,10.25,9.42,6.59,0,11.41-4.97,11.47-11.82.02-3.25-1.13-6.22-3.25-8.35-2.12-2.14-5.02-3.31-8.16-3.31s-6.11,1.14-7.49,2.99Z"/>
  <path d="M305.73,331.83c-3.46,0-6.33,1.72-8.31,4.97-1.99,3.27-3.05,8.02-3.05,13.73s1.06,10.46,3.05,13.73c1.98,3.25,4.86,4.97,8.31,4.97,7.12,0,11.36-6.99,11.36-18.7,0-5.71-1.06-10.46-3.05-13.73-1.98-3.25-4.86-4.97-8.31-4.97ZM315.67,350.54c0,10.85-3.72,17.33-9.94,17.33s-9.94-6.48-9.94-17.33,3.72-17.38,9.94-17.38,9.94,6.5,9.94,17.38Z"/>
  <path d="M343.03,336.8c-1.98-3.25-4.86-4.97-8.31-4.97s-6.33,1.72-8.31,4.97c-1.99,3.27-3.05,8.02-3.05,13.73s1.06,10.46,3.05,13.73c1.98,3.25,4.86,4.97,8.31,4.97,7.12,0,11.36-6.99,11.36-18.7,0-5.71-1.06-10.46-3.05-13.73ZM334.72,367.87c-6.23,0-9.94-6.48-9.94-17.33s3.72-17.38,9.94-17.38,9.94,6.5,9.94,17.38-3.72,17.33-9.94,17.33Z"/>
  <path class="cls-6" d="M220.18,377.83l-17.83,12.16-2.63-34.98-1.93-25.79,54.9,26.43-2.12,1.42-14.36,9.81c16.14,11.13,36.39,16.03,56.63,12.49,3.19-.54,6.38-1.3,9.56-2.28l5.42,17.51c-31.29,9.68-63.83,2.31-87.64-16.78Z"/>
  <text class="cls-10" transform="translate(222.85 459.86)"><tspan x="0" y="0">카드 및 동전 투입</tspan></text>
  <polygon class="cls-6" points="825.89 382.26 738.78 382.26 729.19 317.38 835.48 317.38 825.89 382.26"/>
  <polyline class="cls-2" points="825.89 393.76 738.78 393.76 738.78 382.26 725.04 289.28 705.97 289.28"/>
  <circle class="cls-6" cx="756.65" cy="402.65" r="8.89"/>
  <circle class="cls-6" cx="807.06" cy="402.65" r="8.89"/>
  <line class="cls-2" x1="733.98" y1="349.82" x2="830.37" y2="349.82"/>
  <g>
    <line class="cls-2" x1="729.19" y1="317.38" x2="738.78" y2="382.26"/>
    <line class="cls-2" x1="746.91" y1="317.38" x2="753.3" y2="382.26"/>
    <line class="cls-2" x1="764.62" y1="317.38" x2="767.82" y2="382.26"/>
    <line class="cls-2" x1="782.33" y1="317.38" x2="782.33" y2="382.26"/>
    <line class="cls-2" x1="800.05" y1="317.38" x2="796.85" y2="382.26"/>
    <line class="cls-2" x1="817.76" y1="317.38" x2="811.37" y2="382.26"/>
    <line class="cls-2" x1="835.48" y1="317.38" x2="825.89" y2="382.26"/>
  </g>
  <text class="cls-10" transform="translate(739.51 459.86)"><tspan x="0" y="0">빨래 및 사용한 </tspan><tspan x="16.11" y="19.61">시설 정리</tspan></text>
  <g>
    <rect class="cls-5" x="485.51" y="295.78" width="102.98" height="118.73"/>
    <path class="cls-5" d="M537.01,317.79c-20.6,0-37.36,16.75-37.36,37.35s16.76,37.36,37.36,37.36,37.35-16.76,37.35-37.36-16.76-37.35-37.35-37.35ZM560.27,366.02c-4.03,8.26-12.49,13.96-22.3,13.96-13.71,0-24.83-11.12-24.83-24.83s11.12-24.84,24.83-24.84c9.81,0,18.27,5.7,22.3,13.96-4.66,1.42-8.07,5.75-8.07,10.88s3.4,9.47,8.07,10.88Z"/>
  </g>
  <text class="cls-10" transform="translate(490.65 460.07)"><tspan x="0" y="0">맞춤 세탁 진행</tspan></text>
  <g>
    <line class="cls-2" x1="386.33" y1="347.94" x2="445.97" y2="347.94"/>
    <polygon points="441 354.07 439.97 352.97 445.39 347.94 439.97 342.9 441 341.8 447.59 347.94 441 354.07"/>
  </g>
</svg>